<svg width="48" height="48" viewBox="0 0 48 48" fill="none" xmlns="http://www.w3.org/2000/svg">
<path d="M22.2 33H15C12.51 33 10.3872 32.1222 8.6316 30.3666C6.876 28.611 5.9988 26.4888 6 24C6 21.51 6.8778 19.3872 8.6334 17.6316C10.389 15.876 12.5112 14.9988 15 15H22.2V18.6H15C13.5 18.6 12.225 19.125 11.175 20.175C10.125 21.225 9.6 22.5 9.6 24C9.6 25.5 10.125 26.775 11.175 27.825C12.225 28.875 13.5 29.4 15 29.4H22.2V33ZM16.8 25.8V22.2H31.2V25.8H16.8ZM25.8 33V29.4H33C34.5 29.4 35.775 28.875 36.825 27.825C37.875 26.775 38.4 25.5 38.4 24C38.4 22.5 37.875 21.225 36.825 20.175C35.775 19.125 34.5 18.6 33 18.6H25.8V15H33C35.49 15 37.6128 15.8778 39.3684 17.6334C41.124 19.389 42.0012 21.5112 42 24C42 26.49 41.1222 28.6128 39.3666 30.3684C37.611 32.124 35.4888 33.0012 33 33H25.8Z" fill="#F0F2F4" fill-opacity="0.8"/>
</svg>
