<svg width="48" height="48" viewBox="0 0 48 48" fill="none" xmlns="http://www.w3.org/2000/svg">
<path d="M40.597 22.4626L25.5331 7.4009C25.3269 7.19454 25.082 7.03085 24.8125 6.91917C24.5429 6.80748 24.254 6.75 23.9623 6.75C23.6705 6.75 23.3816 6.80748 23.1121 6.91917C22.8425 7.03085 22.5977 7.19454 22.3914 7.4009L19.2648 10.5275L23.2324 14.4951C23.7003 14.3353 24.2037 14.3103 24.6851 14.423C25.1666 14.5356 25.6067 14.7813 25.9552 15.132C26.3037 15.4828 26.5466 15.9244 26.6561 16.4066C26.7656 16.8888 26.7374 17.392 26.5746 17.8589L30.3977 21.6841C30.9633 21.485 31.5799 21.4844 32.1459 21.6824C32.7119 21.8805 33.1936 22.2654 33.5117 22.7737C33.8298 23.2821 33.9652 23.8836 33.8958 24.4792C33.8264 25.0748 33.5562 25.6291 33.1297 26.0506C32.698 26.485 32.1289 26.756 31.5195 26.8174C30.9102 26.8787 30.2984 26.7266 29.7888 26.387C29.2792 26.0474 28.9032 25.5414 28.7252 24.9554C28.5472 24.3694 28.5782 23.7398 28.8128 23.1741L25.2485 19.6076V28.994C25.7903 29.2621 26.2238 29.7079 26.4767 30.257C26.7297 30.806 26.7869 31.4252 26.6387 32.0113C26.4905 32.5973 26.1459 33.1149 25.6623 33.4777C25.1788 33.8406 24.5855 34.0267 23.9814 34.0051C23.3772 33.9835 22.7987 33.7556 22.3423 33.3592C21.8859 32.9628 21.5791 32.4219 21.4731 31.8268C21.3671 31.2316 21.4682 30.6181 21.7597 30.0885C22.0512 29.5589 22.5154 29.1452 23.075 28.9163V19.4438C22.7521 19.3115 22.4587 19.1166 22.2115 18.8704C21.9644 18.6242 21.7684 18.3315 21.6349 18.0091C21.5014 17.6868 21.433 17.3413 21.4337 16.9924C21.4344 16.6435 21.5041 16.2982 21.6389 15.9765L17.7295 12.0649L7.4009 22.3936C7.19454 22.5998 7.03085 22.8447 6.91917 23.1142C6.80748 23.3838 6.75 23.6727 6.75 23.9644C6.75 24.2562 6.80748 24.5451 6.91917 24.8146C7.03085 25.0841 7.19454 25.329 7.4009 25.5353L22.4647 40.5991C22.671 40.8055 22.9159 40.9692 23.1854 41.0808C23.4549 41.1925 23.7438 41.25 24.0356 41.25C24.3273 41.25 24.6162 41.1925 24.8858 41.0808C25.1553 40.9692 25.4002 40.8055 25.6064 40.5991L40.5991 25.6064C41.0153 25.1896 41.2491 24.6246 41.2491 24.0356C41.2491 23.4465 41.0153 22.8815 40.5991 22.4647" fill="#F0F2F4" fill-opacity="0.8"/>
</svg>
