<svg width="48" height="48" viewBox="0 0 48 48" fill="none" xmlns="http://www.w3.org/2000/svg">
<path d="M43.3789 36.4563L24.6547 47V38.7855L36.3216 32.3944L43.3789 36.4563ZM44.6626 35.3006V13.2424L37.808 17.1843V31.3587L44.6626 35.3006ZM4.28372 36.4563L23.0079 47V38.7855L11.3409 32.3944L4.28372 36.4563ZM3 35.3006V13.2424L9.85462 17.1843V31.3587L3 35.3006ZM3.80233 11.8144L23.0079 1V8.94383L10.6148 15.732L3.80233 11.8144ZM43.8603 11.8144L24.6547 1V8.94383L37.0478 15.732L43.8603 11.8144ZM23.0079 36.9215L11.5014 30.6147V18.1292L23.0079 24.7472V36.9215ZM24.6547 36.9215L36.1612 30.6147V18.1292L24.6547 24.7472V36.9215ZM12.2778 16.6867L23.8345 10.3637L35.3913 16.6867L23.8345 23.3306L12.2778 16.6867Z" fill="#F0F2F4" fill-opacity="0.8"/>
</svg>
