<svg width="48" height="48" viewBox="0 0 48 48" fill="none" xmlns="http://www.w3.org/2000/svg">
<path d="M6.02257 19.9428C10.6861 30.1046 18.9726 38.1587 29.2595 42.5279L30.9113 43.2643C32.7405 44.0794 34.7985 44.2222 36.7227 43.6677C38.6468 43.1133 40.3137 41.897 41.4294 40.2334L43.5889 37.0153C43.9268 36.5106 44.0637 35.8976 43.9724 35.297C43.8811 34.6964 43.5684 34.1518 43.0958 33.7704L35.7793 27.8641C35.5245 27.6585 35.2308 27.5066 34.9159 27.4175C34.6009 27.3284 34.2712 27.3038 33.9465 27.3454C33.6219 27.3869 33.309 27.4937 33.0266 27.6592C32.7442 27.8248 32.4981 28.0458 32.3032 28.3089L30.0393 31.3642C24.2279 28.4923 19.5239 23.7846 16.6548 17.9692L19.7058 15.7039C19.9687 15.5088 20.1896 15.2626 20.3551 14.9801C20.5205 14.6975 20.6272 14.3844 20.6688 14.0595C20.7103 13.7347 20.6858 13.4048 20.5967 13.0896C20.5076 12.7745 20.3558 12.4806 20.1503 12.2257L14.2476 4.90473C13.8664 4.43187 13.3222 4.11895 12.7219 4.02763C12.1217 3.9363 11.5091 4.07319 11.0047 4.41132L7.76667 6.58427C6.09398 7.70667 4.87381 9.38677 4.32352 11.3253C3.77323 13.2638 3.92857 15.3349 4.76185 17.1695L6.02257 19.9428Z" fill="#F0F2F4" fill-opacity="0.8"/>
</svg>
