<svg width="48" height="48" viewBox="0 0 48 48" fill="none" xmlns="http://www.w3.org/2000/svg">
<path d="M34.5417 24C33.7792 24 33.0479 23.6971 32.5087 23.1579C31.9696 22.6188 31.6667 21.8875 31.6667 21.125C31.6667 20.3625 31.9696 19.6312 32.5087 19.0921C33.0479 18.5529 33.7792 18.25 34.5417 18.25C35.3042 18.25 36.0354 18.5529 36.5746 19.0921C37.1138 19.6312 37.4167 20.3625 37.4167 21.125C37.4167 21.8875 37.1138 22.6188 36.5746 23.1579C36.0354 23.6971 35.3042 24 34.5417 24ZM28.7917 16.3333C28.0292 16.3333 27.2979 16.0304 26.7587 15.4913C26.2196 14.9521 25.9167 14.2208 25.9167 13.4583C25.9167 12.6958 26.2196 11.9646 26.7587 11.4254C27.2979 10.8862 28.0292 10.5833 28.7917 10.5833C29.5542 10.5833 30.2854 10.8862 30.8246 11.4254C31.3638 11.9646 31.6667 12.6958 31.6667 13.4583C31.6667 14.2208 31.3638 14.9521 30.8246 15.4913C30.2854 16.0304 29.5542 16.3333 28.7917 16.3333ZM19.2083 16.3333C18.4458 16.3333 17.7146 16.0304 17.1754 15.4913C16.6362 14.9521 16.3333 14.2208 16.3333 13.4583C16.3333 12.6958 16.6362 11.9646 17.1754 11.4254C17.7146 10.8862 18.4458 10.5833 19.2083 10.5833C19.9708 10.5833 20.7021 10.8862 21.2413 11.4254C21.7804 11.9646 22.0833 12.6958 22.0833 13.4583C22.0833 14.2208 21.7804 14.9521 21.2413 15.4913C20.7021 16.0304 19.9708 16.3333 19.2083 16.3333ZM13.4583 24C12.6958 24 11.9646 23.6971 11.4254 23.1579C10.8862 22.6188 10.5833 21.8875 10.5833 21.125C10.5833 20.3625 10.8862 19.6312 11.4254 19.0921C11.9646 18.5529 12.6958 18.25 13.4583 18.25C14.2208 18.25 14.9521 18.5529 15.4913 19.0921C16.0304 19.6312 16.3333 20.3625 16.3333 21.125C16.3333 21.8875 16.0304 22.6188 15.4913 23.1579C14.9521 23.6971 14.2208 24 13.4583 24ZM24 6.75C19.425 6.75 15.0374 8.56741 11.8024 11.8024C8.56741 15.0374 6.75 19.425 6.75 24C6.75 28.575 8.56741 32.9626 11.8024 36.1976C15.0374 39.4326 19.425 41.25 24 41.25C24.7625 41.25 25.4938 40.9471 26.0329 40.4079C26.5721 39.8688 26.875 39.1375 26.875 38.375C26.875 37.6275 26.5875 36.9567 26.1275 36.4583C25.6867 35.9408 25.3992 35.27 25.3992 34.5417C25.3992 33.7792 25.7021 33.0479 26.2412 32.5087C26.7804 31.9696 27.5117 31.6667 28.2742 31.6667H31.6667C34.2083 31.6667 36.6459 30.657 38.4431 28.8598C40.2403 27.0625 41.25 24.625 41.25 22.0833C41.25 13.6117 33.5258 6.75 24 6.75Z" fill="#F0F2F4" fill-opacity="0.8"/>
</svg>
