<svg width="48" height="48" viewBox="0 0 48 48" fill="none" xmlns="http://www.w3.org/2000/svg">
<path d="M24.0341 5.25C18.2502 5.25 14.504 7.59733 11.5628 11.7836C11.0293 12.543 11.1938 13.5842 11.938 14.1432L15.0639 16.491C15.8156 17.0555 16.885 16.9235 17.4735 16.1932C19.2886 13.9408 20.635 12.6439 23.4703 12.6439C25.6995 12.6439 28.4569 14.065 28.4569 16.2063C28.4569 17.825 27.1078 18.6564 24.9067 19.8787C22.3399 21.3042 18.9431 23.0783 18.9431 27.5162V28.2188C18.9431 29.1702 19.7217 29.9414 20.6822 29.9414H25.9337C26.8941 29.9414 27.6728 29.1702 27.6728 28.2188V27.8044C27.6728 24.728 36.75 24.5999 36.75 16.275C36.7501 10.0057 30.1848 5.25 24.0341 5.25ZM23.308 32.0559C20.5402 32.0559 18.2884 34.2864 18.2884 37.028C18.2884 39.7695 20.5402 42 23.308 42C26.0758 42 28.3275 39.7695 28.3275 37.0279C28.3275 34.2863 26.0758 32.0559 23.308 32.0559Z" fill="#F0F2F4" fill-opacity="0.8"/>
</svg>
