<svg width="48" height="48" viewBox="0 0 48 48" fill="none" xmlns="http://www.w3.org/2000/svg">
<path d="M15.6285 27.84C15.4749 26.5728 15.3597 25.3056 15.3597 24C15.3597 22.6944 15.4749 21.4272 15.6285 20.16H9.13891C8.83171 21.3888 8.63971 22.6752 8.63971 24C8.63971 25.3248 8.83171 26.6112 9.13891 27.84H15.6285ZM19.0269 38.5152C17.8749 36.384 16.9917 34.08 16.3773 31.68H10.7133C12.5735 34.8831 15.5246 37.3095 19.0269 38.5152ZM19.5069 27.84H28.4925C28.6845 26.5728 28.7997 25.3056 28.7997 24C28.7997 22.6944 28.6845 21.408 28.4925 20.16H19.5069C19.3341 21.408 19.1997 22.6944 19.1997 24C19.1997 25.3056 19.3341 26.5728 19.5069 27.84ZM23.9997 39.2832C25.5933 36.9792 26.8797 34.4256 27.6669 31.68H20.3325C21.1197 34.4256 22.4061 36.9792 23.9997 39.2832ZM31.6797 16.32H37.2861C35.4451 13.1083 32.4961 10.6781 28.9917 9.48485C30.1437 11.616 31.0077 13.92 31.6797 16.32ZM37.2861 31.68H31.6797C31.0077 34.08 30.1437 36.384 28.9917 38.5152C32.4888 37.3088 35.4336 34.8821 37.2861 31.68ZM38.8605 27.84C39.1677 26.6112 39.3597 25.3248 39.3597 24C39.3597 22.6752 39.1677 21.3888 38.8605 20.16H32.3709C32.5245 21.4272 32.6397 22.6944 32.6397 24C32.6397 25.3056 32.5245 26.5728 32.3709 27.84H38.8605ZM23.9997 8.69765C22.4061 11.0016 21.1197 13.5744 20.3325 16.32H27.6669C26.8797 13.5744 25.5933 11.0016 23.9997 8.69765ZM10.7133 16.32H16.3773C16.9782 13.942 17.868 11.6466 19.0269 9.48485C15.4941 10.6944 12.5565 13.1328 10.7133 16.32ZM23.9997 4.80005C34.6173 4.80005 43.1997 13.44 43.1997 24C43.1997 29.0922 41.1769 33.9758 37.5762 37.5765C35.7933 39.3594 33.6767 40.7736 31.3472 41.7385C29.0178 42.7034 26.5211 43.2 23.9997 43.2C18.9076 43.2 14.024 41.1772 10.4233 37.5765C6.82256 33.9758 4.79971 29.0922 4.79971 24C4.79971 21.4787 5.29633 18.982 6.26122 16.6525C7.22611 14.3231 8.64037 12.2065 10.4233 10.4236C12.2061 8.64071 14.3227 7.22645 16.6522 6.26156C18.9816 5.29667 21.4783 4.80005 23.9997 4.80005Z" fill="#E0E6EB" fill-opacity="0.9"/>
</svg>
