<svg width="48" height="48" viewBox="0 0 48 48" fill="none" xmlns="http://www.w3.org/2000/svg">
<path fill-rule="evenodd" clip-rule="evenodd" d="M15 9H18C18.7956 9 19.5587 9.31607 20.1213 9.87868C20.6839 10.4413 21 11.2044 21 12V36C21 36.7956 20.6839 37.5587 20.1213 38.1213C19.5587 38.6839 18.7956 39 18 39H15C14.2044 39 13.4413 38.6839 12.8787 38.1213C12.3161 37.5587 12 36.7956 12 36V12C12 11.2044 12.3161 10.4413 12.8787 9.87868C13.4413 9.31607 14.2044 9 15 9ZM30 9H33C33.7956 9 34.5587 9.31607 35.1213 9.87868C35.6839 10.4413 36 11.2044 36 12V36C36 36.7956 35.6839 37.5587 35.1213 38.1213C34.5587 38.6839 33.7956 39 33 39H30C29.2044 39 28.4413 38.6839 27.8787 38.1213C27.3161 37.5587 27 36.7956 27 36V12C27 11.2044 27.3161 10.4413 27.8787 9.87868C28.4413 9.31607 29.2044 9 30 9Z" fill="#E0E6EB" fill-opacity="0.9"/>
</svg>
