<svg width="48" height="48" viewBox="0 0 48 48" fill="none" xmlns="http://www.w3.org/2000/svg">
<path d="M24 42.75C23.4643 42.75 22.9642 42.6121 22.5 42.371L17.75 39.6494C17.0357 39.2704 17.3929 39.1327 17.6072 39.0636C18.5714 38.7537 18.75 38.6848 19.75 38.1335C19.8571 38.0646 20 38.099 20.1071 38.1679L23.75 40.2695C23.8929 40.3383 24.0714 40.3383 24.1786 40.2695L38.4285 32.3113C38.5714 32.2424 38.6429 32.1046 38.6429 31.9323V16.0504C38.6429 15.8781 38.5714 15.7403 38.4285 15.6714L24.1786 7.74769C24.0358 7.6788 23.8571 7.6788 23.75 7.74769L9.49999 15.6714C9.35715 15.7403 9.28572 15.9126 9.28572 16.0504V31.9323C9.28572 32.0702 9.35715 32.2424 9.49999 32.3113L13.3928 34.4817C15.5 35.5152 16.8214 34.3095 16.8214 33.1037V17.4284C16.8214 17.2217 17 17.015 17.25 17.015H19.0714C19.2857 17.015 19.5 17.1873 19.5 17.4284V33.1037C19.5 35.8253 17.9643 37.4101 15.2857 37.4101C14.4643 37.4101 13.8214 37.4101 12 36.5488L8.25 34.4817C7.32143 33.965 6.75 33.0004 6.75 31.9667V16.0849C6.75 15.0513 7.32143 14.0867 8.25 13.5699L22.5 5.61174C23.3928 5.12942 24.6072 5.12942 25.5 5.61174L39.75 13.5699C40.6786 14.0867 41.25 15.0513 41.25 16.0849V31.9667C41.25 33.0004 40.6786 33.965 39.75 34.4817L25.5 42.4399C25.0358 42.6465 24.4999 42.75 24 42.75ZM28.3928 31.829C22.1428 31.829 20.8571 29.0729 20.8571 26.7303C20.8571 26.5235 21.0357 26.3169 21.2858 26.3169H23.1428C23.3572 26.3169 23.5357 26.4546 23.5357 26.6613C23.8214 28.4871 24.6428 29.383 28.4285 29.383C31.4286 29.383 32.7142 28.7284 32.7142 27.1782C32.7142 26.2824 32.3572 25.6278 27.6786 25.1799C23.7858 24.8009 21.3571 23.9741 21.3571 20.977C21.3571 18.1864 23.7858 16.5327 27.8571 16.5327C32.4285 16.5327 34.6785 18.0486 34.9643 21.3558C34.9643 21.4593 34.9285 21.5626 34.8572 21.6659C34.7856 21.7348 34.6785 21.8037 34.5714 21.8037H32.7142C32.5358 21.8037 32.3572 21.6659 32.3214 21.4937C31.8928 19.5989 30.7857 18.9787 27.8571 18.9787C24.5714 18.9787 24.1786 20.0812 24.1786 20.9079C24.1786 21.9071 24.6428 22.2171 29.0715 22.7684C33.4643 23.3196 35.5357 24.112 35.5357 27.0747C35.4999 30.1064 32.9286 31.829 28.3928 31.829Z" fill="#F0F2F4" fill-opacity="0.8"/>
</svg>
