<svg width="48" height="48" viewBox="0 0 48 48" fill="none" xmlns="http://www.w3.org/2000/svg">
<path d="M21.2891 13.4413C21.1367 13.4494 21.0074 13.5387 20.9461 13.6671L20.9445 13.6704C20.8782 13.8079 20.8153 13.8767 20.7556 13.8767C20.6816 13.8919 20.6446 13.8556 20.6446 13.7678C20.6446 13.5945 20.7849 13.4857 21.0654 13.4413H21.2891ZM23.2175 13.7451C23.1578 13.7603 23.0728 13.7131 22.9623 13.6037C22.8944 13.5322 22.7983 13.4868 22.6923 13.4868C22.6492 13.4868 22.6095 13.4933 22.5713 13.5063H22.5747C22.9281 13.347 23.165 13.3611 23.2854 13.5485C23.3003 13.5696 23.3086 13.594 23.3086 13.6216C23.3086 13.6785 23.2721 13.7256 23.2208 13.7435H23.2191L23.2175 13.7451ZM15.431 23.0373C15.4211 23.0341 15.4112 23.0324 15.3996 23.0324C15.3532 23.0324 15.3134 23.0617 15.2985 23.1007C15.2621 23.1754 15.2289 23.2664 15.2024 23.3606L15.1991 23.3736C15.1676 23.4858 15.1262 23.5832 15.0732 23.6742L15.0765 23.6677C15.0069 23.7733 14.934 23.866 14.8528 23.9521L14.8545 23.9504C14.7065 24.1097 14.6988 24.1963 14.8313 24.2104C14.891 24.2256 14.9832 24.1747 15.108 24.0577C15.2256 23.9504 15.32 23.8205 15.383 23.6742L15.3863 23.6677C15.4018 23.6244 15.4161 23.5735 15.4294 23.515C15.441 23.4646 15.4559 23.4224 15.4741 23.3801L15.4725 23.385C15.4874 23.3574 15.499 23.3249 15.5056 23.2908V23.2875C15.5122 23.2615 15.5155 23.2323 15.5155 23.2014V23.1364L15.4923 23.0812L15.431 23.0373ZM34.4001 30.8493C34.4001 30.5894 33.9931 30.2861 33.1791 29.9394C33.2387 29.7217 33.2945 29.5224 33.3464 29.3415C33.3945 29.1807 33.4342 28.9889 33.4558 28.7923L33.4574 28.7761C33.4795 28.58 33.5016 28.4241 33.5237 28.3081C33.5369 28.222 33.5452 28.1213 33.5452 28.0206C33.5452 27.9491 33.5419 27.8792 33.5336 27.8093V27.8175C33.5182 27.6073 33.5104 27.466 33.5104 27.3934C33.4955 27.2147 33.4674 27.0522 33.4276 26.893L33.4326 26.9141C33.3807 26.6671 33.3509 26.5187 33.3431 26.4689C33.3354 26.4191 33.2984 26.2382 33.2321 25.9262C33.1659 25.6142 33.125 25.422 33.1095 25.3494C32.8958 24.4948 32.5363 23.7457 32.0526 23.0893L32.0658 23.1088C31.655 22.4491 31.1198 21.9032 30.4886 21.4889L30.4688 21.4775C30.9807 21.9877 31.4048 22.5856 31.7163 23.2437L31.7328 23.2827C32.5794 24.5419 33.083 26.0871 33.083 27.7476C33.083 28.3082 33.025 28.8557 32.9157 29.3838L32.924 29.3318C32.8229 29.8517 32.3657 30.2384 31.8157 30.2417C31.3573 30.3002 31.0729 30.1658 30.9625 29.8387C30.8465 29.3708 30.7802 28.833 30.7802 28.2805C30.7802 28.1879 30.7819 28.0969 30.7852 28.0059V28.0189C30.7852 28.0043 30.7852 27.9864 30.7852 27.9669C30.7852 27.1594 30.6924 26.3746 30.5152 25.6191L30.5284 25.689C30.3892 25.0797 30.2401 24.5776 30.0645 24.0869L30.096 24.1877C29.9668 23.8042 29.821 23.476 29.6471 23.1657L29.6636 23.1965C29.53 22.9723 29.4157 22.7947 29.3207 22.6636C29.2329 22.5417 29.1368 22.4345 29.0324 22.3386L29.0308 22.337L28.8734 22.1843C28.6845 21.3183 28.4476 20.5692 28.1511 19.8495L28.1859 19.9437C28.0102 19.479 27.7883 19.0761 27.5199 18.7105L27.5298 18.7251C27.3509 18.5139 27.1786 18.2799 27.0245 18.0329L27.0096 18.0069C26.7843 17.6641 26.6501 17.2465 26.6501 16.7965C26.6501 16.4991 26.7081 16.2164 26.8141 15.9564L26.8092 15.9711C26.8953 15.7631 26.9467 15.521 26.9467 15.2675C26.9467 15.1343 26.9334 15.0059 26.9069 14.8808L26.9086 14.8938C26.8268 14.6469 26.4977 14.466 25.9212 14.3511C25.5451 14.252 25.2171 14.1188 24.9122 13.9498L24.9338 13.9612C24.7101 13.8345 24.4517 13.7175 24.18 13.6232L24.1469 13.6135C24.0287 13.5983 23.9475 13.4098 23.9033 13.0481C23.895 12.9782 23.8901 12.897 23.8901 12.8157C23.8901 12.4973 23.9597 12.1967 24.0856 11.9253L24.0806 11.9383C24.1949 11.6036 24.5047 11.3631 24.8741 11.3501C24.9238 11.342 24.9835 11.3371 25.0415 11.3371C25.4838 11.3371 25.8599 11.6101 26.0057 11.9936L26.0073 12.0001C26.12 12.2145 26.1862 12.4664 26.1862 12.7345C26.1862 12.9229 26.1531 13.1049 26.0935 13.2739L26.0968 13.2625C25.9344 13.5377 25.9201 13.7299 26.0537 13.8393C26.1873 13.9487 26.4082 13.952 26.7164 13.8491C26.9086 13.7906 27.0046 13.5306 27.0046 13.0692V12.26C26.9417 11.8522 26.8373 11.4866 26.6932 11.1389L26.7048 11.1714C26.6004 10.9082 26.4414 10.6856 26.2393 10.5085L26.2376 10.5069C26.0885 10.3769 25.9162 10.268 25.729 10.1852L25.7157 10.1803C25.5451 10.112 25.3446 10.0552 25.1359 10.0194L25.1177 10.0162C23.535 10.1321 22.8767 11.1037 23.1429 12.9311C23.1462 12.9619 23.1479 12.9961 23.1479 13.0318C23.1479 13.1114 23.1379 13.1894 23.1181 13.2642L23.1197 13.2577C22.9458 13.1147 22.7205 13.0286 22.4736 13.0286C22.4703 13.0286 22.467 13.0286 22.4637 13.0286C22.3676 13.0188 22.2582 13.0139 22.1456 13.0139C21.9998 13.0139 21.8557 13.0237 21.7148 13.0416L21.7314 13.0399C21.547 13.0681 21.4327 13.0318 21.3885 12.9311C21.3934 12.8498 21.3968 12.754 21.3968 12.6581C21.3968 12.0472 21.2626 11.4671 21.0223 10.9456L21.0339 10.9716C20.8716 10.5637 20.4939 10.2729 20.0399 10.2323H20.035C20.0267 10.2323 20.0167 10.2323 20.0068 10.2323C19.6026 10.2323 19.258 10.4776 19.1172 10.8237L19.1155 10.8302C18.9134 11.2072 18.7809 11.6507 18.751 12.1203V12.13C18.7494 12.1625 18.7494 12.2015 18.7494 12.2405C18.7494 12.4859 18.7792 12.7263 18.8339 12.9554L18.8289 12.9343C18.8885 13.2414 18.9879 13.5144 19.1254 13.7662L19.1172 13.75C19.2431 13.9742 19.3574 14.0722 19.4601 14.0441C19.6175 13.9921 19.7434 13.8832 19.813 13.7435L19.8146 13.7402C19.8743 13.6092 19.8224 13.5512 19.6589 13.5664C19.5551 13.5664 19.4408 13.4613 19.316 13.2512C19.1917 13.0416 19.1155 12.7913 19.1056 12.5249V12.5216C19.1022 12.4891 19.1006 12.4518 19.1006 12.4128C19.1006 12.1544 19.1768 11.9139 19.3093 11.7108L19.306 11.7157C19.4518 11.5256 19.6837 11.4038 19.9422 11.4038C19.9836 11.4038 20.025 11.407 20.0648 11.4135H20.0598C20.3415 11.4314 20.5734 11.615 20.6579 11.8668L20.6595 11.8717C20.7921 12.1187 20.8699 12.4111 20.8699 12.7198V12.7361C20.8699 12.8986 20.8583 13.0594 20.8351 13.2154L20.8368 13.1975C20.5651 13.3665 20.3365 13.5761 20.1542 13.8215L20.1493 13.828C19.9869 14.0392 19.7831 14.2098 19.5496 14.3333L19.5396 14.3381C19.2514 14.505 19.1 14.5954 19.0857 14.6095C18.9217 14.7655 18.8024 14.9653 18.7444 15.1879L18.7427 15.196C18.7328 15.2269 18.7262 15.261 18.7262 15.2968C18.7262 15.4235 18.8007 15.5324 18.9084 15.5844L18.9101 15.586C19.1221 15.7062 19.306 15.846 19.4651 16.0084C19.591 16.1335 19.7086 16.2684 19.813 16.4114L19.8196 16.4211C19.924 16.5511 20.0631 16.6486 20.2238 16.7022L20.2305 16.7039C20.464 16.79 20.7341 16.842 21.0157 16.8452H21.0174C21.0671 16.8468 21.1267 16.8468 21.1847 16.8468C21.9335 16.8468 22.6542 16.7266 23.3268 16.5056L23.2788 16.5186C23.3075 16.5035 23.4776 16.4525 23.789 16.3659C24.1005 16.2792 24.3556 16.2029 24.5544 16.1368C24.8095 16.0491 25.0249 15.9532 25.232 15.8427L25.2104 15.8541C25.4026 15.7696 25.56 15.6396 25.6743 15.4771L25.676 15.4739C25.8096 15.2713 25.9576 15.2134 26.12 15.3C26.1912 15.3406 26.2426 15.4056 26.2641 15.482C26.2674 15.4999 26.2707 15.5242 26.2707 15.5454C26.2707 15.6201 26.2426 15.69 26.1978 15.7436C26.1067 15.8508 25.9808 15.9256 25.835 15.9499H25.8317C25.3148 16.114 24.899 16.2733 24.4948 16.4504L24.5776 16.4179C24.0375 16.6421 23.7007 16.7835 23.567 16.842C23.1214 17.0516 22.6012 17.2254 22.0578 17.3343L22.013 17.3424C21.7861 17.3716 21.5243 17.3895 21.2576 17.3895C20.9031 17.3895 20.5552 17.3586 20.2172 17.3018L20.2536 17.3067C20.1056 17.2785 20.0388 17.2926 20.0532 17.3489C20.1576 17.5097 20.2818 17.6462 20.4276 17.76L20.4309 17.7632C20.7854 18.0638 21.251 18.2474 21.7596 18.2474C21.8159 18.2474 21.8706 18.2458 21.9252 18.2409H21.9186C22.2102 18.2198 22.4802 18.1662 22.737 18.0817L22.7138 18.0882C23.0303 17.9907 23.2937 17.8867 23.5471 17.7681L23.509 17.7843C23.7608 17.6684 24.0088 17.5417 24.2529 17.4041C24.497 17.2666 24.7179 17.1431 24.9156 17.0337C25.063 16.9508 25.2419 16.8631 25.4258 16.7867L25.459 16.7737C25.5385 16.7331 25.6329 16.7087 25.734 16.7087C25.7737 16.7087 25.8135 16.712 25.8516 16.7201H25.8483C25.951 16.7591 26.0239 16.8501 26.0371 16.9573C26.0355 16.9931 26.0272 17.0272 26.0139 17.0581C25.9924 17.1019 25.9626 17.1377 25.9261 17.1653C25.8864 17.1978 25.8433 17.2303 25.7986 17.2595L25.7936 17.2628C25.7494 17.2909 25.6865 17.3272 25.6047 17.3716C25.523 17.4161 25.4562 17.4485 25.4043 17.4691C25.3524 17.4897 25.2784 17.526 25.1823 17.578C25.1243 17.6121 25.0547 17.6446 24.9818 17.6722L24.9719 17.6755C24.402 17.9761 23.9116 18.2929 23.4544 18.6487L23.4742 18.6325C23.0435 18.9688 22.5614 19.2808 22.0495 19.544L21.9998 19.5684C21.8374 19.661 21.6436 19.7162 21.4365 19.7162C21.246 19.7162 21.0654 19.6707 20.908 19.5879L20.9147 19.5911C20.3514 19.1557 19.8842 18.6292 19.5313 18.0281L19.5164 18.0021C19.1917 17.5525 19.0073 17.3933 18.9631 17.5244C18.9482 17.5796 18.9399 17.643 18.9399 17.7096V17.7437C18.9217 18.1954 18.8007 18.6146 18.6003 18.9883L18.6086 18.9721C18.3866 19.4292 18.1684 19.8316 17.9542 20.1793C17.7355 20.5432 17.5731 20.9673 17.4903 21.419L17.487 21.4418C17.4621 21.5555 17.4472 21.6855 17.4472 21.8187C17.4472 22.1875 17.5566 22.532 17.7471 22.8212L17.7421 22.8131C17.4019 22.8997 16.9397 23.5529 16.3555 24.7726C15.8833 25.6597 15.5155 26.6866 15.3068 27.7703L15.2952 27.8402C15.2665 28.1002 15.2554 28.6006 15.2621 29.3415C15.2736 29.4455 15.2819 29.5674 15.2819 29.6909C15.2819 30.0239 15.2306 30.3456 15.1345 30.6495L15.1411 30.6267C15.0229 30.9734 14.8087 30.995 14.4983 30.6917C14.0046 30.1604 13.7031 29.4504 13.7031 28.6705C13.7031 28.6624 13.7031 28.6526 13.7031 28.6445C13.6965 28.5535 13.6915 28.4495 13.6915 28.3423C13.6915 28.0189 13.728 27.7037 13.7975 27.3999L13.7926 27.4291C13.8522 27.154 13.8445 27.024 13.7694 27.0392C13.7296 27.0652 13.6981 27.1026 13.6816 27.1464V27.148C13.4645 27.6176 13.337 28.1668 13.337 28.7436C13.337 29.4878 13.5474 30.1832 13.9119 30.7778L13.9019 30.76C14.0394 31.0069 14.2266 31.21 14.4503 31.366L14.4552 31.3693C14.7512 31.6011 14.928 31.7462 14.9854 31.8047C15.6911 32.4936 16.4449 33.1387 17.2368 33.7333L17.2915 33.774C18.534 34.7532 19.2221 35.3083 19.3557 35.4394C19.5827 35.6474 19.7301 35.9382 19.7434 36.2632V36.2664C19.745 36.2859 19.745 36.3103 19.745 36.3346C19.745 37.0658 19.1586 37.6621 18.4214 37.6962H18.418C18.6384 38.0716 18.8504 38.3884 19.0807 38.6906L19.0608 38.6646C19.3209 38.9993 19.533 39.3876 19.6738 39.8068L19.6821 39.8345C19.7831 40.239 19.8395 40.7021 19.8395 41.1798C19.8395 41.2464 19.8378 41.313 19.8362 41.378V41.3683C20.5165 41.0216 20.5684 40.3544 19.9919 39.3665C19.9223 39.2333 19.8444 39.1195 19.7566 39.0156L19.76 39.0188C19.6639 38.9029 19.5937 38.8163 19.5496 38.7588C19.5054 38.7014 19.491 38.6581 19.5065 38.6289C19.5794 38.5362 19.6771 38.4648 19.7914 38.4241L19.7964 38.4225C19.8478 38.3981 19.9091 38.3851 19.9737 38.3851C20.0747 38.3851 20.1692 38.4193 20.242 38.4778C20.9224 39.2317 22.15 39.4916 23.9249 39.2577H23.9348C25.5252 39.2577 26.94 38.52 27.8429 37.3761L27.8512 37.3648C28.1914 36.8134 28.4426 36.5968 28.605 36.7148C28.7817 36.8015 28.8557 37.1785 28.827 37.8457C28.7243 38.5931 28.5454 39.269 28.2952 39.9092L28.3167 39.8475C28.2256 40.0327 28.1726 40.252 28.1726 40.4811C28.1726 40.5445 28.1759 40.6079 28.1842 40.6712V40.6631C28.2284 40.8732 28.4051 40.9854 28.7143 40.9994C28.7585 40.7243 28.8657 40.1659 29.0357 39.3243C29.1633 38.7767 29.2693 38.1073 29.3306 37.4265L29.3356 37.3648C29.3373 37.3193 29.3373 37.2657 29.3373 37.212C29.3373 36.7002 29.2842 36.2014 29.1832 35.7188L29.1915 35.766C29.0838 35.1794 29.0241 34.5035 29.0241 33.8146C29.0241 33.7577 29.0241 33.7025 29.0258 33.6472V33.6554C29.0258 33.6342 29.0241 33.6099 29.0241 33.5839C29.0241 33.0298 29.2163 32.5196 29.5394 32.115L29.5361 32.1199C29.7895 31.8746 30.1374 31.7218 30.5218 31.7218C30.5731 31.7218 30.6245 31.7251 30.6742 31.73H30.6676C30.6676 31.7235 30.6676 31.717 30.6676 31.7105C30.6676 31.2035 30.979 30.7697 31.4263 30.5812L31.4346 30.578C31.7809 30.4139 32.1868 30.3164 32.6175 30.3164C32.7682 30.3164 32.9157 30.3278 33.0598 30.3505L33.0433 30.3489C33.5552 30.3911 34.019 30.5682 34.4051 30.8428L34.3968 30.838L34.4001 30.8493ZM20.4674 12.8531C20.4823 12.7832 20.4922 12.702 20.4922 12.6191C20.4922 12.4696 20.4624 12.3266 20.4094 12.195L20.4127 12.2032C20.331 12.0147 20.2459 11.9058 20.1576 11.8766C20.0239 11.8484 19.9571 11.8993 19.9571 12.0293C19.9737 12.0878 20.0134 12.1333 20.0664 12.1593H20.0681C20.2161 12.1593 20.268 12.2682 20.2238 12.4859C20.1796 12.7762 20.2387 12.9213 20.4011 12.9213C20.4044 12.9213 20.4077 12.9229 20.411 12.9229C20.4425 12.9229 20.469 12.897 20.469 12.8661C20.469 12.8628 20.469 12.8563 20.4674 12.8531ZM29.763 17.1425C29.7431 17.0418 29.6918 16.9557 29.6189 16.8923C29.5377 16.8355 29.44 16.7981 29.3339 16.7835H29.3306C29.2097 16.764 29.1003 16.7217 29.0059 16.6616L29.0092 16.6632C28.9281 16.6145 28.8585 16.556 28.7988 16.4894L28.7972 16.4878C28.7309 16.4152 28.679 16.3572 28.6414 16.3139L28.5189 16.1725C28.4923 16.14 28.4642 16.1108 28.431 16.0864H28.4294C28.4139 16.0799 28.3841 16.0908 28.3399 16.1189C28.1334 16.3507 28.1853 16.6659 28.4957 17.0646C28.6978 17.3781 28.996 17.6186 29.3489 17.7453L29.3604 17.7486C29.3704 17.7502 29.3836 17.7502 29.3952 17.7502C29.5211 17.7502 29.6288 17.6787 29.6818 17.5764L29.6835 17.5747C29.7398 17.4854 29.7746 17.3765 29.7746 17.2595C29.7746 17.2157 29.7696 17.175 29.7614 17.1344V17.1377L29.763 17.1425ZM25.8151 12.5086C25.8151 12.507 25.8151 12.5037 25.8151 12.5021C25.8151 12.2194 25.676 11.9692 25.4623 11.8132L25.4606 11.8116C25.3723 11.7531 25.3054 11.7314 25.2602 11.7466C25.2502 11.745 25.2403 11.745 25.2287 11.745C25.174 11.745 25.1226 11.7612 25.0812 11.7905C25.068 11.8002 25.0597 11.8165 25.0597 11.8343C25.0597 11.8522 25.068 11.8685 25.0812 11.8782C25.111 11.9075 25.1492 11.9302 25.1906 11.9432C25.3971 12.0017 25.5313 12.2265 25.5898 12.6175C25.5898 12.6608 25.6489 12.6467 25.7671 12.5752C25.798 12.5438 25.8135 12.5222 25.8135 12.5103L25.8151 12.5086ZM27.008 7.43926C27.0013 7.39539 26.9814 7.35802 26.9516 7.3304C26.8953 7.2719 26.8323 7.22153 26.7628 7.18254L26.7595 7.18091C26.6634 7.12242 26.5932 7.07909 26.5491 7.05093C26.4198 6.88845 26.2359 6.77147 26.0255 6.72597L26.0189 6.72435H26.0173C25.9046 6.72435 25.8069 6.79096 25.7638 6.88683V6.88845C25.7422 6.94045 25.729 7.00219 25.729 7.06555C25.729 7.10292 25.734 7.1403 25.7422 7.17604V7.17279C25.7522 7.20854 25.7572 7.24916 25.7572 7.28978C25.7572 7.34502 25.7472 7.39701 25.7306 7.44738L25.7323 7.44413C25.7008 7.53187 25.6561 7.60824 25.5998 7.67323V7.6716C25.5501 7.72847 25.507 7.79346 25.4705 7.86171L25.4672 7.8682C25.4518 7.90503 25.4739 7.96677 25.5335 8.05343C25.5567 8.07455 25.5882 8.08755 25.623 8.08755C25.6578 8.08755 25.6876 8.07455 25.7124 8.05343C25.7721 8.0101 25.8532 7.94457 25.956 7.85683C26.0504 7.77559 26.1614 7.70897 26.2807 7.66348L26.289 7.66023C26.3337 7.64398 26.385 7.63586 26.4381 7.63586C26.4563 7.63586 26.4745 7.63748 26.4911 7.63911H26.4894H26.4994C26.6137 7.63911 26.7247 7.62286 26.829 7.59361L26.8207 7.59524C26.9086 7.57574 26.9798 7.51887 27.0162 7.44251L27.008 7.43926ZM39.5424 36.619C39.8058 36.7685 40.0328 36.9439 40.2283 37.1503L40.23 37.1519C40.3675 37.2884 40.4636 37.4671 40.495 37.667V37.6719C40.4983 37.7043 40.5 37.7433 40.5 37.7823C40.5 37.9188 40.4785 38.0488 40.437 38.1707L40.4404 38.1625C40.3675 38.3543 40.2498 38.5151 40.0991 38.6402L40.0974 38.6419C39.94 38.7848 39.7694 38.9229 39.5938 39.0546L39.5772 39.0659C39.3867 39.2008 39.1713 39.3356 38.9444 39.4543L38.9146 39.4689C38.6406 39.614 38.4076 39.7337 38.2154 39.828C38.0233 39.9222 37.7863 40.0343 37.5047 40.1643C37.2231 40.2943 37.0232 40.3885 36.905 40.447C36.1827 40.8207 35.5631 41.2253 34.9865 41.6819L35.0081 41.6656C34.3885 42.1319 33.8434 42.5869 33.3216 43.0678L33.3332 43.0581C32.9339 43.3245 32.4419 43.4838 31.9117 43.4838C31.8819 43.4838 31.8504 43.4838 31.8206 43.4821H31.8256C31.7129 43.4935 31.5821 43.5 31.4495 43.5C30.8713 43.5 30.3213 43.3765 29.826 43.1572L29.8508 43.1669C29.5907 43.0418 29.372 42.8696 29.1981 42.66L29.1948 42.6567C29.0573 42.4959 28.9363 42.3123 28.8369 42.1173L28.8287 42.101C28.7193 41.9109 28.5503 41.7631 28.3482 41.6802L28.3416 41.6786C28.0417 41.5486 27.6922 41.4723 27.3244 41.4723C27.3161 41.4723 27.3062 41.4723 27.2979 41.4723C26.6462 41.4571 25.6865 41.4495 24.4152 41.4495C24.1347 41.4495 23.7134 41.4603 23.1512 41.482C22.589 41.5037 22.1599 41.5221 21.8639 41.5372C21.2278 41.5437 20.6231 41.6624 20.0648 41.8752L20.0996 41.8638C19.6423 42.0231 19.2464 42.244 18.8985 42.5202L18.9068 42.5138C18.6284 42.7526 18.3104 42.9589 17.9674 43.1231L17.9426 43.1344C17.6228 43.2937 17.2468 43.3879 16.8475 43.3879C16.8127 43.3879 16.7796 43.3879 16.7448 43.3863H16.7498C15.8336 43.2514 15.0086 43.0158 14.2349 42.6892L14.3012 42.7136C13.4115 42.3691 12.3281 42.0474 11.2131 41.8053L11.0624 41.7777C10.7818 41.7192 10.4046 41.6504 9.93084 41.5714C9.45702 41.4923 9.08703 41.4268 8.82086 41.3748C8.55468 41.3228 8.26255 41.254 7.94447 41.1684C7.66283 41.0985 7.41433 40.9913 7.19234 40.8467L7.20228 40.8516C7.03992 40.746 6.91236 40.603 6.82786 40.434L6.82455 40.4275C6.77816 40.2683 6.75 40.0863 6.75 39.8962C6.75 39.5615 6.83449 39.2463 6.98359 38.9701L6.97862 38.9814C7.13435 38.6451 7.2702 38.2503 7.36794 37.8392L7.37623 37.7953C7.37788 37.7645 7.37788 37.7287 7.37788 37.693C7.37788 37.42 7.34475 37.1552 7.28345 36.9017L7.28842 36.9244C7.21442 36.5778 7.14043 36.2697 7.06643 35.9999C7.00347 35.7822 6.96703 35.532 6.96703 35.272C6.96703 35.2493 6.96703 35.2249 6.96868 35.2022V35.2054C6.96868 35.1957 6.96868 35.1827 6.96868 35.1713C6.96868 34.9552 7.05814 34.7602 7.20228 34.6189C7.52864 34.4255 7.92293 34.3118 8.34539 34.3118C8.38846 34.3118 8.43154 34.3134 8.47295 34.315H8.46633H8.53094C8.98653 34.315 9.42058 34.2192 9.81156 34.0469L9.79167 34.0551C10.1578 33.8568 10.4659 33.6034 10.7144 33.2995L10.7194 33.293C10.8884 33.0136 10.9895 32.6772 10.9895 32.3181C10.9895 32.271 10.9878 32.2239 10.9845 32.1768V32.1833C11.0889 32.4043 11.1502 32.6642 11.1502 32.9372C11.1502 33.5839 10.8105 34.1509 10.2953 34.4791L10.2887 34.484C9.88445 34.7098 9.4007 34.8431 8.88381 34.8431C8.72974 34.8431 8.57898 34.8317 8.43154 34.809L8.4481 34.8106C7.94557 34.7673 7.62749 34.8398 7.49385 35.0283C7.30168 35.246 7.33868 35.6593 7.60485 36.268C7.66449 36.424 7.72413 36.5524 7.79206 36.6759L7.78377 36.658C7.87213 36.8313 7.93508 36.9613 7.97263 37.0479C8.01405 37.1535 8.04884 37.2787 8.07038 37.407L8.07204 37.4184C8.09026 37.5142 8.10186 37.6247 8.10186 37.7385C8.10186 37.7937 8.09854 37.849 8.09357 37.9042V37.8977C8.03724 38.2974 7.90305 38.6565 7.70922 38.9766L7.71585 38.9636C7.52202 39.256 7.40605 39.6151 7.40605 40.0002V40.0034C7.45023 40.2504 7.72358 40.4389 8.22611 40.5689C8.5221 40.6555 9.14722 40.7898 10.1015 40.9718C11.0557 41.1538 11.7918 41.3022 12.3098 41.417C12.6633 41.5037 13.2105 41.6629 13.9516 41.8947C14.6927 42.1265 15.3029 42.2933 15.7823 42.3951C16.0457 42.4618 16.3488 42.4991 16.6603 42.4991C16.7845 42.4991 16.9088 42.4926 17.0297 42.4813L17.0148 42.4829C17.5715 42.439 18.0668 42.2148 18.4479 41.872L18.4462 41.8736C18.7328 41.6087 18.9217 41.2464 18.9565 40.8402V40.8337C18.9581 40.7931 18.9581 40.7443 18.9581 40.6956C18.9581 40.291 18.8968 39.9011 18.7809 39.5322L18.7891 39.5599C18.6732 39.126 18.529 38.7491 18.3518 38.3933L18.3683 38.429C18.2203 38.1463 18.0723 37.8815 17.9243 37.6345C16.6918 35.6344 15.4542 33.9186 14.1073 32.2938L14.1753 32.3783C13.1702 31.3048 12.3341 31.0145 11.667 31.5074C11.5047 31.6384 11.3937 31.5296 11.334 31.1808C11.3009 31.0004 11.2827 30.7925 11.2827 30.5796C11.2827 30.5 11.286 30.422 11.291 30.3424V30.3538C11.2993 29.9459 11.3804 29.5576 11.5196 29.2002L11.5113 29.2229C11.672 28.8281 11.8509 28.4918 12.0564 28.1749L12.0415 28.1993C12.2171 27.9393 12.3794 27.6404 12.5153 27.3268L12.5302 27.2894C12.6484 26.9839 12.8444 26.4618 13.1183 25.7231C13.3922 24.9844 13.6103 24.4184 13.7727 24.0252C13.998 23.4955 14.22 23.0584 14.4668 22.6392L14.4354 22.6994C14.6822 22.2525 14.9688 21.8691 15.3035 21.5279L15.3018 21.5295C16.3903 20.3109 17.3114 18.9119 18.0105 17.3928L18.0536 17.2872C17.8769 15.6624 17.7587 13.4142 17.699 10.5426C17.6924 10.4143 17.6874 10.2648 17.6874 10.1153C17.6874 9.08355 17.8862 8.0973 18.2491 7.19229L18.2292 7.24591C18.7312 6.23691 19.5496 5.44238 20.5568 4.97444L20.5866 4.96144C21.1996 4.66898 21.9186 4.5 22.679 4.5C22.7552 4.5 22.8298 4.50162 22.906 4.50487H22.8961C22.9375 4.50487 22.9872 4.50325 23.0369 4.50325C23.8238 4.50325 24.5859 4.61049 25.3065 4.81196L25.2486 4.79734C26.0023 4.98744 26.6617 5.2994 27.2399 5.7121L27.2233 5.70072C28.1163 6.38314 28.8104 7.27515 29.2379 8.30202L29.2528 8.34427C29.6702 9.19404 29.9138 10.1933 29.9138 11.2478C29.9138 11.355 29.9105 11.4623 29.9055 11.5679V11.5532C29.9022 11.6767 29.8989 11.8213 29.8989 11.9676C29.8989 13.4819 30.1441 14.9409 30.5963 16.309L30.5682 16.2099C31.1961 18.0671 32.2083 19.6561 33.5187 20.9543L33.5171 20.9527C34.4216 21.9617 35.1655 23.1364 35.6956 24.4184L35.7254 24.5013C36.2837 25.6955 36.7426 27.0896 37.0309 28.5421L37.0508 28.6607C37.1303 29.0718 37.1767 29.5446 37.1767 30.0288C37.1767 30.1945 37.1717 30.3586 37.1601 30.5211L37.1618 30.4984C37.1386 30.9387 37.0442 31.3498 36.8868 31.7316L36.8967 31.7056C36.7631 31.9959 36.6151 32.1551 36.4527 32.1833C36.234 32.2645 36.0551 32.4091 35.9342 32.5927L35.9309 32.5976C35.731 32.8446 35.531 33.1018 35.3311 33.3694C35.0893 33.67 34.7894 33.9153 34.4481 34.0908L34.4332 34.0973C34.077 34.2907 33.6529 34.4044 33.2023 34.4044C33.1592 34.4044 33.1162 34.4028 33.0747 34.4011H33.0814C32.8279 34.3898 32.5893 34.3508 32.3607 34.2874L32.3822 34.2923C32.1851 34.237 32.0161 34.1347 31.8836 33.9982C31.7809 33.8942 31.6831 33.7853 31.5903 33.67L31.5837 33.6619C31.4926 33.5335 31.4081 33.3873 31.3352 33.2345L31.3269 33.2167C31.2231 33.0065 31.1563 32.8652 31.1265 32.7926C30.8018 32.2564 30.4986 32.0398 30.217 32.1427C29.9353 32.2456 29.7282 32.6009 29.5957 33.2085C29.5526 33.436 29.5278 33.696 29.5278 33.9624C29.5278 34.4483 29.609 34.9146 29.7597 35.35L29.7498 35.3191C29.8989 35.9723 29.9834 36.723 29.9834 37.4931C29.9834 38.2259 29.9072 38.9392 29.7597 39.6297L29.7713 39.5615C29.7199 39.7565 29.6918 39.9823 29.6918 40.213C29.6918 40.785 29.8707 41.3179 30.1755 41.7566L30.1689 41.7468C30.5052 42.1888 31.037 42.4699 31.6351 42.4699C31.6881 42.4699 31.7428 42.4683 31.7941 42.4634H31.7875C32.5164 42.4114 33.1675 42.127 33.6778 41.6884L33.6745 41.6916C34.2642 41.1863 34.9137 40.7102 35.5979 40.2829L35.6625 40.2455C36.3069 39.9124 37.0673 39.5989 37.8559 39.3503L37.9586 39.3226C38.6097 39.1309 39.1763 38.8596 39.6882 38.5151L39.6667 38.5281C40.0201 38.2595 40.1571 38.0093 40.0775 37.7775C39.9665 37.511 39.7727 37.2982 39.5292 37.16L39.5226 37.1568C39.1945 36.9586 38.8168 36.7847 38.4175 36.6564L38.3794 36.645C37.8742 36.4679 37.4782 36.0926 37.2844 35.6165L37.2794 35.6051C37.069 35.1729 36.9448 34.6644 36.9448 34.1298C36.9448 34.0941 36.9448 34.0583 36.9464 34.0226V34.0274C36.9431 33.9933 36.9414 33.9543 36.9414 33.9137C36.9414 33.5595 37.0723 33.2345 37.291 32.9843L37.2893 32.9859C37.2993 33.4279 37.3639 33.8503 37.4749 34.2533L37.4666 34.2159C37.5561 34.5555 37.6654 34.848 37.8013 35.1274L37.788 35.0982C37.9139 35.3354 38.0647 35.5401 38.2436 35.7188C38.3844 35.87 38.5368 36.0048 38.7008 36.1267L38.7091 36.1332C38.8273 36.2133 38.9863 36.3076 39.1862 36.4159C39.3862 36.5242 39.5065 36.5919 39.5474 36.619H39.5424Z" fill="#F0F2F4" fill-opacity="0.8"/>
</svg>
