<svg width="48" height="48" viewBox="0 0 48 48" fill="none" xmlns="http://www.w3.org/2000/svg">
<path d="M23.9598 16.3001L10.8343 27.1453V38.8577C10.8343 39.1607 10.9543 39.4512 11.1678 39.6654C11.3813 39.8797 11.6708 40 11.9728 40L19.9491 39.9801C20.25 39.9787 20.5382 39.8577 20.7506 39.6436C20.9629 39.4295 21.0821 39.1398 21.0821 38.8378V31.995C21.0821 31.6921 21.202 31.4015 21.4155 31.1873C21.629 30.9731 21.9186 30.8527 22.2205 30.8527H26.7761C27.078 30.8527 27.3676 30.9731 27.5811 31.1873C27.7946 31.4015 27.9145 31.6921 27.9145 31.995V38.827C27.914 38.9773 27.9431 39.1262 28.0001 39.2652C28.0571 39.4042 28.1409 39.5306 28.2467 39.637C28.3524 39.7435 28.4781 39.8279 28.6165 39.8856C28.7548 39.9432 28.9032 39.9728 29.053 39.9728L37.0275 39.9946C37.3294 39.9946 37.619 39.8742 37.8325 39.66C38.046 39.4458 38.1659 39.1552 38.1659 38.8523V27.1381L25.0495 16.3001C24.8952 16.1751 24.7029 16.107 24.5046 16.107C24.3064 16.107 24.1141 16.1751 23.9598 16.3001ZM44.6916 23.6714L38.7378 18.7493V8.85625C38.7378 8.62916 38.6479 8.41137 38.4879 8.25079C38.3278 8.09021 38.1108 8 37.8844 8H33.8972C33.6709 8 33.4538 8.09021 33.2938 8.25079C33.1337 8.41137 33.0438 8.62916 33.0438 8.85625V14.0427L26.6714 8.78203C26.0598 8.27699 25.2922 8.00085 24.5001 8.00085C23.708 8.00085 22.9404 8.27699 22.3288 8.78203L4.3104 23.6714C4.22377 23.7431 4.15209 23.8313 4.09947 23.9308C4.04686 24.0303 4.01434 24.1393 4.00378 24.2515C3.99322 24.3637 4.00483 24.4768 4.03794 24.5845C4.07105 24.6921 4.12501 24.7922 4.19673 24.8789L6.01174 27.091C6.08306 27.1781 6.17081 27.2501 6.26994 27.3031C6.36908 27.3561 6.47766 27.3889 6.58946 27.3996C6.70126 27.4104 6.81408 27.3989 6.92144 27.3658C7.02881 27.3328 7.12861 27.2787 7.21513 27.2069L23.9598 13.3692C24.1135 13.2462 24.3043 13.1791 24.501 13.1791C24.6977 13.1791 24.8885 13.2462 25.0423 13.3692L41.7869 27.2069C41.8733 27.2788 41.973 27.333 42.0803 27.3662C42.1876 27.3994 42.3004 27.4111 42.4122 27.4005C42.524 27.3899 42.6326 27.3573 42.7318 27.3045C42.831 27.2517 42.9188 27.1798 42.9903 27.0928L44.8053 24.8789C44.8769 24.7917 44.9306 24.6911 44.9632 24.583C44.9959 24.4749 45.007 24.3614 44.9957 24.249C44.9845 24.1366 44.9512 24.0275 44.8978 23.9281C44.8443 23.8287 44.7718 23.7408 44.6844 23.6696L44.6916 23.6714Z" fill="#F0F2F4" fill-opacity="0.8"/>
</svg>
