<svg width="48" height="48" viewBox="0 0 48 48" fill="none" xmlns="http://www.w3.org/2000/svg">
<path d="M24.0001 4C22.6348 4 21.1788 4.84553 20.6166 6.32364C20.6129 6.33308 20.6093 6.34257 20.6058 6.35207L16.8563 16.7338H7.60849C5.99825 16.7338 4.65222 17.8262 4.18943 19.1463C3.73957 20.4294 4.08662 22.0769 5.27699 23.0759L11.8663 28.9987C11.8917 29.0219 11.9178 29.0444 11.9445 29.0662C11.927 29.1153 11.9116 29.165 11.8983 29.2154L9.49929 39.3769L9.49219 39.4089C9.05224 40.9125 9.69887 42.4879 10.793 43.2994C11.9342 44.1459 13.703 44.2989 15.0544 43.3491L14.9833 43.3989L23.929 37.7248C23.9531 37.7088 23.9768 37.6922 24.0001 37.675C24.0234 37.6921 24.0471 37.7088 24.0712 37.7248L33.0169 43.3989L32.9458 43.3491C34.2972 44.2989 36.0659 44.1459 37.2071 43.2994C38.3013 42.4879 38.9479 40.9125 38.508 39.4089L38.5007 39.3769L36.1016 29.2154C36.0884 29.165 36.073 29.1153 36.0554 29.0662C36.0821 29.0444 36.1082 29.0219 36.1337 28.9987L42.723 23.0759C43.9134 22.0769 44.2604 20.4294 43.8106 19.1463C43.3479 17.8262 42.0019 16.7338 40.3917 16.7338H31.1439L27.3943 6.35207C27.3908 6.34255 27.3872 6.33308 27.3835 6.32363C26.8213 4.84552 25.3654 4 24.0001 4Z" fill="#F0F2F4" fill-opacity="0.8"/>
</svg>
