<svg width="48" height="48" viewBox="0 0 48 48" fill="none" xmlns="http://www.w3.org/2000/svg">
<path d="M31.1288 26.8949C29.541 26.8949 28.2538 28.6796 28.2538 30.8735C28.2538 33.0717 29.541 34.8564 31.1288 34.8564C32.7167 34.8564 34.0038 33.0717 34.0038 30.8735C34.0016 28.6796 32.7167 26.8949 31.1288 26.8949ZM41.1383 16.5383C41.4678 15.7311 41.4811 11.1443 39.7339 6.75C39.7339 6.75 35.7288 7.1901 29.6692 11.35C28.3976 10.9962 26.2458 10.8237 24.0984 10.8237C21.9465 10.8237 19.7969 10.9962 18.5253 11.35C12.4635 7.1901 8.45837 6.75 8.45837 6.75C6.71346 11.1443 6.73115 15.7311 7.05625 16.5383C5.00394 18.7675 3.75 21.4457 3.75 25.0991C3.75 40.9912 16.9374 41.2456 20.2636 41.2456L24.0984 41.25L27.9288 41.2456C31.2593 41.2456 44.4423 40.9912 44.4423 25.0991C44.4423 21.4457 43.1906 18.7675 41.1383 16.5383ZM24.1581 39.2928H24.0342C15.6945 39.2928 9.19702 38.2998 9.19702 30.1923C9.19702 28.2484 9.8826 26.4482 11.5125 24.9532C14.2261 22.4608 18.8216 23.7788 24.0342 23.7788H24.1581C29.3707 23.7788 33.9685 22.4608 36.6842 24.9532C38.3097 26.4482 38.9953 28.2484 38.9953 30.1923C38.9953 38.2998 32.5 39.2928 24.1581 39.2928ZM17.0657 26.8949C15.4778 26.8949 14.1907 28.6796 14.1907 30.8735C14.1907 33.0717 15.4778 34.8564 17.0657 34.8564C18.6558 34.8564 19.9429 33.0717 19.9429 30.8735C19.9429 28.6796 18.6558 26.8949 17.0657 26.8949Z" fill="#F0F2F4" fill-opacity="0.8"/>
</svg>
