<svg width="19" height="19" viewBox="0 0 19 19" fill="none" xmlns="http://www.w3.org/2000/svg">
<path d="M9.50106 8.16477e-07C4.2517 -0.00217958 0 4.36298 0 9.75075C0 14.0112 2.6597 17.6329 6.36376 18.9629C6.86259 19.0916 6.78617 18.7274 6.78617 18.4789V16.7891C3.90571 17.1358 3.78896 15.1778 3.5958 14.8507C3.20523 14.1661 2.28187 13.9916 2.55781 13.6646C3.21372 13.3179 3.88236 13.7518 4.65713 14.927C5.21752 15.7796 6.31069 15.6356 6.86471 15.4939C6.9857 14.9815 7.24467 14.5236 7.60127 14.1682C4.6168 13.6188 3.37292 11.748 3.37292 9.52398C3.37292 8.44469 3.71891 7.45261 4.39817 6.6524C3.96514 5.33326 4.4385 4.20381 4.50218 4.03592C5.73545 3.92254 7.01754 4.94297 7.11731 5.02364C7.81779 4.82959 8.61803 4.72711 9.5138 4.72711C10.4138 4.72711 11.2162 4.83395 11.923 5.03018C12.1629 4.84267 13.3516 3.96615 14.4978 4.07299C14.5594 4.24088 15.0221 5.34416 14.6146 6.64586C15.3023 7.44825 15.6526 8.44905 15.6526 9.53053C15.6526 11.7589 14.4002 13.6319 11.4072 14.1726C11.6636 14.4316 11.8671 14.7404 12.006 15.0811C12.1448 15.4218 12.2162 15.7874 12.216 16.1568V18.6097C12.2329 18.8059 12.216 19 12.5344 19C16.2936 17.6983 19 14.0505 19 9.75293C19 4.36298 14.7462 8.16477e-07 9.50106 8.16477e-07Z" fill="#4A7198"/>
</svg>
