<svg width="48" height="48" viewBox="0 0 48 48" fill="none" xmlns="http://www.w3.org/2000/svg">
<path fill-rule="evenodd" clip-rule="evenodd" d="M24 4.5C24.8284 4.5 25.5 5.17157 25.5 6V8C25.5 8.82843 24.8284 9.5 24 9.5C23.1716 9.5 22.5 8.82843 22.5 8V6C22.5 5.17157 23.1716 4.5 24 4.5ZM10.1393 10.1393C10.7251 9.55355 11.6749 9.55355 12.2607 10.1393L13.6607 11.5393C14.2464 12.1251 14.2464 13.0749 13.6607 13.6607C13.0749 14.2464 12.1251 14.2464 11.5393 13.6607L10.1393 12.2607C9.55355 11.6749 9.55355 10.7251 10.1393 10.1393ZM37.8607 10.1393C38.4464 10.7251 38.4464 11.6749 37.8607 12.2607L36.4607 13.6607C35.8749 14.2464 34.9251 14.2464 34.3393 13.6607C33.7536 13.0749 33.7536 12.1251 34.3393 11.5393L35.7393 10.1393C36.3251 9.55355 37.2749 9.55355 37.8607 10.1393ZM24 15.5C22.216 15.5 20.4772 16.0613 19.03 17.1044C17.5827 18.1476 16.5003 19.6196 15.9362 21.3121C15.372 23.0045 15.3547 24.8316 15.8866 26.5344C16.4186 28.2373 17.4728 29.7296 18.9 30.8C18.9547 30.8411 19.0066 30.8858 19.0553 30.934C19.5328 31.4067 19.9509 31.9326 20.3022 32.5H27.6978C28.0491 31.9326 28.4672 31.4067 28.9447 30.934C28.9934 30.8858 29.0453 30.8411 29.1 30.8C30.5272 29.7296 31.5814 28.2373 32.1134 26.5344C32.6453 24.8316 32.628 23.0045 32.0638 21.3121C31.4997 19.6196 30.4173 18.1476 28.97 17.1044C27.5228 16.0613 25.784 15.5 24 15.5ZM29.8813 34.7803C29.9371 34.6889 29.9834 34.5911 30.0188 34.4881C30.271 33.9906 30.598 33.5331 30.9897 33.132C32.8751 31.6889 34.2684 29.697 34.9769 27.4289C35.6966 25.1251 35.6731 22.6532 34.9099 20.3634C34.1466 18.0736 32.6822 16.082 30.7242 14.6707C28.7661 13.2594 26.4136 12.5 24 12.5C21.5864 12.5 19.2339 13.2594 17.2758 14.6707C15.3178 16.082 13.8534 18.0736 13.0901 20.3634C12.3269 22.6532 12.3034 25.1251 13.0231 27.4289C13.7316 29.697 15.1249 31.6889 17.0103 33.132C17.402 33.5331 17.729 33.9906 17.9812 34.4881C18.0166 34.5911 18.0629 34.6889 18.1187 34.7803C18.1834 34.9291 18.2417 35.081 18.2932 35.2356C18.5662 36.0546 18.6426 36.9263 18.5162 37.7803C18.5054 37.8531 18.5 37.9265 18.5 38C18.5 39.4587 19.0795 40.8576 20.1109 41.8891C21.1424 42.9205 22.5413 43.5 24 43.5C25.4587 43.5 26.8576 42.9205 27.8891 41.8891C28.9205 40.8576 29.5 39.4587 29.5 38C29.5 37.9265 29.4946 37.8531 29.4838 37.7803C29.3574 36.9263 29.4338 36.0546 29.7068 35.2356C29.7583 35.081 29.8166 34.9291 29.8813 34.7803ZM26.5535 35.5H21.4465C21.597 36.354 21.6163 37.2283 21.5017 38.0923C21.5249 38.7218 21.7852 39.3207 22.2322 39.7678C22.7011 40.2366 23.337 40.5 24 40.5C24.663 40.5 25.2989 40.2366 25.7678 39.7678C26.2148 39.3207 26.4751 38.7218 26.4983 38.0923C26.3837 37.2283 26.403 36.354 26.5535 35.5ZM4.5 24C4.5 23.1716 5.17157 22.5 6 22.5H8C8.82843 22.5 9.5 23.1716 9.5 24C9.5 24.8284 8.82843 25.5 8 25.5H6C5.17157 25.5 4.5 24.8284 4.5 24ZM38.5 24C38.5 23.1716 39.1716 22.5 40 22.5H42C42.8284 22.5 43.5 23.1716 43.5 24C43.5 24.8284 42.8284 25.5 42 25.5H40C39.1716 25.5 38.5 24.8284 38.5 24Z" fill="#F0F2F4" fill-opacity="0.8"/>
</svg>
