<svg width="48" height="48" viewBox="0 0 48 48" fill="none" xmlns="http://www.w3.org/2000/svg">
<path d="M14.0123 27.1503C14.0123 27.7096 14.0695 28.1639 14.1782 28.4989C14.2984 28.8311 14.453 29.1946 14.6648 29.5892C14.7323 29.6935 14.769 29.8145 14.7706 29.9384C14.7706 30.0889 14.6791 30.2422 14.4845 30.3927L13.5229 31.0287C13.4075 31.1114 13.2702 31.1587 13.128 31.165C12.9734 31.165 12.8217 31.0911 12.6701 30.9549C12.4644 30.7353 12.2804 30.4966 12.1206 30.2422C11.9513 29.9509 11.7947 29.6525 11.6513 29.3479C10.4608 30.7419 8.96975 31.4404 7.17253 31.4404C5.89329 31.4404 4.87163 31.0741 4.12756 30.3473C3.38062 29.6204 3 28.6494 3 27.4371C3 26.1481 3.45789 25.1033 4.38512 24.314C5.31521 23.5247 6.54865 23.1328 8.11693 23.1328C8.63205 23.1328 9.16721 23.1783 9.73099 23.2521C10.2948 23.3287 10.8757 23.4508 11.4824 23.5871V22.4798C11.4824 21.3271 11.2392 20.5236 10.767 20.0551C10.2805 19.5838 9.45625 19.3567 8.28291 19.3567C7.75061 19.3567 7.20401 19.4192 6.64023 19.5554C6.08009 19.6877 5.53018 19.8594 4.99468 20.0693C4.8218 20.147 4.64399 20.2134 4.46239 20.2681C4.3837 20.2939 4.30189 20.3092 4.21913 20.3135C4.0045 20.3135 3.89861 20.1602 3.89861 19.8422V19.0983C3.89861 18.857 3.92723 18.6724 4.0045 18.5702C4.11982 18.4309 4.26699 18.3209 4.43377 18.2494C4.96321 17.9768 5.60425 17.7497 6.35119 17.568C7.09526 17.3692 7.88798 17.2812 8.72649 17.2812C10.538 17.2812 11.863 17.6901 12.7159 18.5078C13.5544 19.3255 13.9808 20.569 13.9808 22.2385V27.1503H14.0094H14.0123ZM7.82788 29.4529C8.3287 29.4529 8.84669 29.3621 9.39616 29.1804C9.94563 28.9986 10.4321 28.6636 10.8414 28.2093C11.0868 27.9304 11.264 27.5991 11.3594 27.2412C11.4509 26.8749 11.5139 26.4377 11.5139 25.9209V25.285C11.0517 25.1738 10.5835 25.0884 10.1116 25.0294C9.63709 24.9685 9.15918 24.9372 8.6807 24.9357C7.65904 24.9357 6.91496 25.1345 6.41128 25.5433C5.9076 25.9522 5.66721 26.5285 5.66721 27.2866C5.66721 27.9964 5.84751 28.5273 6.22813 28.8936C6.59444 29.2712 7.12674 29.4529 7.82788 29.4529ZM20.0564 31.0911C19.7817 31.0911 19.5985 31.0457 19.4783 30.9378C19.3553 30.847 19.2494 30.6369 19.1578 30.3473L15.5805 18.6299C15.511 18.4334 15.4649 18.2294 15.4432 18.0223C15.4432 17.7809 15.5634 17.6447 15.8066 17.6447H17.3005C17.5867 17.6447 17.787 17.6901 17.8929 17.7951C18.0159 17.886 18.1075 18.0989 18.1991 18.3857L20.7576 28.4223L23.1329 18.3857C23.2073 18.0847 23.2989 17.886 23.4219 17.7951C23.6047 17.6841 23.8175 17.6316 24.0315 17.6447H25.2506C25.5368 17.6447 25.7371 17.6901 25.8573 17.7951C25.9804 17.886 26.0863 18.0989 26.1492 18.3857L28.5531 28.5444L31.186 18.3857C31.235 18.1659 31.3405 17.9624 31.4922 17.7951C31.6696 17.6838 31.878 17.6311 32.0875 17.6447H33.5041C33.7473 17.6447 33.8847 17.7667 33.8847 18.0223C33.8847 18.0989 33.8675 18.1756 33.8561 18.2664C33.8314 18.3953 33.795 18.5217 33.7473 18.6441L30.0756 30.3615C29.9869 30.6653 29.8782 30.864 29.758 30.9549C29.5852 31.0645 29.3818 31.1172 29.177 31.1053H27.8692C27.5801 31.1053 27.3827 31.0599 27.2596 30.9549C27.1365 30.847 27.0307 30.6511 26.9706 30.3473L24.6096 20.5719L22.2629 30.3359C22.1885 30.6397 22.0969 30.8356 21.9767 30.9407C21.8536 31.0486 21.639 31.094 21.3671 31.094H20.0564V31.0911ZM39.6255 31.5C38.8352 31.501 38.0475 31.4096 37.2788 31.2274C36.5176 31.0457 35.9252 30.847 35.5274 30.6198C35.2841 30.4836 35.1181 30.3331 35.0552 30.194C34.9972 30.0603 34.967 29.9164 34.9665 29.7709V28.9986C34.9665 28.6807 35.0867 28.5273 35.3156 28.5273C35.4091 28.5275 35.5019 28.5429 35.5904 28.5728C35.6819 28.604 35.8193 28.6636 35.971 28.7261C36.4861 28.9532 37.0527 29.1349 37.6451 29.257C38.2547 29.3763 38.8471 29.4387 39.4567 29.4387C40.4182 29.4387 41.1623 29.2712 41.6803 28.939C41.9291 28.7896 42.1336 28.5774 42.2728 28.324C42.4121 28.0706 42.4812 27.7852 42.473 27.4967C42.4782 27.3019 42.4444 27.1081 42.3737 26.9263C42.3029 26.7446 42.1966 26.5785 42.0609 26.4377C41.789 26.1481 41.2711 25.8897 40.5241 25.6484L38.3148 24.967C37.2044 24.6177 36.3802 24.101 35.8794 23.4196C35.3891 22.79 35.1216 22.0177 35.1182 21.2221C35.1182 20.5861 35.2555 20.0239 35.5274 19.5384C35.8021 19.0557 36.1684 18.6299 36.6263 18.2948C37.0842 17.9484 37.5993 17.6901 38.2089 17.5084C38.8185 17.3267 39.4567 17.25 40.1263 17.25C40.464 17.25 40.8132 17.2642 41.148 17.3096C41.4971 17.3551 41.8177 17.4175 42.1382 17.48C42.4415 17.5538 42.7334 17.6276 43.0053 17.7213C43.28 17.8122 43.4918 17.903 43.6464 17.9939C43.826 18.0835 43.9826 18.2126 44.1042 18.3715C44.2022 18.5193 44.2494 18.6946 44.2388 18.8712V19.5838C44.2388 19.9018 44.1186 20.0693 43.8896 20.0693C43.6869 20.0464 43.4906 19.9847 43.3115 19.8876C42.3912 19.4829 41.3933 19.2814 40.3868 19.2971C39.5196 19.2971 38.8328 19.4334 38.3606 19.723C37.8884 20.0069 37.6451 20.4498 37.6451 21.0716C37.6451 21.4946 37.7968 21.858 38.103 22.1476C38.4064 22.4344 38.9702 22.7212 39.7772 22.9795L41.9407 23.6609C43.0368 24.0102 43.8295 24.4957 44.3017 25.1174C44.7739 25.7392 45 26.4519 45 27.2412C45 27.8942 44.8655 28.4819 44.6051 28.9986C44.3355 29.5172 43.9569 29.9723 43.4947 30.3331C43.0225 30.7107 42.4587 30.9861 41.8033 31.182C41.1165 31.3949 40.4011 31.5 39.6255 31.5Z" fill="#F0F2F4" fill-opacity="0.8"/>
</svg>
