<svg width="48" height="48" viewBox="0 0 48 48" fill="none" xmlns="http://www.w3.org/2000/svg">
<path d="M20.3505 43.3772C27.3101 43.8271 37.9974 43.1288 38.25 39.8051C38.25 39.8051 37.7642 41.0638 32.4978 42.0651C29.5896 42.5944 26.2419 42.8961 22.8233 42.8961C20.0232 42.8961 17.2709 42.6932 14.5791 42.3018L14.887 42.3382C14.887 42.3369 15.7774 43.0807 20.3505 43.3772ZM27.8655 4.5C27.8655 4.5 31.8819 8.55326 24.0577 14.7859C17.7837 19.7859 22.6274 22.6376 24.0565 25.895C20.3944 22.5583 17.7077 19.6259 19.5091 16.8938C22.1558 12.8822 29.4865 10.9381 27.8655 4.5ZM32.2376 33.0744C39.4883 29.2721 36.1355 25.6167 33.7967 26.1109C33.4759 26.172 33.1975 26.25 32.9282 26.3475L32.9669 26.3358C33.1202 26.1187 33.3315 25.9509 33.5777 25.856L33.5867 25.8534C38.2165 24.211 41.7768 30.6973 32.0919 33.2668C32.1512 33.2135 32.2002 33.1498 32.235 33.0783L32.2376 33.0744ZM19.6393 25.9665C19.6393 25.9665 12.6153 27.6505 17.1536 28.2604C18.3752 28.3618 19.7977 28.419 21.2332 28.419C23.0681 28.419 24.8811 28.3241 26.6684 28.1407L26.4442 28.159C29.3525 27.9119 32.2698 27.3839 32.2698 27.3839C31.5855 27.6856 31.0044 28.0042 30.4542 28.367L30.5019 28.3384C23.3696 30.2317 9.59103 29.3514 13.5585 27.4151C15.3071 26.501 17.3765 25.9652 19.5697 25.9652C19.5942 25.9652 19.6186 25.9652 19.6431 25.9652L19.6393 25.9665ZM35.803 37.8194C35.803 37.8194 36.897 38.7284 34.6008 39.4293C30.2338 40.7648 16.4243 41.1666 12.5908 39.4826C11.212 38.8766 13.7982 38.0366 14.61 37.861C14.985 37.7648 15.4166 37.7089 15.8599 37.7089C15.8895 37.7089 15.9179 37.7089 15.9475 37.7102H15.9437C14.409 36.6192 6.03072 39.8506 11.6875 40.7765C27.1142 43.3005 39.804 39.6386 35.803 37.8194ZM25.7973 23.1473C26.2019 23.6376 26.448 24.276 26.448 24.9704C26.448 25.9054 26.0022 26.7363 25.3141 27.2578L25.3064 27.263C25.3064 27.263 30.0393 24.7962 27.8655 21.7091C25.8347 18.8301 24.2781 17.3997 32.7079 12.4661C32.7079 12.4648 19.4782 15.7989 25.7973 23.1473ZM18.0028 30.3917C18.0028 30.3917 16.347 31.6283 18.8751 31.8936C19.982 32.0341 21.2616 32.1134 22.5604 32.1134C24.9134 32.1134 27.2057 31.8507 29.4092 31.3527L29.2004 31.3917C29.6437 31.8104 30.1733 32.1433 30.7583 32.3592L30.7905 32.3696C21.6456 35.0691 11.4569 32.5802 18.0015 30.3904L18.0028 30.3917ZM18.9293 34.6608C18.9293 34.6608 17.4526 35.5282 19.9807 35.8207C20.9072 35.9599 21.9754 36.0392 23.063 36.0392C24.8077 36.0392 26.5047 35.835 28.1322 35.4475L27.9827 35.4774C28.5845 35.848 29.2842 36.2017 30.0148 36.4943L30.1101 36.5281C22.5437 39.7999 12.989 36.337 18.9305 34.6608H18.9293Z" fill="#F0F2F4" fill-opacity="0.8"/>
</svg>
