<svg width="48" height="48" viewBox="0 0 48 48" fill="none" xmlns="http://www.w3.org/2000/svg">
<path d="M23.8636 16.1591C24.6955 16.1591 25.4932 15.8287 26.0814 15.2405C26.6696 14.6523 27 13.8545 27 13.0227C27 12.4268 26.8432 11.878 26.5452 11.4075L23.8636 6.75L21.182 11.4075C20.8841 11.878 20.7273 12.4268 20.7273 13.0227C20.7273 14.7477 22.1386 16.1591 23.8636 16.1591ZM31.0773 31.8252L29.3993 30.1473L27.7057 31.8252C25.667 33.8639 22.0916 33.8795 20.0373 31.8252L18.3593 30.1473L16.65 31.8252C15.6307 32.8445 14.2664 33.4091 12.8236 33.4091C11.6789 33.4091 10.6282 33.0484 9.75 32.4525V39.6818C9.75 40.5443 10.4557 41.25 11.3182 41.25H36.4091C37.2716 41.25 37.9773 40.5443 37.9773 39.6818V32.4525C37.0991 33.0484 36.0484 33.4091 34.9036 33.4091C33.4609 33.4091 32.0966 32.8445 31.0773 31.8252ZM33.2727 20.8636H25.4318V17.7273H22.2955V20.8636H14.4545C11.8514 20.8636 9.75 22.965 9.75 25.5682V27.9832C9.75 29.6768 11.13 31.0568 12.8236 31.0568C13.6391 31.0568 14.4232 30.7432 14.9877 30.163L18.3436 26.8227L21.6839 30.163C22.8443 31.3234 24.8673 31.3234 26.0277 30.163L29.3836 26.8227L32.7239 30.163C33.3041 30.7432 34.0725 31.0568 34.888 31.0568C36.5816 31.0568 37.9616 29.6768 37.9616 27.9832V25.5682C37.9773 22.965 35.8759 20.8636 33.2727 20.8636Z" fill="#F0F2F4" fill-opacity="0.8"/>
</svg>
