<svg width="48" height="48" viewBox="0 0 48 48" fill="none" xmlns="http://www.w3.org/2000/svg">
<path d="M11.3182 6.75H36.4091C36.825 6.75 37.2239 6.91522 37.518 7.20931C37.8121 7.5034 37.9773 7.90227 37.9773 8.31818V14.5909C37.9773 15.0068 37.8121 15.4057 37.518 15.6998C37.2239 15.9939 36.825 16.1591 36.4091 16.1591H11.3182C10.9023 16.1591 10.5034 15.9939 10.2093 15.6998C9.91522 15.4057 9.75 15.0068 9.75 14.5909V8.31818C9.75 7.90227 9.91522 7.5034 10.2093 7.20931C10.5034 6.91522 10.9023 6.75 11.3182 6.75ZM11.3182 19.2955H36.4091C36.825 19.2955 37.2239 19.4607 37.518 19.7548C37.8121 20.0489 37.9773 20.4477 37.9773 20.8636V27.1364C37.9773 27.5523 37.8121 27.9511 37.518 28.2452C37.2239 28.5393 36.825 28.7045 36.4091 28.7045H11.3182C10.9023 28.7045 10.5034 28.5393 10.2093 28.2452C9.91522 27.9511 9.75 27.5523 9.75 27.1364V20.8636C9.75 20.4477 9.91522 20.0489 10.2093 19.7548C10.5034 19.4607 10.9023 19.2955 11.3182 19.2955ZM11.3182 31.8409H36.4091C36.825 31.8409 37.2239 32.0061 37.518 32.3002C37.8121 32.5943 37.9773 32.9932 37.9773 33.4091V39.6818C37.9773 40.0977 37.8121 40.4966 37.518 40.7907C37.2239 41.0848 36.825 41.25 36.4091 41.25H11.3182C10.9023 41.25 10.5034 41.0848 10.2093 40.7907C9.91522 40.4966 9.75 40.0977 9.75 39.6818V33.4091C9.75 32.9932 9.91522 32.5943 10.2093 32.3002C10.5034 32.0061 10.9023 31.8409 11.3182 31.8409ZM19.1591 13.0227H20.7273V9.88636H19.1591V13.0227ZM19.1591 25.5682H20.7273V22.4318H19.1591V25.5682ZM19.1591 38.1136H20.7273V34.9773H19.1591V38.1136ZM12.8864 9.88636V13.0227H16.0227V9.88636H12.8864ZM12.8864 22.4318V25.5682H16.0227V22.4318H12.8864ZM12.8864 34.9773V38.1136H16.0227V34.9773H12.8864Z" fill="#F0F2F4" fill-opacity="0.8"/>
</svg>
