<svg width="48" height="48" viewBox="0 0 48 48" fill="none" xmlns="http://www.w3.org/2000/svg">
<path fill-rule="evenodd" clip-rule="evenodd" d="M20.971 19.7497C20.3187 19.9323 19.6571 20.1173 18.8913 20.3253C18.5173 20.4313 18.4321 20.4553 18.084 20.0321C17.6666 19.5337 17.3604 19.2112 16.7757 18.9179C15.0219 18.0088 13.3237 18.2728 11.737 19.3578C9.84404 20.648 8.86971 22.5539 8.89758 24.9291C8.92527 27.275 10.4564 29.2104 12.6557 29.5328C14.5487 29.7968 16.1354 29.093 17.388 27.5976C17.6385 27.2752 17.8615 26.923 18.1398 26.5126H12.767C12.1823 26.5126 12.0432 26.1315 12.2381 25.6328C12.6 24.7238 13.2681 23.1992 13.6578 22.4367C13.7414 22.2607 13.9363 21.9675 14.3538 21.9675H23.3121C23.7145 20.6244 24.3674 19.3554 25.2384 18.1546C27.2707 15.3394 29.7204 13.8733 33.0331 13.2576C35.8726 12.7297 38.545 13.0229 40.9669 14.753C43.1662 16.3365 44.5301 18.477 44.8921 21.2922C45.3653 25.2507 44.2797 28.4764 41.6907 31.2326C39.8534 33.1973 37.5985 34.4289 35.0096 34.9861C34.5158 35.0823 34.0219 35.128 33.5359 35.173C33.2823 35.1965 33.0308 35.2197 32.7826 35.25C30.2492 35.1913 27.9388 34.4289 25.99 32.6696C24.6196 31.4216 23.6758 29.8882 23.2065 28.103C22.8809 28.7957 22.4916 29.4589 22.0371 30.09C20.0327 32.8757 17.4159 34.6058 14.1033 35.075C11.375 35.4561 8.84184 34.899 6.61478 33.1396C4.55477 31.4975 3.38558 29.3276 3.07936 26.6299C2.71746 23.4337 3.60828 20.56 5.44559 18.0383C7.42215 15.3112 10.0389 13.5811 13.2403 12.9653C15.8571 12.4668 18.3624 12.7895 20.6174 14.4022C22.0927 15.4284 23.1506 16.8361 23.8466 18.5367C24.0136 18.8007 23.9022 18.9473 23.5681 19.0352C22.5926 19.2962 21.7891 19.521 20.971 19.7497ZM39.3886 23.0898C39.3942 23.1883 39.3999 23.2921 39.408 23.4034C39.2688 25.9252 38.0718 27.8019 35.8726 29.0041C34.3972 29.7957 32.866 29.8838 31.335 29.1801C29.3306 28.2417 28.2727 25.9252 28.7738 23.6379C29.3864 20.8816 31.0565 19.1515 33.6455 18.5357C36.2901 17.8906 38.8235 19.5326 39.3246 22.4357C39.3639 22.6434 39.3755 22.8509 39.3886 23.0898Z" fill="#F0F2F4" fill-opacity="0.8"/>
</svg>
