<svg width="48" height="48" viewBox="0 0 48 48" fill="none" xmlns="http://www.w3.org/2000/svg">
<path fill-rule="evenodd" clip-rule="evenodd" d="M23.3682 11.1014C23.6805 11.1916 24.0108 11.2398 24.3525 11.2398C24.6958 11.2398 25.0275 11.1911 25.3411 11.1002L36.0141 29.5858C35.775 29.8137 35.5642 30.0793 35.3913 30.3802C35.2194 30.6792 35.0959 30.9932 35.0185 31.3128H13.687C13.6096 30.9934 13.4861 30.6795 13.314 30.3802C13.1406 30.0816 12.9305 29.8177 12.6929 29.591L23.3682 11.1014ZM21.8095 10.162C21.8426 10.1963 21.8765 10.23 21.9111 10.263L11.2355 28.7531C11.1891 28.7396 11.1424 28.727 11.0955 28.7155V19.2832C11.9953 19.0597 12.8062 18.4858 13.3039 17.6201C13.801 16.7553 13.893 15.7688 13.6381 14.8798L21.8095 10.162ZM27.7405 8.71666C27.8357 8.3964 27.8868 8.057 27.8868 7.70549C27.8868 5.75097 26.307 4.17114 24.3525 4.17114C22.3979 4.17114 20.8181 5.75097 20.8181 7.70549C20.8181 8.05453 20.8685 8.39163 20.9624 8.70991L12.8053 13.4195C12.5767 13.1782 12.31 12.9651 12.0076 12.7895C10.3164 11.8173 8.14921 12.3945 7.17701 14.0857C6.20481 15.7769 6.78205 17.9441 8.47327 18.9163C8.77498 19.0898 9.09184 19.2139 9.41436 19.2912V28.7113C9.09552 28.7887 8.78218 28.9121 8.48337 29.0839C6.79215 30.0662 6.21491 32.2233 7.18711 33.9145C8.15931 35.6057 10.3164 36.183 12.0177 35.2108C12.3173 35.0368 12.5819 34.8259 12.8092 34.5873L20.9612 39.294C20.8681 39.6111 20.8181 39.9468 20.8181 40.2944C20.8181 42.2489 22.3979 43.8287 24.3525 43.8287C26.307 43.8287 27.8868 42.2388 27.8868 40.2944C27.8868 39.9055 27.8243 39.5316 27.7087 39.1819L35.8141 34.5021C36.0589 34.7768 36.3512 35.0174 36.6876 35.2108C38.3788 36.183 40.546 35.6057 41.5182 33.9145C42.5005 32.2233 41.9233 30.0662 40.2219 29.0839C39.9232 28.9122 39.6096 28.7888 39.2904 28.7113V19.2913C39.6131 19.214 39.9301 19.0899 40.232 18.9163C41.9232 17.934 42.5005 15.7769 41.5283 14.0857C40.546 12.3945 38.3889 11.8173 36.6977 12.7895C36.3931 12.9663 36.1247 13.1813 35.895 13.4248L27.7405 8.71666ZM26.7971 10.2599C26.8288 10.2295 26.86 10.1986 26.8906 10.1671L35.0651 14.8868C34.8128 15.774 34.9056 16.7576 35.4014 17.6201C35.899 18.4857 36.7096 19.0595 37.6093 19.283V28.7147C37.5637 28.7259 37.5183 28.738 37.4732 28.7509L26.7971 10.2599ZM35.0878 33.2259L26.9672 37.9144C26.3212 37.2048 25.3896 36.76 24.3525 36.76C23.3516 36.76 22.449 37.1743 21.8065 37.8409L13.6457 33.1292C13.6587 33.0843 13.6708 33.0392 13.682 32.9939H35.0224C35.0415 33.072 35.0634 33.1493 35.0878 33.2259Z" fill="#F0F2F4" fill-opacity="0.8"/>
</svg>
