<svg width="48" height="48" viewBox="0 0 48 48" fill="none" xmlns="http://www.w3.org/2000/svg">
<path d="M24.3333 6.75C15.8617 6.75 9 10.1808 9 14.4167C9 18.6525 15.8617 22.0833 24.3333 22.0833C32.805 22.0833 39.6667 18.6525 39.6667 14.4167C39.6667 10.1808 32.805 6.75 24.3333 6.75ZM9 18.25V24C9 28.2358 15.8617 31.6667 24.3333 31.6667C32.805 31.6667 39.6667 28.2358 39.6667 24V18.25C39.6667 22.4858 32.805 25.9167 24.3333 25.9167C15.8617 25.9167 9 22.4858 9 18.25ZM9 27.8333V33.5833C9 37.8192 15.8617 41.25 24.3333 41.25C32.805 41.25 39.6667 37.8192 39.6667 33.5833V27.8333C39.6667 32.0692 32.805 35.5 24.3333 35.5C15.8617 35.5 9 32.0692 9 27.8333Z" fill="#F0F2F4" fill-opacity="0.8"/>
</svg>
