<svg width="48" height="48" viewBox="0 0 48 48" fill="none" xmlns="http://www.w3.org/2000/svg">
<path d="M32.3563 39.0951C32.2283 39.1626 32.2355 39.1899 32.3635 39.1252C32.4009 39.1092 32.435 39.0863 32.4641 39.0577C32.4641 39.0347 32.4612 39.0376 32.3563 39.0951ZM32.6122 38.9599C32.5518 39.0074 32.5518 39.0102 32.6251 38.9729C32.6654 38.9527 32.6999 38.9297 32.6999 38.9225C32.6999 38.8952 32.6826 38.9024 32.6122 38.9599ZM32.7804 38.8579C32.72 38.9053 32.72 38.9082 32.7933 38.8708C32.8336 38.8507 32.8681 38.8277 32.8681 38.8205C32.8681 38.7932 32.8508 38.8004 32.7804 38.8579ZM32.9486 38.7572C32.8882 38.8047 32.8882 38.8075 32.9615 38.7702C33.0018 38.75 33.0363 38.727 33.0363 38.7198C33.0363 38.6925 33.019 38.6997 32.9486 38.7572ZM33.1815 38.6063C33.0636 38.681 33.0262 38.7313 33.1311 38.6738C33.2059 38.6307 33.3267 38.5387 33.3065 38.5358C33.2624 38.5548 33.2205 38.5784 33.1815 38.6063ZM22.8696 6.75513C22.7949 6.76232 22.5591 6.78532 22.3464 6.80257C17.4471 7.24391 12.8569 9.88763 9.95007 13.9517C8.34308 16.1823 7.29853 18.768 6.90526 21.4889C6.76725 22.4363 6.75 22.7166 6.75 24.0018C6.75 25.287 6.76725 25.5659 6.90526 26.5147C7.84257 32.9925 12.4529 38.4352 18.705 40.4521C19.8248 40.813 21.0051 41.0588 22.3464 41.2069C22.8696 41.2644 25.1281 41.2644 25.6514 41.2069C27.9673 40.951 29.9311 40.3774 31.8661 39.3898C32.1622 39.2374 32.2197 39.1971 32.1795 39.1641C31.2343 37.9152 30.2979 36.6597 29.3704 35.3976L26.6117 31.6714L23.1557 26.5564C22.0066 24.8449 20.8465 23.1409 19.6753 21.4444C19.6624 21.4415 19.648 23.7143 19.6423 26.4889C19.6322 31.3479 19.6293 31.5434 19.5675 31.6584C19.5088 31.7928 19.4037 31.9015 19.2714 31.9646C19.1636 32.0193 19.0687 32.0293 18.5598 32.0293H17.9761L17.8208 31.9316C17.7251 31.8712 17.6471 31.7863 17.5951 31.6857L17.5247 31.5334L17.5319 24.7724L17.542 18.0086L17.6469 17.8777C17.7174 17.7949 17.8021 17.7253 17.897 17.6722C18.035 17.6046 18.0897 17.5974 18.6733 17.5974C19.3619 17.5974 19.4755 17.6247 19.6552 17.8202C21.0542 19.9022 22.4415 21.992 23.817 24.0895C26.0568 27.4851 29.1174 32.1213 30.6226 34.3985L33.354 38.5358L33.492 38.4453C34.8063 37.571 35.998 36.5253 37.0356 35.3358C39.2092 32.8483 40.6188 29.7864 41.0954 26.5176C41.2334 25.5703 41.2506 25.2899 41.2506 24.0047C41.2506 22.7195 41.2334 22.4406 41.0954 21.4918C40.1581 15.0141 35.5477 9.57136 29.2957 7.55443C28.1273 7.18245 26.924 6.93053 25.7046 6.80257C25.3811 6.76951 23.1514 6.73213 22.8725 6.75944L22.8696 6.75513ZM29.9311 17.1891C30.0115 17.2295 30.083 17.2856 30.1415 17.3539C30.2 17.4223 30.2443 17.5017 30.2718 17.5873C30.2991 17.675 30.3048 19.5496 30.2991 23.7747L30.289 29.8384L29.2195 28.1996L28.147 26.5607V22.1531C28.147 19.3038 28.16 17.7023 28.1801 17.6247C28.2045 17.5351 28.2465 17.4513 28.3038 17.3782C28.3611 17.3052 28.4324 17.2443 28.5136 17.1992C28.6516 17.1287 28.7019 17.1216 29.2324 17.1216C29.7312 17.1216 29.8189 17.1287 29.9311 17.1891Z" fill="#F0F2F4" fill-opacity="0.8"/>
</svg>
