<svg width="48" height="48" viewBox="0 0 48 48" fill="none" xmlns="http://www.w3.org/2000/svg">
<path fill-rule="evenodd" clip-rule="evenodd" d="M31.2644 5.98742C30.9103 4.82425 30.7332 4.24267 30.3861 3.81165C30.0796 3.43115 29.6806 3.13672 29.2274 2.95319C28.714 2.74658 28.106 2.74658 26.8901 2.74658H21.3381C20.1238 2.74658 19.5167 2.74658 19.0037 2.95276C18.5509 3.13479 18.1522 3.42975 17.8456 3.80955C17.4985 4.23977 17.3208 4.82036 16.9657 5.98153L9.19238 31.3942C12.0646 29.9052 15.1879 28.8332 18.482 28.2585L23.4575 11.2492C23.5392 10.9698 23.7955 10.7778 24.0866 10.7778C24.377 10.7778 24.6328 10.9688 24.7152 11.2473L29.7517 28.2671C33.0306 28.8444 36.1398 29.9144 38.9997 31.3981L31.2644 5.98742ZM24.5597 34.4416C27.4915 34.4416 30.0367 33.6979 31.3119 32.6076C31.4816 33.1406 31.5731 33.7084 31.5731 34.2977C31.5731 35.2559 31.331 36.1574 30.9045 36.9447C30.0873 38.4534 28.9017 39.2053 27.8344 39.8822L27.8339 39.8825C26.4924 40.7334 25.3381 41.4657 25.3381 43.4318C25.3381 44.0848 25.4883 44.7032 25.7559 45.2536C23.964 44.5085 22.7041 42.7413 22.7041 40.6798L22.7042 40.5587V40.5587C22.706 39.2005 22.7081 37.5266 20.7893 37.5266C19.6698 37.5266 18.7623 38.434 18.7623 39.5535C16.6063 37.3977 16.7948 34.2977 16.7948 34.2977C16.7948 33.6664 16.8589 32.6782 17.145 31.8148C17.9453 33.3214 20.9613 34.4416 24.5597 34.4416Z" fill="#F0F2F4" fill-opacity="0.8"/>
</svg>
