<svg width="48" height="48" viewBox="0 0 48 48" fill="none" xmlns="http://www.w3.org/2000/svg">
<path fill-rule="evenodd" clip-rule="evenodd" d="M35 21.2237V10.5C35 10.1022 35.158 9.72065 35.4393 9.43934C35.7206 9.15804 36.1022 9 36.5 9C36.8978 9 37.2794 9.15804 37.5607 9.43934C37.842 9.72065 38 10.1022 38 10.5V37.5C38 37.8978 37.842 38.2794 37.5607 38.5607C37.2794 38.842 36.8978 39 36.5 39C36.1022 39 35.7206 38.842 35.4393 38.5607C35.158 38.2794 35 37.8978 35 37.5V26.7777L15.8529 38.627C14.1655 39.6702 12 38.407 12 36.304V11.6941C12 9.59441 14.1624 8.32792 15.8529 9.37444L35 21.2237Z" fill="#F0F2F4" fill-opacity="0.8"/>
</svg>
