<svg width="48" height="48" viewBox="0 0 48 48" fill="none" xmlns="http://www.w3.org/2000/svg">
<path d="M18.2763 12.1974C20.2026 12.1974 22.05 12.9626 23.4121 14.3247C24.7743 15.6868 25.5395 17.5342 25.5395 19.4605C25.5395 21.3868 24.7743 23.2342 23.4121 24.5964C22.05 25.9585 20.2026 26.7237 18.2763 26.7237C16.35 26.7237 14.5026 25.9585 13.1405 24.5964C11.7784 23.2342 11.0132 21.3868 11.0132 19.4605C11.0132 17.5342 11.7784 15.6868 13.1405 14.3247C14.5026 12.9626 16.35 12.1974 18.2763 12.1974ZM18.2763 30.3553C23.1245 30.3553 32.8026 32.7884 32.8026 37.6184V41.25H3.75V37.6184C3.75 32.7884 13.4282 30.3553 18.2763 30.3553ZM32.3668 12.8511C36.0347 16.8458 36.0347 22.3839 32.3668 26.0518L29.3163 22.9832C30.8416 20.8405 30.8416 18.0624 29.3163 15.9197L32.3668 12.8511ZM38.3771 6.75C45.5132 14.1039 45.4587 25.1076 38.3771 32.1711L35.4174 29.2113C40.4471 23.4371 40.4471 15.1934 35.4174 9.70974L38.3771 6.75Z" fill="#F0F2F4" fill-opacity="0.8"/>
</svg>
