<svg width="48" height="48" viewBox="0 0 48 48" fill="none" xmlns="http://www.w3.org/2000/svg">
<path d="M23.7722 20.6027C24.4337 20.6028 25.0804 20.7985 25.6309 21.1653C26.1814 21.5321 26.6111 22.0536 26.8659 22.6641C27.1206 23.2746 27.1891 23.9468 27.0626 24.5961C26.9361 25.2455 26.6204 25.8428 26.1551 26.3131C25.6898 26.7833 25.0958 27.1054 24.4479 27.2388C23.8 27.3722 23.1271 27.3109 22.5139 27.0626C21.9007 26.8144 21.3747 26.3903 21.0021 25.8437C20.6294 25.2971 20.4268 24.6525 20.4197 23.991C20.4174 23.5484 20.5022 23.1097 20.6694 22.6999C20.8366 22.2901 21.0829 21.9172 21.3942 21.6025C21.7055 21.2879 22.0757 21.0377 22.4837 20.8661C22.8918 20.6946 23.3296 20.6051 23.7722 20.6027ZM15.4717 38.3331C16.6011 39.0144 19.0572 37.9746 21.9256 35.2854C20.9669 34.196 20.0634 33.0591 19.2186 31.8792C17.7726 31.7172 16.3363 31.4779 14.9159 31.1621C14.0016 34.9986 14.3423 37.6339 15.4717 38.3331ZM16.7446 28.0427L16.2247 27.1284C16.022 27.6319 15.8484 28.1467 15.7048 28.6701C16.1888 28.7777 16.7266 28.8673 17.2824 28.957L16.7446 28.0427ZM28.4692 26.6802L29.9213 23.991L28.4692 21.3019C27.9314 20.3517 27.3577 19.5091 26.8378 18.6665C25.8697 18.6128 24.8478 18.6128 23.7722 18.6128C22.6965 18.6128 21.6746 18.6128 20.7066 18.6128C20.1867 19.4554 19.613 20.2979 19.0751 21.2481L17.623 23.991L19.0751 26.6802C19.613 27.6303 20.1867 28.4729 20.7066 29.3155C21.6746 29.3155 22.6965 29.3155 23.7722 29.3155C24.8478 29.3155 25.8697 29.3155 26.8378 29.3155C27.3577 28.4729 27.9314 27.6303 28.4692 26.6802ZM23.7722 14.6328C23.4315 15.0272 23.073 15.4396 22.7144 15.9236H24.8299C24.4714 15.4396 24.1128 15.0272 23.7722 14.6328ZM23.7722 33.3492C24.1128 32.9548 24.4714 32.5425 24.8299 32.0585H22.7144C23.073 32.5425 23.4315 32.9548 23.7722 33.3492ZM32.0547 9.64895C30.9432 8.9677 28.4692 10.0075 25.6187 12.6966C26.5774 13.7861 27.4809 14.9229 28.3258 16.1029C29.7705 16.2411 31.2067 16.4566 32.6284 16.7483C33.5427 12.9118 33.2021 10.2764 32.0547 9.57724M30.7998 19.8677L31.3197 20.782C31.5224 20.2784 31.6959 19.7637 31.8396 19.2402C31.3556 19.1327 30.8177 19.043 30.262 18.9534L30.7998 19.8677ZM33.3993 7.31836C36.0347 8.82428 36.3215 12.7863 35.1921 17.4116C39.7457 18.7562 43.0264 20.9971 43.0264 24.009C43.0264 27.0208 39.7457 29.2618 35.1921 30.6063C36.3036 35.2316 36.0167 39.1936 33.3993 40.6996C30.7819 42.2055 27.2143 40.4844 23.7722 37.2037C20.3301 40.4844 16.7625 42.2055 14.1271 40.6996C11.4918 39.1936 11.2229 35.3213 12.3344 30.6063C7.78075 29.2618 4.5 27.0208 4.5 24.009C4.5 20.9971 7.78075 18.7382 12.3344 17.3937C11.2229 12.7684 11.5097 8.80636 14.1271 7.30044C16.7446 5.79452 20.3301 7.51557 23.7722 10.7963C27.2143 7.51557 30.7819 5.79452 33.3993 7.30044M32.8794 23.991C33.502 25.3108 34.0526 26.6633 34.5287 28.0427C38.2935 26.9132 40.409 25.2998 40.409 23.991C40.409 22.6823 38.2397 21.0688 34.5287 19.9394C34.0526 21.3188 33.502 22.6713 32.8794 23.991ZM14.665 23.991C14.0423 22.6713 13.4917 21.3188 13.0156 19.9394C9.25082 21.0688 7.13536 22.6823 7.13536 23.991C7.13536 25.2998 9.3046 26.9132 13.0156 28.0427C13.4917 26.6633 14.0423 25.3108 14.665 23.991ZM30.7998 28.0427L30.262 28.957C30.8177 28.957 31.3556 28.7777 31.8396 28.6701C31.6959 28.1467 31.5224 27.6319 31.3197 27.1284L30.7998 28.0427ZM25.5649 35.2854C28.4154 37.9746 30.9432 39.0144 32.0009 38.3331C33.0587 37.6519 33.4889 35.0703 32.5746 31.1621C31.153 31.4538 29.7167 31.6692 28.272 31.8075C27.4291 33.0119 26.5256 34.1727 25.5649 35.2854ZM16.7446 19.9394L17.2824 19.0251C16.7266 19.0251 16.1888 19.2044 15.7048 19.3119C15.8484 19.8354 16.022 20.3502 16.2247 20.8537L16.7446 19.9394ZM21.9794 12.6966C19.0751 10.0075 16.6011 8.9677 15.4717 9.64895C14.3423 10.3302 14.0016 12.9118 14.9159 16.82C16.3376 16.5283 17.7739 16.3129 19.2186 16.1746C20.0789 14.969 21.0004 13.8081 21.9794 12.6966Z" fill="#F0F2F4" fill-opacity="0.8"/>
</svg>
