<svg width="48" height="48" viewBox="0 0 48 48" fill="none" xmlns="http://www.w3.org/2000/svg">
<path fill-rule="evenodd" clip-rule="evenodd" d="M7.09294 31.4796C14.6606 28.7765 20.2591 27.3481 23.75 27.3481C26.0324 27.3481 27.98 28.036 29.3719 29.3014C30.7712 30.5735 31.5121 32.3439 31.5121 34.2987C31.5121 36.2536 30.7712 38.024 29.3719 39.2961C27.98 40.5615 26.0324 41.2494 23.75 41.2494C21.8546 41.2494 19.4923 40.5515 16.7371 39.3116C13.9536 38.059 10.6494 36.1972 6.83337 33.7442C6.42618 33.4825 6.20317 33.012 6.25829 32.5311C6.31341 32.0502 6.63708 31.6424 7.09294 31.4796ZM10.4336 33.0064C13.2413 34.7275 15.6884 36.054 17.7795 36.9951C20.4341 38.1896 22.3995 38.709 23.75 38.709C25.5251 38.709 26.8235 38.1797 27.6631 37.4164C28.4955 36.6597 28.9718 35.5899 28.9718 34.2987C28.9718 33.0076 28.4955 31.9378 27.6631 31.1811C26.8235 30.4178 25.5251 29.8885 23.75 29.8885C21.089 29.8885 16.6831 30.8913 10.4336 33.0064Z" fill="#F0F2F4" fill-opacity="0.8"/>
<path fill-rule="evenodd" clip-rule="evenodd" d="M28.6195 23.3973C25.6185 23.3973 20.3982 24.6728 12.8169 27.3807C12.1563 27.6167 11.4295 27.2724 11.1935 26.6118C10.9575 25.9512 11.3018 25.2244 11.9624 24.9884C19.5301 22.2853 25.1286 20.8569 28.6195 20.8569C30.9018 20.8569 32.8494 21.5448 34.2414 22.8102C35.6407 24.0823 36.3816 25.8527 36.3816 27.8075C36.3816 29.244 35.9825 30.5888 35.1998 31.7139C35.1906 31.7272 35.1811 31.7402 35.1714 31.7531L30.4924 37.961C30.0701 38.5212 29.2737 38.633 28.7135 38.2108C28.1533 37.7886 28.0415 36.9922 28.4637 36.432L33.1272 30.2448C33.583 29.5812 33.8413 28.7577 33.8413 27.8075C33.8413 26.5164 33.3649 25.4466 32.5326 24.6899C31.693 23.9266 30.3946 23.3973 28.6195 23.3973Z" fill="#F0F2F4" fill-opacity="0.8"/>
<path fill-rule="evenodd" clip-rule="evenodd" d="M19.6511 6.9804C20.7248 6.44103 22.0224 6.25 23.7499 6.25C25.6243 6.25 28.2441 6.93407 31.1479 8.17856C34.084 9.43688 37.4175 11.3142 40.7418 13.8075C41.303 14.2284 41.4167 15.0245 40.9959 15.5857C40.575 16.1469 39.7788 16.2606 39.2176 15.8397C36.05 13.464 32.8916 11.6896 30.1472 10.5135C27.3706 9.32349 25.1214 8.79032 23.7499 8.79032C22.1665 8.79032 21.3396 8.97501 20.7915 9.25038C20.2598 9.51752 19.8471 9.93868 19.2218 10.7834C18.8044 11.3472 18.009 11.4659 17.4452 11.0485C16.8814 10.6312 16.7627 9.83574 17.18 9.27193C17.8547 8.3606 18.5611 7.528 19.6511 6.9804Z" fill="#F0F2F4" fill-opacity="0.8"/>
<path fill-rule="evenodd" clip-rule="evenodd" d="M13.1513 25.1679C13.7125 25.5888 13.8262 26.385 13.4053 26.9462L8.53636 33.4381C8.11547 33.9993 7.31933 34.113 6.75814 33.6921C6.19695 33.2712 6.08321 32.4751 6.50411 31.9139L11.3731 25.422C11.794 24.8608 12.5901 24.747 13.1513 25.1679Z" fill="#F0F2F4" fill-opacity="0.8"/>
<path fill-rule="evenodd" clip-rule="evenodd" d="M40.7421 13.8076C41.3033 14.2285 41.417 15.0246 40.9961 15.5858L36.1272 22.0777C35.7063 22.6389 34.9102 22.7527 34.349 22.3318C33.7878 21.9109 33.674 21.1147 34.0949 20.5535L38.9639 14.0616C39.3848 13.5004 40.1809 13.3867 40.7421 13.8076Z" fill="#F0F2F4" fill-opacity="0.8"/>
<path fill-rule="evenodd" clip-rule="evenodd" d="M18.9915 9.03364C19.5404 9.47044 19.6313 10.2695 19.1945 10.8184L14.4018 16.8413C13.965 17.3902 13.1659 17.4811 12.617 17.0443C12.0681 16.6075 11.9772 15.8085 12.414 15.2595L17.2067 9.23665C17.6435 8.68774 18.4425 8.59685 18.9915 9.03364Z" fill="#F0F2F4" fill-opacity="0.8"/>
<path fill-rule="evenodd" clip-rule="evenodd" d="M14.918 16.3133C14.1773 16.9194 13.6595 17.9269 13.6595 19.6921C13.6595 20.8185 13.9574 21.6158 14.4238 22.2006C14.8997 22.7972 15.6372 23.2799 16.6923 23.6125C17.3613 23.8234 17.7327 24.5368 17.5218 25.2058C17.3109 25.8748 16.5976 26.2462 15.9286 26.0353C14.533 25.5954 13.3099 24.8779 12.4379 23.7846C11.5564 22.6795 11.1191 21.2971 11.1191 19.6921C11.1191 17.3998 11.8185 15.567 13.3094 14.3472C14.7501 13.1685 16.7176 12.7415 18.8812 12.7415C20.463 12.7415 22.687 13.2284 25.1068 14.1198C27.5516 15.0203 30.288 16.3675 32.9054 18.1645L32.9181 18.1734C33.9064 18.8698 34.888 19.5757 35.8626 20.2911C36.2441 20.5711 36.4383 21.04 36.3665 21.5077C36.2948 21.9754 35.9689 22.3645 35.521 22.5172L31.7849 23.7913C31.121 24.0177 30.3992 23.663 30.1728 22.999C29.9464 22.3351 30.3011 21.6133 30.965 21.3869L32.3784 20.9049C32.0733 20.6872 31.7676 20.4704 31.4612 20.2545C29.0314 18.587 26.4875 17.3356 24.2287 16.5035C21.9432 15.6616 20.039 15.2818 18.8812 15.2818C16.9874 15.2818 15.7089 15.6663 14.918 16.3133Z" fill="#F0F2F4" fill-opacity="0.8"/>
</svg>
