<svg width="48" height="48" viewBox="0 0 48 48" fill="none" xmlns="http://www.w3.org/2000/svg">
<path fill-rule="evenodd" clip-rule="evenodd" d="M15.073 9.54634C15.073 9.54634 14.4817 5.43774 23.9561 5.43774C33.8562 5.43774 33.0911 10.3907 33.0911 10.3907V18.5764C33.0911 23.527 28.053 23.4454 28.053 23.4454H19.0871C13.7097 23.4454 13.8799 28.7365 13.8799 28.7365V33.1728H10.7218C10.7218 33.1728 5.43066 33.511 5.43066 23.9527C5.43066 14.392 11.4915 15.0801 11.4915 15.0801H24.1252V13.8031H15.0846L15.073 9.54634ZM20.5974 9.92653C20.5974 9.02738 19.8697 8.29965 18.9705 8.29965C18.0713 8.29965 17.3436 9.02738 17.3436 9.92653C17.3433 10.1403 17.3852 10.352 17.4668 10.5495C17.5485 10.747 17.6683 10.9265 17.8194 11.0776C17.9706 11.2287 18.15 11.3485 18.3476 11.4302C18.5451 11.5118 18.7568 11.5537 18.9705 11.5534C19.8697 11.5534 20.5974 10.8257 20.5974 9.92653ZM33.1077 38.4529C33.1077 38.4529 33.699 42.5614 24.2246 42.5614C14.3246 42.5614 15.0896 37.6085 15.0896 37.6085V29.4228C15.0896 24.4722 20.1277 24.5538 20.1277 24.5538H29.0936C34.471 24.5538 34.3008 19.2627 34.3008 19.2627V14.8275H37.4589C37.4589 14.8275 42.75 14.4882 42.75 24.0477C42.75 33.6072 36.688 32.9191 36.688 32.9191H24.0555V34.1961H33.0961L33.1077 38.4529ZM28.5873 39.5763C28.7848 39.658 28.9965 39.6998 29.2102 39.6995C30.1094 39.6995 30.8371 38.973 30.8371 38.0727C30.8371 37.1735 30.1094 36.4469 29.2102 36.4469C28.3111 36.4469 27.5833 37.1747 27.5833 38.0727C27.583 38.2864 27.6249 38.4981 27.7065 38.6956C27.7882 38.8931 27.908 39.0726 28.0591 39.2237C28.2103 39.3749 28.3897 39.4947 28.5873 39.5763Z" fill="#F0F2F4" fill-opacity="0.8"/>
</svg>
