<svg width="48" height="48" viewBox="0 0 48 48" fill="none" xmlns="http://www.w3.org/2000/svg">
<path d="M24.0001 4C22.6348 4 21.1788 4.84553 20.6166 6.32364C20.6129 6.33309 20.6093 6.34257 20.6058 6.35207L16.8563 16.7338H7.60849C5.99825 16.7338 4.65222 17.8262 4.18943 19.1463C3.73957 20.4294 4.08662 22.0769 5.27699 23.0759L11.8663 28.9987C11.8917 29.0219 11.9178 29.0444 11.9445 29.0662C11.927 29.1152 11.9116 29.165 11.8983 29.2154L9.49929 39.3769L9.49219 39.4089C9.05224 40.9125 9.69887 42.4879 10.793 43.2994C11.9342 44.1459 13.703 44.2989 15.0544 43.3491L14.9833 43.3989L23.929 37.7248C23.9531 37.7088 23.9768 37.6922 24.0001 37.675C24.0234 37.6922 24.0471 37.7088 24.0712 37.7248L33.0169 43.3989L32.9458 43.3491C34.2972 44.2989 36.0659 44.1459 37.2071 43.2994C38.3013 42.4879 38.9479 40.9125 38.508 39.4089L38.5007 39.3769L36.1016 29.2154C36.0884 29.165 36.073 29.1152 36.0554 29.0662C36.0821 29.0444 36.1082 29.0219 36.1337 28.9987L42.723 23.0759C43.9134 22.0769 44.2604 20.4294 43.8106 19.1463C43.3479 17.8262 42.0019 16.7338 40.3917 16.7338H31.1439L27.3943 6.35207C27.3908 6.34256 27.3872 6.33308 27.3835 6.32363C26.8213 4.84552 25.3654 4 24.0001 4ZM23.9965 7.62047C23.9977 7.62168 23.9989 7.6229 24.0001 7.62411C24.0013 7.6229 24.0025 7.62169 24.0037 7.62047C24.0021 7.6272 23.9932 7.6383 24.0001 7.6383C24.007 7.6383 23.9983 7.6272 23.9965 7.62047V7.62047ZM24.0001 7.67021L27.739 18.02C27.7436 18.0319 27.7484 18.0437 27.7532 18.0555C28.0172 18.7381 28.4846 19.3264 29.0896 19.7396C29.6935 20.1516 30.4091 20.374 31.1403 20.3721H40.2886L33.6993 26.2949L33.8095 26.206C33.2099 26.6669 32.7688 27.3066 32.5549 28.0323C32.3405 28.7581 32.3651 29.5333 32.619 30.2458L32.5622 30.0539L34.9648 40.2438C34.9745 40.2773 34.9852 40.3105 34.9968 40.3433C34.9874 40.3373 34.9779 40.3313 34.9684 40.3255L26.0899 34.6976C25.4773 34.2675 24.7489 34.0368 24.0001 34.0368C23.2513 34.0368 22.5228 34.2675 21.9103 34.6976L13.0321 40.3255C13.0225 40.3314 13.0131 40.3373 13.0036 40.3434C13.0153 40.3105 13.0259 40.2773 13.0356 40.2439L15.4382 30.054L15.3813 30.2458C15.6352 29.5334 15.6597 28.7582 15.4453 28.0323C15.2315 27.3067 14.7903 26.6669 14.1907 26.2061L14.3009 26.2949L7.71156 20.3721H16.8599C17.591 20.3741 18.3066 20.1516 18.9106 19.7396C19.5156 19.3264 19.983 18.7381 20.2469 18.0555C20.2518 18.0437 20.2565 18.0319 20.2611 18.02L24.0001 7.67021Z" fill="#F0F2F4" fill-opacity="0.8"/>
</svg>
