<svg width="48" height="48" viewBox="0 0 48 48" fill="none" xmlns="http://www.w3.org/2000/svg">
<path d="M24.2831 30.0375C22.6819 30.0375 21.1462 29.4014 20.0139 28.2692C18.8817 27.1369 18.2456 25.6012 18.2456 24C18.2456 22.3988 18.8817 20.8631 20.0139 19.7308C21.1462 18.5986 22.6819 17.9625 24.2831 17.9625C25.8843 17.9625 27.42 18.5986 28.5523 19.7308C29.6845 20.8631 30.3206 22.3988 30.3206 24C30.3206 25.6012 29.6845 27.1369 28.5523 28.2692C27.42 29.4014 25.8843 30.0375 24.2831 30.0375ZM37.0998 25.6733C37.1688 25.1213 37.2206 24.5693 37.2206 24C37.2206 23.4308 37.1688 22.8615 37.0998 22.275L40.7396 19.4633C41.0673 19.2045 41.1536 18.7388 40.9466 18.3593L37.4966 12.3908C37.2896 12.0113 36.8238 11.856 36.4443 12.0113L32.1491 13.7363C31.2521 13.0635 30.3206 12.477 29.2338 12.0458L28.5956 7.4745C28.5606 7.27133 28.4547 7.08711 28.2969 6.9545C28.139 6.82189 27.9393 6.74945 27.7331 6.75H20.8331C20.4018 6.75 20.0396 7.0605 19.9706 7.4745L19.3323 12.0458C18.2456 12.477 17.3141 13.0635 16.4171 13.7363L12.1218 12.0113C11.7423 11.856 11.2766 12.0113 11.0696 12.3908L7.6196 18.3593C7.39535 18.7388 7.49885 19.2045 7.8266 19.4633L11.4663 22.275C11.3973 22.8615 11.3456 23.4308 11.3456 24C11.3456 24.5693 11.3973 25.1213 11.4663 25.6733L7.8266 28.5368C7.49885 28.7955 7.39535 29.2613 7.6196 29.6408L11.0696 35.6092C11.2766 35.9887 11.7423 36.1268 12.1218 35.9888L16.4171 34.2465C17.3141 34.9365 18.2456 35.523 19.3323 35.9543L19.9706 40.5255C20.0396 40.9395 20.4018 41.25 20.8331 41.25H27.7331C28.1643 41.25 28.5266 40.9395 28.5956 40.5255L29.2338 35.9543C30.3206 35.5058 31.2521 34.9365 32.1491 34.2465L36.4443 35.9888C36.8238 36.1268 37.2896 35.9887 37.4966 35.6092L40.9466 29.6408C41.1536 29.2613 41.0673 28.7955 40.7396 28.5368L37.0998 25.6733Z" fill="#F0F2F4" fill-opacity="0.8"/>
</svg>
