<svg width="48" height="48" viewBox="0 0 48 48" fill="none" xmlns="http://www.w3.org/2000/svg">
<path fill-rule="evenodd" clip-rule="evenodd" d="M28.3807 9.90284L29.8728 7.18765C29.9006 7.1201 29.9024 7.04469 29.878 6.97586C29.8537 6.90702 29.8048 6.8496 29.7407 6.81457C29.6766 6.77954 29.6019 6.76937 29.5308 6.78601C29.4597 6.80265 29.3972 6.84492 29.3553 6.90474L27.8476 9.64753C26.528 9.06623 25.1013 8.76772 23.6593 8.77122C22.1602 8.77122 20.744 9.08345 19.4778 9.64408L17.9667 6.90474C17.9482 6.87062 17.9233 6.84048 17.8932 6.81602C17.8631 6.79157 17.8284 6.7733 17.7913 6.76224C17.7541 6.75118 17.7151 6.74757 17.6765 6.7516C17.638 6.75562 17.6006 6.76722 17.5665 6.78572C17.532 6.80381 17.5015 6.82861 17.4768 6.85867C17.4521 6.88872 17.4337 6.92342 17.4226 6.96072C17.4115 6.99802 17.408 7.03716 17.4122 7.07584C17.4165 7.11451 17.4285 7.15194 17.4474 7.18592L18.9413 9.89766C16.0088 11.4053 14.025 14.2741 14.0267 17.5688L33.2884 17.5671C33.2884 14.2723 31.3115 11.4105 28.3807 9.90284ZM19.276 14.0946C19.1702 14.0945 19.0655 14.0736 18.9678 14.033C18.8701 13.9924 18.7813 13.933 18.7066 13.8581C18.6319 13.7832 18.5726 13.6943 18.5322 13.5965C18.4919 13.4988 18.4711 13.394 18.4713 13.2882C18.4714 13.1824 18.4923 13.0777 18.5329 12.98C18.5735 12.8823 18.6329 12.7935 18.7078 12.7188C18.7827 12.6441 18.8716 12.5848 18.9694 12.5445C19.0671 12.5041 19.1719 12.4834 19.2777 12.4835C19.4916 12.4835 19.6967 12.5684 19.8479 12.7197C19.9992 12.8709 20.0842 13.076 20.0842 13.2899C20.0842 13.5038 19.9992 13.7089 19.8479 13.8602C19.6967 14.0114 19.4916 14.0964 19.2777 14.0964L19.276 14.0946ZM33.2228 18.3072L33.2263 32.1281C33.2263 32.9578 32.7743 33.6754 32.1084 34.0722C31.7573 34.2852 31.3548 34.3985 30.944 34.3999L29.3846 34.4017V39.1179C29.3844 39.4348 29.3135 39.7477 29.1772 40.0339C29.0408 40.32 28.8425 40.5722 28.5965 40.7721C28.3505 40.9719 28.0631 41.1145 27.7551 41.1894C27.4472 41.2644 27.1264 41.2697 26.8161 41.2052C26.335 41.1068 25.9026 40.8457 25.5916 40.4659C25.2805 40.086 25.1098 39.6106 25.1083 39.1196V34.4017H22.2189V39.1196C22.218 39.6852 21.9925 40.2274 21.592 40.6268C21.1916 41.0263 20.6489 41.2505 20.0833 41.25C19.5179 41.2495 18.9758 41.0251 18.5755 40.6258C18.1753 40.2266 17.9495 39.6849 17.9477 39.1196V34.4017H16.3935C15.4947 34.4017 14.7254 33.8841 14.3545 33.132C14.1965 32.8214 14.1132 32.4782 14.1113 32.1298L14.1078 18.3123L33.2228 18.3072ZM11.139 17.9104C12.3189 17.9104 13.2781 18.8643 13.2781 20.0391V28.9575C13.2775 29.3433 13.1724 29.7217 12.974 30.0525C12.7756 30.3834 12.4913 30.6543 12.1512 30.8365C11.8112 31.0188 11.4281 31.1055 11.0428 31.0875C10.6574 31.0695 10.2841 30.9474 9.96256 30.7342C9.66747 30.5412 9.4251 30.2776 9.25735 29.9674C9.0896 29.6572 9.00175 29.3101 9.00173 28.9575L9 20.0374C9 18.8643 9.95739 17.9104 11.139 17.9104ZM36.1864 17.9087C37.3663 17.9087 38.3254 18.8609 38.3254 20.0374V28.954C38.3254 30.1322 37.368 31.0844 36.1881 31.0844C35.0065 31.0844 34.0491 30.1322 34.0491 28.954V20.0356C34.0491 18.8592 35.0048 17.9052 36.1847 17.907L36.1864 17.9087ZM28.0443 12.4852C28.1531 12.4802 28.2618 12.4972 28.3638 12.5354C28.4658 12.5736 28.5591 12.632 28.6379 12.7073C28.7166 12.7825 28.7794 12.8729 28.8222 12.973C28.865 13.0732 28.8871 13.181 28.8871 13.2899C28.8871 13.3989 28.865 13.5067 28.8222 13.6068C28.7794 13.7069 28.7166 13.7974 28.6379 13.8726C28.5591 13.9478 28.4658 14.0063 28.3638 14.0444C28.2618 14.0826 28.1531 14.0997 28.0443 14.0946C27.9355 14.0997 27.8268 14.0826 27.7247 14.0444C27.6227 14.0063 27.5295 13.9478 27.4507 13.8726C27.3719 13.7974 27.3092 13.7069 27.2664 13.6068C27.2235 13.5067 27.2014 13.3989 27.2014 13.2899C27.2014 13.181 27.2235 13.0732 27.2664 12.973C27.3092 12.8729 27.3719 12.7825 27.4507 12.7073C27.5295 12.632 27.6227 12.5736 27.7247 12.5354C27.8268 12.4972 27.9355 12.4802 28.0443 12.4852Z" fill="#F0F2F4" fill-opacity="0.8"/>
</svg>
