<svg width="48" height="48" viewBox="0 0 48 48" fill="none" xmlns="http://www.w3.org/2000/svg">
<path d="M31.1802 30.8445C32.5212 30.7057 33.5386 29.5496 33.4924 28.1621C33.4462 26.7748 32.29 25.6649 30.9027 25.6649H30.8103C29.3765 25.7111 28.2667 26.9135 28.313 28.3471C28.3593 29.0408 28.6366 29.642 29.0529 30.0582C27.4806 33.1568 25.0758 35.4229 21.4687 37.319C19.0177 38.6139 16.4743 39.0764 13.9309 38.7527C11.8498 38.4752 10.2313 37.5504 9.21373 36.0241C7.73398 33.758 7.59529 31.3069 8.84393 28.8559C9.72264 27.0985 11.1098 25.8035 11.9885 25.1561C11.8036 24.5549 11.526 23.5375 11.3873 22.7976C4.6818 27.6535 5.37554 34.2205 7.41033 37.319C8.93635 39.6314 12.0348 41.065 15.4569 41.065C16.3818 41.065 17.3066 40.9725 18.2316 40.7414C24.151 39.5851 28.6368 36.0703 31.1802 30.8445ZM39.3194 25.1099C35.8047 20.994 30.6253 18.7279 24.7059 18.7279H23.966C23.5498 17.8955 22.6711 17.3404 21.7 17.3404H21.6074C20.174 17.3867 19.0642 18.5891 19.1103 20.0228C19.1566 21.4102 20.3127 22.5201 21.7 22.5201H21.7924C22.8098 22.4738 23.6885 21.8264 24.0584 20.9477H24.8909C28.4055 20.9477 31.7351 21.9651 34.7411 23.9537C37.0533 25.4799 38.7182 27.4685 39.643 29.8733C40.4292 31.8156 40.3829 33.7117 39.5505 35.3305C38.2557 37.7815 36.0822 39.1227 33.215 39.1227C31.3652 39.1227 29.6079 38.5676 28.6829 38.1514C28.1743 38.6139 27.2493 39.3538 26.6019 39.8164C28.5905 40.7412 30.6253 41.25 32.5675 41.25C37.007 41.25 40.2905 38.7989 41.5391 36.3479C42.8802 33.6655 42.7876 29.0408 39.3194 25.1099ZM15.8269 31.6305C15.8731 33.018 17.0292 34.1278 18.4166 34.1278H18.5091C19.9427 34.0817 21.0525 32.8792 21.0063 31.4456C20.9601 30.0581 19.8039 28.9483 18.4166 28.9483H18.3241C18.2316 28.9483 18.0928 28.9483 18.0005 28.9944C16.1044 25.8497 15.3182 22.4276 15.5958 18.7278C15.7806 15.953 16.7056 13.5481 18.3241 11.5595C19.6652 9.84832 22.2549 9.01589 24.0123 8.96976C28.9142 8.8772 30.9951 14.9817 31.1339 17.4329C31.7351 17.5715 32.7525 17.8953 33.4462 18.1266C32.8912 10.6348 28.2667 6.75 23.8273 6.75C19.6652 6.75 15.8269 9.75605 14.3007 14.1957C12.1735 20.1152 13.5608 25.8035 16.1505 30.2895C15.9194 30.6131 15.7806 31.1218 15.8269 31.6305Z" fill="#F0F2F4" fill-opacity="0.8"/>
</svg>
