<svg width="48" height="48" viewBox="0 0 48 48" fill="none" xmlns="http://www.w3.org/2000/svg">
<path d="M43.9727 23.5038L42.273 22.4508C42.2587 22.2857 42.2427 22.1207 42.2249 21.956L43.6854 20.5929C43.759 20.5253 43.8141 20.44 43.8451 20.345C43.8762 20.25 43.8823 20.1486 43.8629 20.0506C43.8434 19.9526 43.7991 19.8612 43.7341 19.7853C43.6691 19.7093 43.5856 19.6514 43.4918 19.6171L41.6237 18.9185C41.5771 18.7572 41.5286 18.5965 41.4782 18.4363L42.6425 16.8176C42.701 16.7368 42.7379 16.6424 42.7496 16.5433C42.7614 16.4442 42.7475 16.3438 42.7095 16.2516C42.6714 16.1594 42.6104 16.0784 42.5322 16.0164C42.454 15.9544 42.3613 15.9135 42.2628 15.8975L40.2923 15.5773C40.2163 15.4279 40.1366 15.2811 40.0556 15.1343L40.8833 13.3182C40.9256 13.2275 40.9438 13.1275 40.9362 13.0277C40.9286 12.9279 40.8954 12.8318 40.8398 12.7486C40.7842 12.6654 40.7081 12.598 40.6188 12.5528C40.5296 12.5075 40.4302 12.4861 40.3302 12.4905L38.3318 12.5601C38.2284 12.431 38.1229 12.3036 38.0154 12.1779L38.4749 10.2301C38.4982 10.133 38.4962 10.0315 38.4691 9.9354C38.4421 9.83928 38.3907 9.75173 38.3201 9.68111C38.2495 9.6105 38.162 9.5592 38.0658 9.53211C37.9697 9.50502 37.8683 9.50305 37.7712 9.52639L35.8247 9.98455C35.6981 9.87824 35.5715 9.77319 35.4412 9.66814L35.5108 7.67101C35.5152 7.57105 35.4937 7.47166 35.4485 7.38241C35.4033 7.29316 35.3358 7.21707 35.2526 7.16149C35.1694 7.1059 35.0733 7.07269 34.9735 7.06506C34.8738 7.05744 34.7737 7.07564 34.6831 7.11793L32.8669 7.94565C32.7202 7.86458 32.5725 7.78526 32.4239 7.70771L32.1037 5.73842C32.0878 5.64005 32.047 5.54739 31.9852 5.46923C31.9233 5.39107 31.8426 5.33001 31.7505 5.29185C31.6584 5.25368 31.5582 5.23968 31.4592 5.25116C31.3602 5.26265 31.2658 5.29924 31.1849 5.35747L29.5649 6.52183C29.4053 6.4711 29.245 6.42258 29.084 6.37629L28.3854 4.50824C28.3509 4.41453 28.293 4.33123 28.2171 4.26632C28.1412 4.20141 28.05 4.15705 27.9521 4.13749C27.8541 4.11794 27.7528 4.12383 27.6579 4.15462C27.5629 4.18541 27.4774 4.24006 27.4096 4.31334L26.0465 5.77639C25.882 5.75867 25.7174 5.74095 25.5516 5.72829L24.4987 4.02731C24.4463 3.94253 24.3731 3.87255 24.286 3.82401C24.199 3.77548 24.1009 3.75 24.0013 3.75C23.9016 3.75 23.8036 3.77548 23.7165 3.82401C23.6295 3.87255 23.5563 3.94253 23.5039 4.02731L22.4509 5.72829C22.2864 5.74095 22.1206 5.75867 21.956 5.77639L20.593 4.3146C20.5247 4.24229 20.4393 4.18849 20.3446 4.15823C20.2499 4.12797 20.149 4.12225 20.0515 4.1416C19.954 4.16095 19.863 4.20474 19.787 4.26887C19.7111 4.333 19.6526 4.41536 19.6172 4.50824L18.9186 6.37629C18.7566 6.42312 18.5958 6.47247 18.4376 6.5231L16.8176 5.35747C16.737 5.29822 16.6425 5.26074 16.5432 5.24864C16.4439 5.23654 16.3432 5.25023 16.2507 5.28838C16.1583 5.32654 16.0772 5.38788 16.0153 5.46648C15.9535 5.54509 15.9129 5.63831 15.8975 5.73715L15.5761 7.70771C15.428 7.78491 15.2812 7.86465 15.1331 7.94565L13.3182 7.11793C13.2276 7.0757 13.1277 7.0575 13.0281 7.06507C12.9284 7.07264 12.8324 7.10574 12.7492 7.16117C12.6661 7.21661 12.5986 7.29251 12.5533 7.38158C12.508 7.47065 12.4863 7.56989 12.4905 7.66974L12.5601 9.66941C12.431 9.77319 12.3032 9.87824 12.1766 9.98581L10.2301 9.52639C10.1331 9.50389 10.0319 9.50645 9.93611 9.53382C9.84033 9.56119 9.75308 9.61247 9.68258 9.68285C9.61208 9.75322 9.56064 9.84037 9.5331 9.9361C9.50556 10.0318 9.50282 10.133 9.52515 10.2301L9.98457 12.1779C9.87699 12.3044 9.77194 12.431 9.66816 12.5601L7.66975 12.4905C7.57004 12.4868 7.47104 12.5087 7.3822 12.5541C7.29335 12.5996 7.2176 12.667 7.16216 12.7499C7.10672 12.8329 7.07344 12.9287 7.06548 13.0281C7.05752 13.1276 7.07514 13.2274 7.11668 13.3182L7.94439 15.1356C7.86466 15.2811 7.78493 15.4279 7.70772 15.5786L5.73842 15.8975C5.63985 15.9133 5.54697 15.9541 5.46863 16.016C5.3903 16.0779 5.32912 16.1589 5.29093 16.2511C5.25273 16.3434 5.2388 16.4439 5.25045 16.543C5.2621 16.6422 5.29894 16.7367 5.35747 16.8176L6.52184 18.4363C6.47122 18.5958 6.42312 18.7565 6.3763 18.9172L4.50825 19.6171C4.41488 19.652 4.33197 19.7102 4.26742 19.7861C4.20286 19.8621 4.15879 19.9533 4.13938 20.051C4.11998 20.1488 4.1259 20.2499 4.15656 20.3447C4.18723 20.4396 4.24163 20.525 4.3146 20.5929L5.77639 21.956C5.75741 22.1205 5.74096 22.285 5.72703 22.4508L4.02731 23.5038C3.94253 23.5562 3.87255 23.6294 3.82401 23.7165C3.77548 23.8035 3.75 23.9015 3.75 24.0012C3.75 24.1009 3.77548 24.1989 3.82401 24.2859C3.87255 24.373 3.94253 24.4462 4.02731 24.4986L5.72703 25.5503C5.74096 25.7161 5.75741 25.8819 5.77639 26.0464L4.3146 27.4095C4.24163 27.4774 4.18723 27.5628 4.15656 27.6577C4.1259 27.7525 4.11998 27.8536 4.13938 27.9514C4.15879 28.0491 4.20286 28.1403 4.26742 28.2163C4.33197 28.2922 4.41488 28.3504 4.50825 28.3853L6.3763 29.0839C6.42312 29.2459 6.47248 29.4066 6.52311 29.5648L5.35747 31.1848C5.29925 31.2657 5.26265 31.3601 5.25117 31.4591C5.23968 31.5581 5.25369 31.6584 5.29185 31.7504C5.33002 31.8425 5.39108 31.9232 5.46924 31.9851C5.54739 32.0469 5.64005 32.0877 5.73842 32.1036L7.70772 32.4238C7.78493 32.5732 7.86339 32.7213 7.94566 32.8668L7.11668 34.683C7.07514 34.7737 7.05752 34.8735 7.06548 34.973C7.07344 35.0725 7.10672 35.1682 7.16216 35.2512C7.2176 35.3342 7.29335 35.4016 7.3822 35.447C7.47104 35.4924 7.57004 35.5143 7.66975 35.5107L9.66816 35.4411C9.77194 35.5714 9.87699 35.698 9.98457 35.8245L9.52515 37.7723C9.5016 37.8695 9.50348 37.9711 9.53061 38.0674C9.55773 38.1636 9.6092 38.2513 9.68003 38.3218C9.75087 38.3924 9.83869 38.4436 9.93504 38.4703C10.0314 38.4971 10.133 38.4986 10.2301 38.4747L12.1766 38.0166C12.3032 38.1242 12.431 38.2279 12.5601 38.3317L12.4905 40.3314C12.4867 40.4311 12.5086 40.5302 12.554 40.619C12.5994 40.7079 12.6668 40.7836 12.7499 40.839C12.8329 40.8944 12.9288 40.9275 13.0283 40.9352C13.1278 40.943 13.2276 40.9251 13.3182 40.8832L15.1344 40.0555C15.2799 40.1365 15.428 40.2162 15.5773 40.2934L15.8975 42.2615C15.9129 42.3603 15.9533 42.4536 16.0151 42.5323C16.0769 42.611 16.1579 42.6725 16.2503 42.7109C16.3427 42.7493 16.4434 42.7632 16.5427 42.7515C16.6421 42.7397 16.7368 42.7026 16.8176 42.6437L18.4364 41.4768C18.5958 41.5274 18.7566 41.578 18.9173 41.6236L19.6159 43.4916C19.6502 43.5855 19.7081 43.6689 19.784 43.7339C19.86 43.7989 19.9513 43.8433 20.0494 43.8628C20.1474 43.8822 20.2488 43.8761 20.3438 43.845C20.4388 43.8139 20.5241 43.7589 20.5917 43.6853L21.956 42.2235C22.1206 42.2425 22.2851 42.2589 22.4509 42.2741L23.5039 43.9738C23.5565 44.0583 23.6298 44.128 23.7168 44.1763C23.8038 44.2246 23.9017 44.25 24.0013 44.25C24.1008 44.25 24.1987 44.2246 24.2857 44.1763C24.3727 44.128 24.446 44.0583 24.4987 43.9738L25.5504 42.2728C25.7162 42.2589 25.882 42.2425 26.0465 42.2235L27.4096 43.6853C27.4772 43.7586 27.5625 43.8134 27.6573 43.8443C27.7521 43.8752 27.8533 43.8812 27.9511 43.8617C28.049 43.8423 28.1402 43.7981 28.216 43.7332C28.2918 43.6684 28.3497 43.5852 28.3841 43.4916L29.084 41.6236C29.2447 41.578 29.4054 41.5274 29.5649 41.4768L31.1849 42.6437C31.266 42.7015 31.3604 42.7378 31.4594 42.7491C31.5584 42.7603 31.6586 42.7461 31.7505 42.7078C31.8425 42.6696 31.9232 42.6085 31.985 42.5304C32.0468 42.4523 32.0877 42.3597 32.1037 42.2615L32.4252 40.2922C32.5733 40.2162 32.7201 40.1352 32.8669 40.0555L34.6831 40.8832C34.7738 40.9251 34.8737 40.943 34.9733 40.9352C35.0729 40.9274 35.1689 40.8942 35.252 40.8387C35.335 40.7832 35.4025 40.7073 35.4478 40.6182C35.4931 40.5292 35.5148 40.43 35.5108 40.3301L35.4412 38.3305C35.5703 38.2292 35.6981 38.1242 35.8247 38.0166L37.7712 38.4747C37.8682 38.4984 37.9696 38.4967 38.0658 38.4698C38.162 38.4429 38.2496 38.3917 38.3203 38.3211C38.3909 38.2506 38.4423 38.1631 38.4693 38.0669C38.4964 37.9708 38.4983 37.8694 38.4749 37.7723L38.0167 35.8245C38.123 35.698 38.2281 35.5714 38.3318 35.4411L40.3315 35.5107C40.4314 35.5148 40.5306 35.4932 40.6197 35.4479C40.7087 35.4026 40.7847 35.3351 40.8401 35.2519C40.8955 35.1688 40.9286 35.0728 40.9362 34.9731C40.9438 34.8735 40.9256 34.7735 40.8833 34.683L40.0556 32.8668C40.1366 32.7213 40.2151 32.5732 40.2923 32.4238L42.2616 32.1036C42.3603 32.0884 42.4535 32.0479 42.5321 31.9862C42.6106 31.9245 42.672 31.8436 42.7103 31.7513C42.7486 31.659 42.7624 31.5584 42.7506 31.4592C42.7387 31.36 42.7015 31.2655 42.6425 31.1848L41.4782 29.5648C41.5285 29.4051 41.577 29.2448 41.6237 29.0839L43.4918 28.3853C43.5856 28.351 43.6691 28.2931 43.7341 28.2171C43.7991 28.1412 43.8434 28.0498 43.8629 27.9518C43.8823 27.8538 43.8762 27.7524 43.8451 27.6574C43.8141 27.5624 43.759 27.4771 43.6854 27.4095L42.2236 26.0464C42.2413 25.8819 42.2578 25.7161 42.273 25.5503L43.9727 24.4986C44.0575 24.4462 44.1275 24.373 44.176 24.2859C44.2245 24.1989 44.25 24.1009 44.25 24.0012C44.25 23.9015 44.2245 23.8035 44.176 23.7165C44.1275 23.6294 44.0575 23.5562 43.9727 23.5038ZM32.5935 37.6078C32.2886 37.5337 32.0245 37.3434 31.8577 37.0776C31.6908 36.8118 31.6343 36.4913 31.7 36.1844C31.7658 35.8776 31.9488 35.6085 32.21 35.4344C32.4712 35.2604 32.7899 35.1951 33.0985 35.2525C33.4047 35.3257 33.67 35.5157 33.8378 35.7821C34.0057 36.0484 34.0626 36.3698 33.9964 36.6775C33.9303 36.9853 33.7463 37.2549 33.4839 37.4288C33.2215 37.6026 32.9027 37.6669 32.5935 37.6078ZM32.0151 33.7009C31.8744 33.6707 31.729 33.6687 31.5875 33.6947C31.4459 33.7208 31.3108 33.7745 31.19 33.8528C31.0692 33.9311 30.965 34.0324 30.8833 34.1509C30.8017 34.2695 30.7442 34.403 30.7141 34.5438L30.1104 37.361C28.1911 38.2314 26.1075 38.6803 24 38.6772C21.7725 38.6772 19.6589 38.1836 17.7618 37.3015L17.1581 34.4855C17.1282 34.3446 17.0708 34.211 16.9892 34.0923C16.9076 33.9736 16.8034 33.8722 16.6825 33.7938C16.5617 33.7154 16.4266 33.6616 16.2849 33.6354C16.1433 33.6093 15.9979 33.6113 15.857 33.6414L13.3701 34.1755C12.908 33.6999 12.4784 33.1938 12.0842 32.6605H24.1848C24.3215 32.6605 24.4126 32.6352 24.4126 32.5112V28.2309C24.4126 28.1056 24.3215 28.0815 24.1848 28.0815H20.6461V25.3668H24.4733C24.8227 25.3668 26.3414 25.4668 26.8274 27.4082C26.9793 28.0043 27.3134 29.947 27.5412 30.5685C27.769 31.2658 28.6954 32.6593 29.6826 32.6593H35.712C35.7855 32.6586 35.8588 32.6514 35.931 32.6377C35.5133 33.206 35.0539 33.7439 34.5603 34.2451L32.0164 33.6996L32.0151 33.7009ZM15.2799 37.5483C14.9713 37.6057 14.6525 37.5405 14.3914 37.3664C14.1302 37.1923 13.9472 36.9232 13.8814 36.6164C13.8156 36.3095 13.8722 35.989 14.0391 35.7232C14.2059 35.4574 14.4699 35.2671 14.7749 35.193C14.9297 35.1599 15.0894 35.1577 15.245 35.1863C15.4006 35.215 15.5491 35.274 15.6819 35.36C15.8147 35.4461 15.9292 35.5574 16.019 35.6877C16.1088 35.818 16.172 35.9647 16.2051 36.1194C16.2381 36.2742 16.2404 36.4339 16.2118 36.5895C16.1831 36.7451 16.1241 36.8936 16.038 37.0264C15.952 37.1592 15.8407 37.2737 15.7104 37.3635C15.5801 37.4533 15.4334 37.5165 15.2786 37.5496L15.2799 37.5483ZM10.6895 18.935C10.7536 19.0793 10.7886 19.2349 10.7926 19.3927C10.7965 19.5506 10.7693 19.7077 10.7126 19.8551C10.6558 20.0025 10.5706 20.1372 10.4617 20.2517C10.3529 20.3661 10.2226 20.458 10.0782 20.522C9.93388 20.5861 9.77832 20.6211 9.62044 20.6251C9.46256 20.629 9.30545 20.6018 9.15808 20.5451C9.01071 20.4883 8.87595 20.4031 8.76152 20.2942C8.64709 20.1854 8.55521 20.0551 8.49114 19.9107C8.36174 19.6192 8.35345 19.2882 8.46809 18.9906C8.58273 18.693 8.81091 18.4531 9.10243 18.3237C9.39396 18.1943 9.72494 18.186 10.0226 18.3006C10.3202 18.4153 10.5601 18.6434 10.6895 18.935ZM9.27835 22.28L11.8691 21.1283C12.1349 21.0098 12.3429 20.7906 12.4473 20.5189C12.5517 20.2472 12.544 19.9452 12.4259 19.6791L11.8931 18.473H13.9915V27.9322H9.75802C9.23539 26.0966 9.07336 24.1774 9.27835 22.28ZM20.6474 21.3611V18.573H25.644C25.9022 18.573 27.4665 18.8717 27.4665 20.0411C27.4665 21.0118 26.2667 21.3611 25.2795 21.3611H20.6474ZM38.8077 23.8708C38.8077 24.2404 38.7938 24.6062 38.7659 24.9694H37.2472C37.0953 24.9694 37.0346 25.0706 37.0346 25.2187V25.9161C37.0346 27.5588 36.1082 27.9157 35.2969 28.0069C34.5249 28.0929 33.6668 27.6829 33.5617 27.2095C33.1061 24.6467 32.3467 24.0987 31.1469 23.152C32.6353 22.2078 34.1844 20.8131 34.1844 18.9463C34.1844 16.9302 32.8024 15.6608 31.8607 15.0381C30.5394 14.1674 29.0764 13.9927 28.6815 13.9927H12.9702C15.1411 11.5646 18.0529 9.92117 21.2536 9.31757L23.1052 11.2603C23.5241 11.6982 24.219 11.7159 24.6556 11.2957L26.7287 9.31377C28.8406 9.7103 30.841 10.5613 32.5912 11.8079C34.3415 13.0544 35.7998 14.6666 36.865 16.5328L35.4462 19.7374C35.3285 20.0034 35.321 20.3053 35.4253 20.5769C35.5297 20.8485 35.7375 21.0677 36.0031 21.1865L38.7356 22.3989C38.7824 22.8837 38.8077 23.3735 38.8077 23.8708ZM23.1065 7.66468C23.2207 7.55548 23.3553 7.46986 23.5026 7.41272C23.65 7.35558 23.8071 7.32805 23.9651 7.3317C24.1231 7.33534 24.2788 7.37009 24.4233 7.43396C24.5679 7.49782 24.6984 7.58956 24.8075 7.70391C24.9167 7.81843 25.0022 7.95332 25.0593 8.10091C25.1164 8.24849 25.1438 8.40587 25.14 8.56406C25.1363 8.72225 25.1014 8.87814 25.0374 9.02285C24.9734 9.16756 24.8815 9.29823 24.767 9.40743C24.6528 9.51651 24.5182 9.60201 24.3709 9.65902C24.2236 9.71603 24.0666 9.74344 23.9087 9.73968C23.7508 9.73592 23.5952 9.70106 23.4509 9.6371C23.3065 9.57314 23.1761 9.48133 23.0672 9.36693C22.8472 9.13573 22.7278 8.82676 22.7352 8.5077C22.7425 8.18864 22.8761 7.8855 23.1065 7.66468ZM37.1839 18.9932C37.3135 18.7017 37.5536 18.4735 37.8513 18.359C38.1491 18.2445 38.4801 18.253 38.7716 18.3825C39.0632 18.5121 39.2913 18.7521 39.4058 19.0499C39.5203 19.3477 39.5119 19.6787 39.3823 19.9702C39.3181 20.1146 39.2262 20.2449 39.1117 20.3537C38.9972 20.4625 38.8623 20.5477 38.7149 20.6044C38.5675 20.6611 38.4103 20.6882 38.2524 20.6842C38.0945 20.6801 37.9389 20.645 37.7946 20.5809C37.6502 20.5167 37.5199 20.4248 37.4111 20.3103C37.3023 20.1958 37.2171 20.0609 37.1604 19.9135C37.1037 19.7661 37.0766 19.6089 37.0806 19.451C37.0847 19.2931 37.1198 19.1375 37.1839 18.9932Z" fill="#F0F2F4" fill-opacity="0.8"/>
</svg>
