<svg width="48" height="48" viewBox="0 0 48 48" fill="none" xmlns="http://www.w3.org/2000/svg">
<path d="M40.2065 23.7176C40.2065 21.5087 38.6935 19.5741 36.5259 19.0128L41.25 5.25H17.8432L22.5814 19.062C20.4803 19.6667 19.0349 21.5638 19.0289 23.7246C19.0289 25.3546 19.8507 26.8006 21.1052 27.6911C20.606 28.3931 20.0297 29.0411 19.3941 29.6316C18.2274 30.732 16.8554 31.6038 15.3614 32.2084C14.0393 31.3284 13.4725 29.7723 13.9847 28.3884C19.3574 26.7338 18.1716 18.9097 12.5523 18.8862C9.83457 18.8909 7.63025 21.0646 7.63025 23.7504C7.63025 25.0757 8.17214 26.2897 9.05671 27.1615C8.97608 27.308 8.90138 27.4673 8.82074 27.6255C8.08676 29.1266 7.25199 30.8175 6.93183 32.7158C6.29627 36.5183 7.33973 39.5697 9.85947 41.2969C11.2172 42.2437 12.8476 42.7558 14.5159 42.75C17.3997 42.75 20.3344 41.3157 23.1684 39.9236C25.1937 38.9404 27.2806 37.9092 29.3308 37.4101C30.0908 37.2273 30.8817 37.1183 31.7153 36.9941C33.4074 36.7562 35.1552 36.5066 36.724 35.6031C38.5394 34.5778 39.8057 32.8084 40.1757 30.7753C40.4472 29.225 40.1757 27.663 39.4725 26.2897C39.948 25.5385 40.2077 24.6667 40.2077 23.7199L40.2065 23.7176ZM38.0639 23.7176C38.0639 25.2257 36.8212 26.4514 35.2975 26.4514C32.6782 26.4455 31.5304 23.1809 33.5853 21.5685L33.5912 21.5579C33.6849 21.4912 33.7845 21.4232 33.8758 21.3611C33.8758 21.3611 33.8948 21.3611 33.8948 21.3505C33.9374 21.3259 33.9801 21.2955 34.024 21.2709C34.037 21.2709 34.043 21.265 34.0536 21.265C34.0975 21.2404 34.1532 21.2228 34.209 21.1982C34.2647 21.1736 34.3193 21.156 34.3643 21.1314C34.375 21.1314 34.3821 21.1256 34.394 21.1256C34.4378 21.1127 34.4876 21.0892 34.5303 21.0834C34.5362 21.0834 34.5623 21.0705 34.5742 21.0705C34.6299 21.0576 34.6726 21.0459 34.7272 21.0388H34.7331L34.9003 21.0025C34.9109 21.0025 34.9299 21.0025 34.943 20.9896C34.9856 20.9896 35.0295 20.9767 35.0793 20.9767H35.1279C35.1837 20.9767 35.2382 20.9709 35.307 20.9709H35.4493C35.4932 20.9709 35.5299 20.9709 35.5726 20.9767H35.5916C35.6781 20.9896 35.7706 21.0013 35.8572 21.0271C37.1414 21.2955 38.0627 22.418 38.0627 23.7176H38.0639ZM20.9072 7.42369H38.1872L34.222 18.9823C34.0548 19.014 33.8948 19.0679 33.7276 19.1229L29.5537 10.7129L25.3656 19.069C25.2055 19.0187 25.0253 18.9835 24.8474 18.953L20.9072 7.42369ZM28.7628 22.7719C28.5588 21.77 28.0407 20.8549 27.2794 20.1658L29.5525 15.6321L31.8493 20.2631C31.1628 20.9345 30.6695 21.7958 30.4727 22.7719H28.7628ZM23.2597 21.0564C23.3083 21.0435 23.3593 21.033 23.415 21.0271H23.4447C23.4886 21.0142 23.5312 21.0142 23.5739 21.0025H23.6178C23.6605 21.0025 23.6984 20.9896 23.7411 20.9896H24.1668C24.2107 20.9896 24.2474 21.0025 24.2795 21.0025C24.3032 21.0025 24.3091 21.0025 24.3352 21.0154C24.3779 21.0283 24.4099 21.0283 24.4526 21.0342C24.4656 21.0342 24.4775 21.0341 24.5012 21.0447L24.6494 21.0763H24.6625C24.7051 21.0892 24.7561 21.1009 24.7988 21.1244C24.8047 21.1244 24.8178 21.1302 24.8415 21.1302C24.8735 21.1431 24.9162 21.1548 24.9541 21.1724C24.9589 21.1724 24.9719 21.1853 24.9838 21.1853C25.0265 21.2099 25.0704 21.2228 25.113 21.2404H25.1261C25.1747 21.2591 25.2245 21.2837 25.2684 21.3201H25.2814C25.3241 21.3388 25.3668 21.3681 25.4107 21.3939C25.4213 21.3939 25.4213 21.4068 25.4344 21.4068C25.4783 21.4255 25.5091 21.4619 25.5518 21.4806L25.5648 21.4935C25.6941 21.5908 25.8174 21.6997 25.9431 21.8111L25.9478 21.8169C26.4423 22.329 26.715 23.0063 26.7079 23.707C26.5905 27.2353 21.2913 27.2353 21.174 23.707C21.168 22.4567 22.0324 21.3634 23.2609 21.0588L23.2597 21.0564ZM12.4456 20.9767C13.9717 20.9767 15.212 22.2095 15.212 23.7176C15.212 25.2257 13.9705 26.4514 12.4456 26.4514C10.9219 26.4514 9.67923 25.2245 9.67923 23.7176C9.67923 22.2106 10.9219 20.9767 12.4456 20.9767ZM38.001 30.3957C37.7485 31.7983 36.8722 33.0193 35.6188 33.7283C34.42 34.4114 32.9438 34.6317 31.4011 34.8438C30.5296 34.9551 29.6592 35.1063 28.8067 35.302C26.5217 35.8586 24.3233 36.9378 22.1913 37.9819C19.4688 39.3189 16.8993 40.5751 14.5159 40.5751C13.2934 40.5809 12.1017 40.2095 11.1069 39.5017C8.6915 37.853 8.81007 34.7594 9.0994 33.0627C9.35908 31.4749 10.0942 29.9926 10.7974 28.5712C10.8484 28.4856 10.878 28.4059 10.9219 28.3216C11.1626 28.4059 11.4152 28.4727 11.6808 28.5173C11.2598 30.8175 12.4456 33.1986 14.7555 34.3704L15.1693 34.5825L15.6199 34.4243C17.5408 33.7458 19.3254 32.6537 20.8941 31.1901C21.7656 30.3898 22.5305 29.4875 23.1791 28.5044C23.434 28.5466 23.6866 28.5595 23.9391 28.5595C26.1743 28.5536 28.126 27.0642 28.6952 24.9222H30.5414C31.1023 27.0642 33.06 28.5595 35.2975 28.5595C36.2117 28.5595 37.0572 28.3099 37.7793 27.888C38.0639 28.7001 38.1552 29.5473 38.001 30.3957Z" fill="#F0F2F4" fill-opacity="0.8"/>
</svg>
