<svg width="48" height="48" viewBox="0 0 48 48" fill="none" xmlns="http://www.w3.org/2000/svg">
<path d="M29.4309 6.96417C26.4897 6.12493 23.4176 7.82651 22.5784 10.7677L22.1395 12.3076C21.8547 13.3086 21.3388 14.2325 20.6381 15.0024L16.6883 19.345C16.003 20.0995 16.0569 21.2698 16.8115 21.9551C17.566 22.6403 18.7364 22.5864 19.4216 21.8319L23.3714 17.4894C24.4571 16.296 25.2501 14.8715 25.689 13.324L26.1279 11.7841C26.405 10.8062 27.4291 10.2365 28.4146 10.5136C29.4002 10.7908 29.9622 11.8148 29.685 12.8004L29.2462 14.3403C28.8073 15.8725 28.1143 17.32 27.1981 18.6135C26.7977 19.1756 26.7515 19.9147 27.0672 20.5307C27.3829 21.1466 28.0142 21.5316 28.7072 21.5316H38.9937C39.6713 21.5316 40.2256 22.086 40.2256 22.7635C40.2256 23.2871 39.8946 23.7414 39.4249 23.9184C38.8551 24.134 38.424 24.6114 38.2777 25.2043C38.1314 25.7971 38.2854 26.4208 38.6857 26.8751C38.8782 27.0906 38.9937 27.3755 38.9937 27.6912C38.9937 28.2918 38.5625 28.7922 37.9928 28.9C37.3614 29.0232 36.8302 29.4621 36.6069 30.0626C36.3836 30.6632 36.4837 31.3485 36.8841 31.8566C37.0457 32.0645 37.1458 32.3263 37.1458 32.6189C37.1458 33.1347 36.8225 33.589 36.3605 33.7661C35.475 34.1126 34.9977 35.0673 35.2518 35.9835C35.2826 36.0836 35.298 36.1991 35.298 36.3146C35.298 36.9922 34.7436 37.5465 34.066 37.5465H26.559C25.5889 37.5465 24.6342 37.2617 23.8257 36.7227L19.0751 33.5582C18.2282 32.9884 17.081 33.2194 16.5112 34.0741C15.9414 34.9287 16.1724 36.0682 17.0271 36.638L21.7777 39.8025C23.1944 40.7495 24.8575 41.25 26.559 41.25H34.066C36.7378 41.25 38.909 39.1249 38.9937 36.4763C40.1178 35.5755 40.8416 34.1896 40.8416 32.6266C40.8416 32.2801 40.8031 31.949 40.7415 31.6256C41.9272 30.7248 42.6895 29.3004 42.6895 27.6989C42.6895 27.1984 42.6125 26.7134 42.4739 26.2591C43.367 25.3583 43.9214 24.1263 43.9214 22.7635C43.9214 20.0456 41.7193 17.8359 38.9937 17.8359H31.8871C32.249 17.0351 32.5569 16.2036 32.7956 15.3566L33.2345 13.8167C34.0737 10.8755 32.3722 7.80342 29.4309 6.96417ZM6.96384 19.0678C5.60103 19.0678 4.5 20.1688 4.5 21.5316V38.7785C4.5 40.1413 5.60103 41.2423 6.96384 41.2423H11.8915C13.2543 41.2423 14.3553 40.1413 14.3553 38.7785V21.5316C14.3553 20.1688 13.2543 19.0678 11.8915 19.0678H6.96384Z" fill="#F0F2F4" fill-opacity="0.8"/>
</svg>
