<svg width="48" height="48" viewBox="0 0 48 48" fill="none" xmlns="http://www.w3.org/2000/svg">
<path d="M44.5835 20.3189C43.7239 19.7552 42.668 19.419 41.5335 19.419C41.4031 19.419 41.2741 19.4232 41.1465 19.4316L41.1633 19.4302C40.5379 19.4316 39.9265 19.4874 39.3319 19.5906L39.3964 19.5808C39.0669 17.6876 37.9591 16.0999 36.4208 15.1289L36.3941 15.1136L35.7926 14.7676L35.3971 15.3368C34.9259 16.0511 34.5571 16.8826 34.337 17.7713L34.3258 17.8257C34.201 18.2778 34.1294 18.7968 34.1294 19.3325C34.1294 20.4919 34.466 21.5717 35.0465 22.4828L35.0325 22.4591C34.1393 22.8762 33.096 23.1399 31.998 23.1901H31.9797H4.31395C3.59036 23.1915 3.00421 23.7733 3.0014 24.4918C3 24.5699 3 24.6634 3 24.7569C3 27.1998 3.44453 29.5395 4.25785 31.7006L4.21298 31.5638C4.99546 33.8421 6.47347 35.7144 8.39181 36.9784L8.43107 37.0021C10.8767 38.262 13.771 39 16.8378 39C17.1281 39 17.4155 38.993 17.703 38.9805L17.6623 38.9819C17.6876 38.9819 17.717 38.9819 17.7465 38.9819C19.5302 38.9819 21.2732 38.813 22.963 38.4908L22.7905 38.5187C25.3076 38.0499 27.5513 37.2086 29.5846 36.0451L29.4809 36.0995C31.2435 35.074 32.7496 33.8379 34.0313 32.3995L34.0481 32.38C35.9061 30.2036 37.4178 27.663 38.4583 24.895L38.5158 24.7206H38.9028C38.98 24.7234 39.0697 24.7262 39.1595 24.7262C40.8787 24.7262 42.4408 24.0551 43.5949 22.9613L43.5921 22.9641C44.1208 22.4646 44.54 21.8577 44.8163 21.1769L44.8289 21.1434L45 20.6426L44.5835 20.3189ZM6.87733 22.3865H10.5878C10.7659 22.3851 10.9103 22.2414 10.9103 22.0642V18.7786C10.9103 18.6014 10.7659 18.4564 10.5878 18.455H6.87733C6.69924 18.4564 6.55481 18.6001 6.55481 18.7772V22.0642C6.55481 22.2414 6.69924 22.3865 6.87733 22.3865ZM11.9873 22.3865H15.6949C15.873 22.3865 16.0189 22.2428 16.0189 22.0642V18.7786C16.0189 18.6014 15.8744 18.4564 15.6963 18.455H11.9859C11.8064 18.455 11.6605 18.6001 11.6605 18.7786V22.0642C11.6619 22.2428 11.8078 22.3865 11.9873 22.3865ZM17.1729 22.3865H20.8834C21.0615 22.3851 21.2059 22.2414 21.2059 22.0642V18.7786C21.2059 18.6014 21.0615 18.4564 20.8834 18.455H17.1729C16.9949 18.4564 16.8504 18.6001 16.8504 18.7772V22.0642C16.8504 22.2414 16.9949 22.3865 17.1744 22.3865H17.1729ZM22.2997 22.3865H26.006C26.1855 22.3865 26.3299 22.2428 26.3313 22.0642V18.7786C26.3313 18.6001 26.1855 18.455 26.006 18.455H22.2997C22.1216 18.455 21.9758 18.5987 21.9758 18.7772V22.0642C21.9758 22.2414 22.1202 22.3865 22.2983 22.3865C22.2983 22.3865 22.2983 22.3865 22.2997 22.3865ZM11.9873 17.6597H15.6949C15.8744 17.6583 16.0189 17.5146 16.0189 17.336V14.0505C16.0189 13.8733 15.8744 13.7282 15.6949 13.7282H11.9873C11.8078 13.7282 11.6634 13.8719 11.6619 14.0505V17.336C11.6634 17.5146 11.8078 17.6583 11.9873 17.6597ZM17.1729 17.6597H20.8834C21.0615 17.6583 21.2059 17.5132 21.2059 17.336V14.0505C21.2059 13.8733 21.0615 13.7282 20.882 13.7282H17.1758C16.9977 13.7282 16.8518 13.8719 16.8518 14.0505V17.336C16.8532 17.5146 16.9963 17.6583 17.1758 17.6597H17.1729ZM22.2997 17.6597H26.006C26.1855 17.6583 26.3299 17.5146 26.3313 17.336V14.0505C26.3299 13.8719 26.1855 13.7282 26.006 13.7282H22.2997C22.1216 13.7282 21.9758 13.8719 21.9758 14.0505V17.336C21.9758 17.5146 22.1202 17.6583 22.2997 17.6597ZM22.2997 12.9329H26.006C26.1855 12.9329 26.3313 12.7878 26.3313 12.6093V9.32228C26.3299 9.1437 26.1855 9 26.006 9H22.2997C22.1216 9 21.9758 9.1437 21.9758 9.32228V12.6093C21.9758 12.7864 22.1202 12.9315 22.2983 12.9315C22.2983 12.9315 22.2983 12.9315 22.2997 12.9315V12.9329ZM27.47 22.3865H31.1776C31.3571 22.3865 31.5016 22.2428 31.503 22.0642V18.7786C31.503 18.6001 31.3571 18.455 31.1776 18.455H27.47C27.2905 18.455 27.146 18.5987 27.146 18.7772V22.0642C27.146 22.2414 27.2905 22.3865 27.47 22.3865Z" fill="#F0F2F4" fill-opacity="0.8"/>
</svg>
