<svg width="48" height="48" viewBox="0 0 48 48" fill="none" xmlns="http://www.w3.org/2000/svg">
<path fill-rule="evenodd" clip-rule="evenodd" d="M40.9938 14.555C41.0064 14.6011 41.0127 14.6482 41.0127 14.6953V22.1006C41.0127 22.1958 40.9875 22.2894 40.9397 22.3718C40.8919 22.4542 40.8231 22.5225 40.7404 22.5698L34.5259 26.1483V33.2404C34.5258 33.3353 34.5008 33.4284 34.4534 33.5106C34.406 33.5928 34.3378 33.661 34.2557 33.7085L21.2821 41.1777C21.2517 41.1944 21.2193 41.2049 21.1878 41.2164C21.1753 41.2206 21.1637 41.2279 21.1512 41.2321C21.0606 41.256 20.9653 41.256 20.8747 41.2321C20.859 41.2279 20.8464 41.2196 20.8318 41.2143C20.8024 41.2039 20.771 41.1934 20.7427 41.1777L7.77124 33.7085C7.68895 33.6611 7.62057 33.5929 7.57296 33.5108C7.52535 33.4286 7.50019 33.3354 7.5 33.2404V11.0246C7.5 10.9765 7.50628 10.9293 7.51885 10.8833C7.52304 10.8675 7.53246 10.8539 7.5377 10.8382C7.54817 10.8099 7.5576 10.7806 7.57226 10.7544C7.58273 10.7366 7.5974 10.723 7.60892 10.7063C7.62463 10.6853 7.63929 10.6623 7.65709 10.6434C7.6728 10.6277 7.6927 10.6162 7.7105 10.6026C7.7304 10.5869 7.74716 10.5691 7.7702 10.5565L14.257 6.82194C14.3391 6.7748 14.432 6.75 14.5267 6.75C14.6213 6.75 14.7143 6.7748 14.7963 6.82194L21.2831 10.5565C21.3051 10.5701 21.324 10.5869 21.3428 10.6026C21.3606 10.6162 21.3805 10.6277 21.3952 10.6424C21.4151 10.6633 21.4287 10.6843 21.4444 10.7063C21.4559 10.723 21.4716 10.7366 21.4811 10.7544C21.4968 10.7806 21.5052 10.8099 21.5167 10.8382C21.5219 10.8539 21.5313 10.8675 21.5345 10.8843C21.5472 10.93 21.5539 10.9772 21.5544 11.0246V24.901L26.9583 21.7885V14.6953C26.9588 14.6479 26.9655 14.6007 26.9782 14.555C26.9824 14.5382 26.9908 14.5236 26.997 14.5089C27.0075 14.4806 27.0169 14.4513 27.0316 14.4251C27.0421 14.4073 27.0567 14.3937 27.0683 14.377C27.084 14.356 27.0976 14.333 27.1164 14.3141C27.1321 14.2984 27.152 14.2879 27.1688 14.2743C27.1897 14.2576 27.2076 14.2398 27.2285 14.2272L33.7163 10.4926C33.7984 10.4454 33.8914 10.4205 33.986 10.4205C34.0807 10.4205 34.1737 10.4454 34.2557 10.4926L40.7425 14.2272C40.7655 14.2408 40.7823 14.2586 40.8032 14.2733C40.82 14.2869 40.8388 14.2984 40.8556 14.3141C40.8734 14.333 40.887 14.356 40.9038 14.377C40.9153 14.3937 40.9299 14.4084 40.9394 14.4251C40.9551 14.4513 40.9645 14.4806 40.975 14.5089C40.9813 14.5246 40.9896 14.5382 40.9938 14.555ZM39.9319 21.7885V15.6305L37.6614 16.9375L34.5259 18.743V24.901L39.9319 21.7885ZM33.4451 32.9283V26.7662L30.3609 28.5277L21.5533 33.5546V39.7754L33.4451 32.9283ZM8.58078 11.9598V32.9283L20.4725 39.7743V33.5556L14.2601 30.0399L14.258 30.0378L14.2549 30.0368C14.234 30.0242 14.2172 30.0075 14.1973 29.9918C14.1805 29.9792 14.1606 29.9677 14.146 29.953L14.1449 29.9509C14.1271 29.9342 14.1146 29.9132 14.0999 29.8944C14.0863 29.8766 14.0706 29.8609 14.0601 29.842L14.0591 29.8399C14.0465 29.819 14.0392 29.7949 14.0308 29.7718C14.0214 29.7519 14.0098 29.7331 14.0046 29.7111C13.9983 29.6849 13.9973 29.6587 13.9941 29.6315C13.991 29.6106 13.9858 29.5917 13.9858 29.5708V15.0713L10.8513 13.2658L8.58078 11.9598ZM14.5272 7.91424L9.12327 11.0246L14.5261 14.135L19.9301 11.0246L14.5272 7.91424ZM17.3381 27.3275L20.4725 25.5231V11.9598L18.2031 13.2658L15.0676 15.0713V28.6345L17.3381 27.3275ZM33.9855 11.5849L28.5816 14.6953L33.9855 17.8057L39.3873 14.6953L33.9855 11.5849ZM33.444 18.743L30.3085 16.9375L28.0391 15.6305V21.7885L31.1736 23.5929L33.444 24.901V18.743ZM21.0108 32.6194L28.9366 28.0952L32.8984 25.8331L27.4987 22.7248L21.2821 26.3043L15.6164 29.5666L21.0108 32.6194Z" fill="#F0F2F4" fill-opacity="0.8"/>
</svg>
