<svg width="48" height="48" viewBox="0 0 48 48" fill="none" xmlns="http://www.w3.org/2000/svg">
<path d="M40.6917 16.6624H31.2002C30.8634 19.4034 29.4931 21.9139 27.3242 23.6922C27.1177 23.8617 26.8682 23.9441 26.6203 23.9441C26.2989 23.9441 25.9801 23.8055 25.7603 23.5373C25.3712 23.0628 25.4404 22.3626 25.9151 21.9733C27.9136 20.3346 29.0599 17.9142 29.0599 15.3327C29.0599 10.6002 25.2098 6.75 20.4775 6.75C16.0499 6.75 12.3952 10.12 11.9425 14.4295C11.3934 14.7472 10.8832 15.1252 10.4242 15.5626C10.2547 15.7242 10.0962 15.891 9.94566 16.0615C8.02588 18.2355 7.604 21.0785 7.604 23.1517C7.604 24.0401 7.62762 24.9293 7.65054 25.7893C7.71902 28.3687 7.80431 31.5792 6.95264 32.4539C6.88665 32.5214 6.68634 32.7273 5.97261 32.7273C4.74503 32.7273 3.75 33.7223 3.75 34.9499C3.75 36.1775 4.74503 37.1725 5.97261 37.1725C7.69096 37.1725 9.09218 36.6284 10.1372 35.5551C11.5329 34.122 11.9852 32.0606 12.1026 29.7184C12.3659 29.7262 12.646 29.7311 12.9413 29.7311C15.1581 29.7311 18.1532 29.4643 20.5264 28.2739C20.5264 28.2739 20.3643 29.3017 20.3643 29.5923V38.4372C20.3643 40.0178 21.8573 41.2499 23.4402 41.2499H23.4824C25.0655 41.2499 26.3375 40.0178 26.3375 38.4372V33.8876H36.8949V38.4734C36.8949 40.034 38.2062 41.25 39.7671 41.25H39.8107C41.3714 41.25 42.5903 40.034 42.5903 38.4734V33.406C43.9795 32.7071 44.8129 31.3191 44.8129 29.7202V20.8298C44.8128 18.5281 42.9932 16.6624 40.6917 16.6624ZM11.9448 23.0871C11.9448 22.5081 12.4139 22.0388 12.9929 22.0388C13.5718 22.0388 14.0411 22.5081 14.0411 23.0871C14.0411 23.6658 13.5718 24.1352 12.9929 24.1352C12.4139 24.1352 11.9448 23.6658 11.9448 23.0871Z" fill="#F0F2F4" fill-opacity="0.8"/>
</svg>
