<svg width="48" height="48" viewBox="0 0 48 48" fill="none" xmlns="http://www.w3.org/2000/svg">
<path d="M27.7322 9.09088C28.0298 9.17567 28.3081 9.31936 28.5511 9.51373C28.7941 9.7081 28.9971 9.94934 29.1486 10.2237C29.3 10.498 29.3968 10.8 29.4336 11.1125C29.4703 11.4249 29.4463 11.7417 29.3627 12.0447L22.4158 37.2513C22.2474 37.863 21.8473 38.3815 21.3036 38.6928C20.7598 39.004 20.1168 39.0826 19.5162 38.9111C18.9156 38.7396 18.4065 38.3321 18.1008 37.7783C17.7952 37.2245 17.7181 36.5697 17.8865 35.958L24.8334 10.7482C24.9168 10.4453 25.058 10.1621 25.2489 9.91477C25.4399 9.66744 25.6768 9.46085 25.9461 9.30679C26.2155 9.15274 26.512 9.05423 26.8187 9.01691C27.1254 8.97959 27.4364 9.00418 27.7338 9.08928L27.7322 9.09088ZM16.6636 15.5334C17.104 15.9825 17.3514 16.5912 17.3514 17.2259C17.3514 17.8606 17.104 18.4693 16.6636 18.9184L11.678 24.0006L16.6668 29.0812C17.1077 29.5305 17.3554 30.1398 17.3552 30.775C17.3551 31.4102 17.1071 32.0194 16.666 32.4685C16.2248 32.9176 15.6265 33.1698 15.0028 33.1696C14.379 33.1695 13.7809 32.917 13.3399 32.4677L6.68776 25.693C6.24736 25.244 6 24.6352 6 24.0006C6 23.3659 6.24736 22.7572 6.68776 22.3081L13.3383 15.5334C13.5567 15.3109 13.816 15.1343 14.1015 15.0139C14.3869 14.8934 14.6928 14.8314 15.0018 14.8314C15.3107 14.8314 15.6166 14.8934 15.9021 15.0139C16.1875 15.1343 16.4452 15.3109 16.6636 15.5334ZM30.5856 18.9184C30.3546 18.6991 30.1692 18.4347 30.0407 18.1409C29.9122 17.8471 29.8431 17.53 29.8375 17.2084C29.8319 16.8868 29.89 16.5674 30.0083 16.2692C30.1265 15.971 30.3026 15.7001 30.5259 15.4726C30.7492 15.2452 31.0152 15.0659 31.308 14.9455C31.6009 14.825 31.9145 14.7659 32.2303 14.7715C32.546 14.7772 32.8575 14.8476 33.1459 14.9785C33.4344 15.1094 33.694 15.2981 33.9093 15.5334L40.5615 22.3065C41.0023 22.7556 41.25 23.3647 41.25 23.9998C41.25 24.6348 41.0023 25.2439 40.5615 25.693L33.9109 32.4677C33.6925 32.6902 33.4333 32.8667 33.148 32.9871C32.8627 33.1075 32.5569 33.1696 32.248 33.1696C31.9392 33.1697 31.6333 33.1078 31.3479 32.9875C31.0626 32.8672 30.8033 32.6909 30.5848 32.4685C30.3664 32.2461 30.1931 31.9821 30.0748 31.6916C29.9566 31.401 29.8956 31.0895 29.8956 30.775C29.8955 30.4605 29.9563 30.149 30.0744 29.8584C30.1925 29.5677 30.3657 29.3036 30.584 29.0812L35.5727 24.0006L30.5856 18.9184Z" fill="#F0F2F4" fill-opacity="0.8"/>
</svg>
