<svg width="19" height="13" viewBox="0 0 19 13" fill="none" xmlns="http://www.w3.org/2000/svg">
<path d="M18 0.00581967C17.9199 -0.00193989 17.8392 -0.00193989 17.7592 0.00581967H1.31133C1.20592 0.00734731 1.1012 0.0222132 1 0.0500169L9.48825 8L18 0.00581967Z" fill="#4A7198"/>
<path d="M18.9288 1L10.2837 8.69571C10.0613 8.89341 9.76028 9.00438 9.44656 9.00438C9.13284 9.00438 8.83187 8.89341 8.60938 8.69571L0.0415625 1.05838C0.0152234 1.14491 0.00125797 1.23408 0 1.32375V11.9385C0 12.22 0.125111 12.49 0.347811 12.6891C0.57051 12.8882 0.872555 13 1.1875 13H17.8125C18.1274 13 18.4295 12.8882 18.6522 12.6891C18.8749 12.49 19 12.22 19 11.9385V1.32375C18.9953 1.21317 18.9712 1.10394 18.9288 1ZM2.00094 11.9385H1.17563V11.1796L5.49219 7.35294L6.32937 8.10128L2.00094 11.9385ZM17.8006 11.9385H16.9694L12.6409 8.10128L13.4781 7.35294L17.7947 11.1796L17.8006 11.9385Z" fill="#4A7198"/>
</svg>
