<svg width="48" height="48" viewBox="0 0 48 48" fill="none" xmlns="http://www.w3.org/2000/svg">
<path d="M32.0014 32.662C32.1116 32.6688 32.2304 32.6825 32.3492 32.6825C34.0312 32.6842 35.7149 32.6739 37.3969 32.691C37.7653 32.6944 37.8755 32.5696 37.8566 32.219C37.8325 31.7624 37.8514 31.304 37.8514 30.7397C39.7607 32.1352 41.6062 33.4829 43.5 34.8681C41.62 36.2431 39.7744 37.5925 37.8514 39C37.8514 38.4681 37.8514 38.0286 37.8514 37.5891C37.8514 37.0213 37.8514 37.0196 37.2953 37.0196C26.5404 37.0196 15.7838 37.0196 5.02897 37.0196C4.50904 37.0196 4.50904 37.0196 4.50904 36.4997C4.50904 35.3726 4.52453 34.2456 4.50043 33.1203C4.49182 32.7543 4.61061 32.6722 4.96354 32.6739C10.7464 32.6842 16.5293 32.6927 22.3122 32.6773C25.2768 32.6688 27.6165 31.4494 29.1642 28.9115C31.9566 24.3281 29.0454 18.3252 23.6946 17.5522C19.5628 16.9554 15.7219 19.7105 15.0212 23.8851C14.9471 24.3195 14.942 24.7659 14.8989 25.2892C15.5755 25.1986 16.1884 25.1148 16.8822 25.0224C15.7959 27.1089 14.7474 29.1235 13.6835 31.1655C12.0531 29.4963 10.4469 27.8528 8.87676 26.2452C9.27101 26.1802 9.79437 26.105 10.3126 25.9972C10.4107 25.9767 10.5553 25.8194 10.5519 25.7287C10.5226 24.6359 10.5984 23.5551 10.8136 22.4828C10.8205 22.4503 10.805 22.4126 10.7946 22.3494C9.74445 22.1715 8.77002 21.7953 7.88683 21.1898C5.72794 19.7054 4.59856 16.9434 5.12882 14.426C5.70556 11.6828 7.7887 9.63222 10.4813 9.126C12.227 8.79935 13.8453 9.11061 15.3483 10.0273C15.6134 10.1898 15.7752 10.2137 15.9491 9.93151C16.0507 9.76562 16.2039 9.63222 16.3795 9.43042C16.5982 10.306 16.803 11.1252 17.0062 11.9444C17.0751 12.2198 17.1284 12.5003 17.2093 12.7722C17.2971 13.0663 17.2076 13.198 16.8943 13.1775C15.9887 13.1159 15.0814 13.0612 14.1759 13.0013C13.9521 12.986 13.73 12.962 13.4425 12.9346C13.6663 12.6542 13.8694 12.4028 14.0915 12.1274C13.6026 11.758 13.0637 11.5733 12.5025 11.4827C9.78921 11.0414 7.3979 13.1125 7.45299 15.8403C7.49431 17.9336 9.27101 19.8046 11.3696 19.9824C11.6417 20.0047 11.7363 19.8678 11.8414 19.666C13.3288 16.8305 15.5686 14.8261 18.6159 13.7829C25.6659 11.3681 33.0257 15.6949 34.3841 22.7769C35.0538 26.264 34.2911 29.4485 32.1615 32.3028C32.103 32.3815 32.0496 32.4653 31.9979 32.5491C31.9876 32.5645 32.0014 32.5953 32.01 32.6602L32.0014 32.662Z" fill="#F0F2F4" fill-opacity="0.8"/>
</svg>
