<svg width="48" height="48" viewBox="0 0 48 48" fill="none" xmlns="http://www.w3.org/2000/svg">
<path d="M13.5 41.25C12.0938 41.25 10.7031 40.9062 9.32813 40.2188C7.95313 39.5312 6.84375 38.625 6 37.5C6.8125 37.5 7.64063 37.1794 8.48438 36.5381C9.32812 35.8969 9.75 34.9675 9.75 33.75C9.75 32.1875 10.2969 30.8594 11.3906 29.7656C12.4844 28.6719 13.8125 28.125 15.375 28.125C16.9375 28.125 18.2656 28.6719 19.3594 29.7656C20.4531 30.8594 21 32.1875 21 33.75C21 35.8125 20.2656 37.5781 18.7969 39.0469C17.3281 40.5156 15.5625 41.25 13.5 41.25ZM24.2812 30L19.125 24.8438L37.2188 6.75L42.375 11.9062L24.2812 30Z" fill="#F0F2F4" fill-opacity="0.8"/>
</svg>
