<svg width="48" height="48" viewBox="0 0 48 48" fill="none" xmlns="http://www.w3.org/2000/svg">
<path d="M8.7742 15.943C9.2707 14.78 9.98661 13.7261 10.8819 12.8404C11.7778 11.9519 12.8341 11.2459 13.9933 10.7607C15.1954 10.2556 16.4847 9.997 17.7863 10C19.6125 10 21.3942 10.5059 22.9425 11.4614C23.3129 11.69 23.6648 11.941 23.9982 12.2146C24.3315 11.941 24.6834 11.69 25.0538 11.4614C26.6022 10.5059 28.3839 10 30.21 10C31.525 10 32.7992 10.2548 34.003 10.7607C35.1661 11.2478 36.2144 11.9485 37.1145 12.8404C38.0109 13.7251 38.727 14.7793 39.2221 15.943C39.737 17.1533 40 18.4386 40 19.7613C40 21.0091 39.7481 22.3093 39.2481 23.6321C38.8295 24.7375 38.2294 25.8841 37.4627 27.042C36.2477 28.8743 34.5772 30.7854 32.5028 32.7226C29.0654 35.9339 25.6613 38.1522 25.5169 38.2421L24.639 38.8117C24.25 39.0628 23.75 39.0628 23.3611 38.8117L22.4832 38.2421C22.3387 38.1485 18.9383 35.9339 15.4972 32.7226C13.4229 30.7854 11.7523 28.8743 10.5374 27.042C9.77061 25.8841 9.16684 24.7375 8.75198 23.6321C8.25192 22.3093 8.00004 21.0091 8.00004 19.7613C7.99633 18.4386 8.25933 17.1533 8.7742 15.943V15.943Z" fill="#E0E6EB" fill-opacity="0.9"/>
</svg>
