<?xml version="1.0" encoding="UTF-8" standalone="no"?>
<!-- Created with Inkscape (http://www.inkscape.org/) -->

<svg
   width="93.133286mm"
   height="136.18811mm"
   viewBox="0 0 93.133286 136.18811"
   version="1.1"
   id="svg1"
   xml:space="preserve"
   xmlns="http://www.w3.org/2000/svg"
   xmlns:svg="http://www.w3.org/2000/svg"><defs
     id="defs1" /><g
     id="layer1"
     transform="translate(-70.687171,-137.25518)"><path
       d="m 146.35947,270.99521 c 8.4e-4,-1.34607 0.122,-3.16178 0.26923,-4.0349 0.4388,-2.60213 0.33934,-10.17054 -0.18775,-14.2875 -0.28612,-2.23473 -0.47537,-5.44477 -0.47707,-8.0919 l -0.003,-4.38773 -1.94637,1.9656 c -2.91703,2.94583 -4.54236,3.35164 -6.50879,1.6251 -1.86316,-1.63588 -2.23804,-5.27231 -0.88744,-8.60834 l 0.65677,-1.62226 -0.77058,-0.45519 c -1.1913,-0.70372 -1.78625,-1.89854 -1.78739,-3.58956 -5.4e-4,-0.80764 -0.13444,-1.60189 -0.29753,-1.76498 -0.21806,-0.21806 -0.21944,-0.73428 -0.005,-1.95039 0.24457,-1.38847 0.43762,-1.77443 1.20313,-2.40543 0.5015,-0.41338 1.04825,-1.165 1.21501,-1.67027 0.39297,-1.19073 1.42031,-1.98529 2.56691,-1.98529 1.09784,0 1.78853,0.33231 2.92349,1.40657 0.47294,0.44765 0.8599,0.67976 0.8599,0.5158 0,-0.16396 -0.72327,-2.46501 -1.60727,-5.11344 -1.77633,-5.32182 -3.40228,-9.29449 -4.84979,-11.84945 -1.07538,-1.89811 -1.19754,-2.3322 -0.38375,-1.36364 l 0.55577,0.66145 -0.39548,-0.66145 c -0.21752,-0.36381 -0.51288,-0.66146 -0.65637,-0.66146 -0.14349,0 -0.97937,-0.9525 -1.85752,-2.11667 -1.80279,-2.38997 -7.53907,-8.73023 -8.08977,-8.94156 -0.29341,-0.11259 -0.39292,0.82468 -0.53364,5.02642 l -0.17298,5.16482 1.30138,1.42391 c 1.6633,1.81992 1.97809,2.78667 1.80592,5.54625 -0.16182,2.59388 -0.95692,4.56023 -2.44608,6.0494 -0.89062,0.89061 -1.09425,0.97677 -1.95268,0.82618 -0.5271,-0.0925 -1.41677,-0.15949 -1.97703,-0.14895 -2.07781,0.0391 -4.11153,-3.0571 -4.21649,-6.41933 -0.024,-0.7703 0.22792,-1.66285 0.8089,-2.86536 0.78271,-1.62007 1.45427,-2.41382 3.70369,-4.37753 l 0.86494,-0.75508 0.006,-5.9393 c 0.006,-5.57012 -0.0275,-5.98471 -0.5342,-6.67001 -0.29714,-0.4019 -0.54025,-0.86618 -0.54025,-1.03175 0,-0.16556 -0.77391,-1.10265 -1.71979,-2.08241 -1.62962,-1.688 -2.12487,-2.39448 -1.38906,-1.98152 0.1819,0.10208 -0.26011,-0.42667 -0.98224,-1.17501 -1.26927,-1.31534 -1.67418,-1.64831 -1.33287,-1.09604 0.38529,0.62341 -0.20175,0.1774 -1.21887,-0.92605 -0.60361,-0.65484 -1.18524,-1.19062 -1.29251,-1.19062 -0.15816,0 -2.11883,3.77937 -2.11883,4.08423 0,0.0481 0.74414,0.13528 1.65365,0.19374 2.05533,0.1321 3.5829,0.85166 5.57245,2.62492 1.69959,1.51482 2.2989,2.47241 2.2989,3.67322 0,1.16328 -1.76036,2.97366 -3.93022,4.04187 -1.50055,0.73872 -2.02606,0.85966 -3.73659,0.85988 -1.09476,1.5e-4 -2.4072,-0.0951 -2.91652,-0.21174 l -0.92604,-0.21201 0.71976,0.65559 c 0.39587,0.36058 0.59574,0.69694 0.44414,0.74747 -0.18817,0.0627 -0.17765,0.48095 0.0332,1.31818 0.28391,1.1275 0.25584,1.31883 -0.34842,2.37495 -0.4531,0.79194 -0.69775,1.70002 -0.78776,2.92406 -0.2289,3.11267 -2.0514,5.21161 -4.54142,5.23025 -2.8415,0.0213 -6.296859,-4.00858 -6.688179,-7.80016 -0.12606,-1.22142 -0.21139,-1.40695 -0.52669,-1.14527 -0.26621,0.22093 -0.35852,0.8018 -0.31559,1.9859 0.0334,0.9205 -0.0187,1.75302 -0.11573,1.85004 -0.20504,0.20504 -0.24241,-0.14559 -0.18096,-1.69772 0.0245,-0.61847 -0.023,-1.12448 -0.10546,-1.12448 -0.0825,0 -0.68952,0.41183 -1.34895,0.91518 -1.50949,1.15223 -2.63698,1.36515 -5.23303,0.98826 -3.51489,-0.51029 -4.42051,-1.43261 -4.42051,-4.50202 0,-2.15241 0.59565,-3.79374 1.99773,-5.5048 0.99501,-1.21426 3.02103,-2.79364 4.51731,-3.52144 l 0.95518,-0.46461 -0.92165,-0.56962 c -0.9336,-0.57699 -2.08437,-2.07174 -2.42764,-3.15328 -0.25545,-0.80488 -0.58941,-0.74334 -1.07637,0.19834 -0.76117,1.47193 -1.99063,2.6494 -2.76638,2.6494 -0.79978,0 -1.30162,-0.46137 -2.00027,-1.83894 l -0.46299,-0.91291 -0.65122,0.75709 c -0.64656,0.75167 -0.65475,0.83219 -0.29407,2.89233 0.0482,0.27538 -0.0612,0.55319 -0.24307,0.61736 -0.23344,0.0823 -0.33073,-0.24003 -0.33073,-1.096 v -1.21268 h -1.01732 c -0.67726,0 -1.17552,-0.1748 -1.49057,-0.52292 -0.55704,-0.61553 -0.98134,-0.45387 -0.91803,0.34976 0.078,0.98978 -0.003,1.2315 -0.41053,1.2315 -0.51998,0 -0.50148,-0.21328 0.13229,-1.52503 0.83306,-1.72425 0.64046,-2.95023 -0.28863,-1.83716 -0.32865,0.39374 -0.49039,0.46152 -0.49632,0.20802 -0.005,-0.20682 0.17287,-0.57679 0.39491,-0.82214 0.36302,-0.40113 0.35635,-0.50407 -0.0661,-1.02117 -0.4391,-0.53743 -0.50883,-0.54758 -1.06517,-0.15505 -0.32742,0.23102 -0.59531,0.65141 -0.59531,0.9342 0,0.33777 -0.18154,0.51416 -0.52917,0.51416 -0.35278,0 -0.52917,-0.17639 -0.52917,-0.52917 0,-0.29104 0.16541,-0.52916 0.36757,-0.52916 0.20216,0 0.6318,-0.21397 0.95476,-0.47549 0.57426,-0.465 0.57782,-0.50309 0.1616,-1.72903 -0.56229,-1.65619 -0.53644,-3.03442 0.0757,-4.03832 l 0.49935,-0.81888 -2.09604,-0.60566 c -3.30688,-0.95554 -5.25463,-2.53505 -5.25463,-4.26118 0,-2.00136 1.75024,-4.52402 3.841,-5.53615 1.55525,-0.75288 3.69954,-1.31429 5.02254,-1.31499 1.30395,-6.8e-4 3.56748,1.01965 4.25278,1.91704 0.44936,0.58842 0.75252,0.68171 2.56024,0.78782 l 2.05052,0.12036 0.0335,-1.34932 0.0335,-1.34933 0.21594,1.66228 c 0.11877,0.91425 0.28557,1.88163 0.37066,2.14973 0.18928,0.59638 3.02547,2.3885 3.73092,2.35748 0.28059,-0.0123 0.70353,0.06 0.93987,0.16071 0.2847,0.12134 0.7311,-0.0924 1.32291,-0.63336 0.49127,-0.44907 1.32416,-0.93271 1.85087,-1.07475 1.40706,-0.37945 2.2017,-1.12289 2.8797,-2.69415 0.541169,-1.25414 0.573869,-1.54924 0.316169,-2.85398 -0.158079,-0.80036 -0.371529,-2.05008 -0.474349,-2.77716 -0.14384,-1.01723 -0.23445,-1.2002 -0.3931,-0.79375 -0.20587,0.52744 -0.2062,0.52744 -0.22881,-9.6e-4 -0.0125,-0.29104 -0.14769,-0.70776 -0.30052,-0.92604 -0.22283,-0.31828 -0.2477,-0.28844 -0.12556,0.1507 0.0838,0.30117 -0.0272,1.01554 -0.2465,1.5875 -0.36902,0.96224 -0.38741,0.97569 -0.24624,0.18003 0.27006,-1.52208 -0.40761,-0.95831 -1.38132,1.14916 -0.51053,1.10498 -0.97982,1.95747 -1.04286,1.89443 -0.063,-0.063 0.54101,-1.4939 1.34234,-3.17971 1.5743,-3.31199 1.59442,-3.36961 1.17675,-3.36961 -0.15411,0 -0.20479,0.12202 -0.11263,0.27114 0.0922,0.14913 0.0376,0.23842 -0.12115,0.19844 -0.1588,-0.04 -0.70074,0.58214 -1.20432,1.38251 -0.50357,0.80036 -0.91828,1.36019 -0.92156,1.24406 -0.003,-0.11613 0.41074,-0.86259 0.92006,-1.65879 0.95161,-1.48759 1.10563,-1.84416 0.68406,-1.58362 -0.13309,0.0823 -0.2951,-10e-6 -0.36002,-0.18282 -0.12137,-0.34177 -2.97038,2.37635 -3.53415,3.37179 -0.16484,0.29104 -0.39598,0.43693 -0.51367,0.32418 -0.24605,-0.23572 2.16291,-2.79124 3.70957,-3.93524 2.6449,-1.95632 0.16384,-1.68443 -2.76238,0.30273 -3.2524,2.20866 -4.44638,3.64378 -5.00532,6.0162 -0.18755,0.79606 -0.24006,0.85799 -0.2613,0.30817 -0.0338,-0.8753 0.44125,-2.28249 1.08062,-3.20097 l 0.4971,-0.7141 -1.39746,-0.88544 c -0.7686,-0.48699 -1.84165,-1.1562 -2.38455,-1.48714 -0.70193,-0.42787 -1.0637,-0.88301 -1.25229,-1.57546 -0.92727,-3.40475 -0.89307,-3.68283 0.61589,-5.00772 2.28516,-2.00639 4.63318,-2.73295 6.83698,-2.11558 l 0.71557,0.20045 -0.51133,-1.1265 c -0.55635,-1.22569 -0.67804,-2.31712 -0.25836,-2.31712 0.14552,0 0.26458,0.44861 0.26458,0.99691 0,1.30626 0.91948,2.63793 2.70046,3.91106 0.77032,0.55066 1.90063,1.4765 2.51179,2.05743 0.94111,0.89454 1.10483,0.97159 1.06956,0.50332 -0.0229,-0.30409 -0.13464,-0.49543 -0.24828,-0.42519 -0.11365,0.0702 -0.12823,-0.0766 -0.0324,-0.32632 0.10022,-0.26117 0.0668,-0.38764 -0.0786,-0.29775 -0.13907,0.0859 -0.25285,-0.0731 -0.25285,-0.35347 0,-0.65928 -4.3e-4,-0.65951 0.6714,0.35016 0.34422,0.51729 0.51738,0.64906 0.43462,0.33072 -0.0757,-0.29104 -0.036,-0.94588 0.0882,-1.4552 l 0.225749,-0.92605 0.0271,0.97658 c 0.0343,1.23521 0.55473,1.63288 0.5603,0.4281 0.002,-0.53971 0.0852,-0.74775 0.21552,-0.54241 0.13677,0.21544 0.37376,-0.18175 0.67093,-1.12448 0.2527,-0.80167 0.58518,-1.45758 0.73883,-1.45758 0.16293,0 0.19923,0.19299 0.0871,0.46302 -0.54499,1.31233 -1.714,4.72662 -1.69781,4.95877 0.0102,0.14671 0.12092,0.0286 0.24598,-0.26241 0.15161,-0.35281 0.2336,-0.3969 0.24603,-0.13229 0.0209,0.44557 2.54191,-3.36812 3.09885,-4.68786 0.49455,-1.1719 0.45521,-3.61799 -0.0748,-4.65185 -0.23875,-0.46571 -0.7216,-1.19115 -1.07299,-1.61207 -0.76107,-0.91169 -2.02355,-3.33286 -1.83578,-3.52063 0.0728,-0.0728 0.43136,0.45788 0.79688,1.17921 0.36553,0.72133 0.97048,1.67503 1.34433,2.11933 0.97127,1.15429 1.49545,2.56591 1.50701,4.0584 0.011,1.41565 0.16854,1.55745 0.86974,0.78263 0.94034,-1.03906 2.6593,-1.60466 4.87681,-1.60466 1.90918,0 2.27132,0.0913 4.20898,1.06112 1.16604,0.58362 2.19185,1.24821 2.27959,1.47685 0.30158,0.7859 0.15892,2.74455 -0.28208,3.87282 -1.08379,2.77285 -3.21523,4.69924 -5.79108,5.23398 l -1.42056,0.29491 0.9318,0.81813 c 1.78886,1.57064 2.54745,4.23924 1.88456,6.62958 -0.25336,0.91364 -1.87599,2.73802 -2.91149,3.27349 l -0.77668,0.40164 0.88909,0.59707 c 2.45578,1.64915 2.18138,1.60707 2.97855,0.45675 0.39201,-0.56567 0.85615,-1.60468 1.03144,-2.30891 0.35514,-1.42689 0.93556,-1.75664 2.49234,-1.41597 l 0.85073,0.18617 -0.15725,-1.14723 c -0.10528,-0.76811 -0.0148,-1.50318 0.27375,-2.22437 0.23705,-0.59244 0.43099,-1.54681 0.43099,-2.12083 0,-1.1765 0.47838,-1.59145 1.83469,-1.59145 0.44613,0 0.81115,-0.12448 0.81115,-0.27661 0,-0.15214 0.29224,-0.56886 0.64943,-0.92605 0.85095,-0.85094 1.99018,-0.84313 3.01677,0.0207 1.02024,0.85847 1.44645,2.1505 1.2161,3.68653 -0.0989,0.65978 -0.0943,1.1996 0.0104,1.1996 0.10466,0 0.56466,-0.31613 1.02223,-0.70251 1.53372,-1.29511 3.29951,-1.93794 5.32986,-1.94032 3.12791,-0.004 4.73197,1.24358 4.73197,3.67942 0,1.86718 -1.0978,3.55456 -3.19867,4.91653 -0.89788,0.58208 -1.63995,1.11873 -1.64905,1.19255 -0.0303,0.24593 2.3791,1.58557 2.85174,1.58557 0.25601,0 0.59792,-0.13245 0.75982,-0.29435 0.16189,-0.16189 0.45359,-0.23703 0.64822,-0.16698 0.21768,0.0784 0.0484,0.26318 -0.43986,0.48022 -0.43657,0.19406 -0.82404,0.36894 -0.86105,0.38861 -0.037,0.0197 0.098,0.38252 0.3001,0.80632 0.46583,0.977 0.78206,5.53417 0.42971,6.19253 -0.41358,0.7728 -2.78341,1.44998 -5.06196,1.44647 -1.11001,-0.002 -2.18157,-0.13426 -2.38125,-0.29454 -0.19968,-0.16029 -0.62473,-0.37158 -0.94455,-0.46955 -0.51114,-0.15657 -0.61793,-0.0404 -0.88264,0.95981 -0.16564,0.62586 -0.76138,1.6882 -1.32387,2.36075 l -1.02271,1.22283 1.11161,0.89005 c 0.61138,0.48953 1.78924,1.48707 2.61745,2.21675 3.34866,2.9503 3.98945,3.2139 6.7455,2.77487 2.18149,-0.34751 2.5157,-0.6097 1.46786,-1.15156 -0.43595,-0.22544 -1.11956,-0.79842 -1.51915,-1.2733 -0.69309,-0.82369 -0.72035,-0.96218 -0.59259,-3.00998 0.13154,-2.1085 0.39546,-2.96372 1.19879,-3.88468 0.45842,-0.52553 2.40898,-0.63905 3.24968,-0.18912 0.4759,0.25469 0.51188,0.17587 0.51325,-1.12448 0.002,-2.27916 0.4181,-3.25442 2.20806,-5.18031 0.90699,-0.97588 1.85519,-2.10174 2.10711,-2.50192 0.32919,-0.52291 0.67528,-0.7276 1.23024,-0.7276 0.62723,0 0.99307,0.28558 1.94887,1.52135 0.64718,0.83675 1.48412,1.80675 1.85987,2.15557 0.98898,0.91811 1.28974,2.05972 1.01097,3.83743 -0.23484,1.49753 -0.13921,1.87058 0.39226,1.53017 0.37826,-0.24228 1.41198,-2.3041 1.41198,-2.81627 0,-0.22408 0.17859,-0.40742 0.39687,-0.40742 0.21828,0 0.39688,0.17859 0.39688,0.39687 0,0.21829 -0.11665,0.39688 -0.25921,0.39688 -0.14256,0 -0.50217,0.47625 -0.79913,1.05833 -0.63783,1.25027 -0.50477,1.29453 1.65638,0.55099 2.63126,-0.90529 3.51352,-0.8243 4.08545,0.37505 0.49916,1.04676 0.57183,1.07715 1.28521,0.53759 0.58079,-0.43929 0.91046,-0.50762 0.91046,-0.18871 0,0.11912 -0.37741,0.39532 -0.8387,0.61378 l -0.8387,0.3972 1.16943,0.78396 c 0.66271,0.44427 1.20495,1.02963 1.2514,1.35091 0.13458,0.93085 -1.00882,3.28302 -2.37457,4.88491 -0.7036,0.82525 -1.27927,1.61404 -1.27927,1.75286 0,0.13882 -0.32743,0.32416 -0.72761,0.41186 -0.40018,0.0877 -1.02526,0.39759 -1.38906,0.68864 l -0.66146,0.5292 0.8599,0.006 c 0.47294,0.003 0.85989,0.13768 0.85989,0.29877 0,0.16109 -0.17014,0.22761 -0.37808,0.14781 -0.20795,-0.0798 -0.83303,-0.21713 -1.38907,-0.30519 l -1.01097,-0.1601 0.79375,0.44707 c 0.43656,0.24589 1.21047,0.80498 1.71979,1.24241 1.06921,0.9183 3.70417,4.30715 3.70417,4.76398 0,0.1697 -0.31597,-0.16557 -0.70216,-0.74505 -1.3112,-1.96751 -3.04213,-3.83294 -4.1698,-4.4938 -1.28158,-0.75105 -3.42411,-1.15095 -3.70773,-0.69203 -0.10054,0.16267 -0.0795,0.29576 0.0468,0.29576 0.1263,0 0.46075,0.18367 0.74322,0.40815 0.28248,0.22449 -0.10753,0.10542 -0.86667,-0.26458 -1.43818,-0.70096 -2.06686,-0.84846 -1.80408,-0.42327 0.0848,0.1372 -0.38443,-0.0516 -1.04272,-0.4195 -0.65829,-0.36792 -1.19689,-0.57849 -1.19689,-0.46792 0,0.11057 -0.29719,-0.0782 -0.66042,-0.4194 -0.36323,-0.34123 -0.73511,-0.54573 -0.82641,-0.45443 -0.0913,0.0913 1.70177,2.01662 3.98461,4.27848 2.28283,2.26186 4.02863,4.11247 3.87955,4.11247 -0.14908,0 -0.42458,-0.19238 -0.61221,-0.42751 -0.18764,-0.23513 -1.39214,-1.44988 -2.67666,-2.69945 -2.20811,-2.14802 -3.32443,-2.89666 -2.97968,-1.99826 0.0922,0.24015 0.0383,0.32131 -0.14016,0.21104 -0.19453,-0.12022 -0.23451,0.0276 -0.12153,0.44928 0.0926,0.34564 -0.14231,0.0486 -0.52202,-0.66005 -0.5159,-0.96285 -0.61419,-1.36406 -0.38892,-1.5875 0.22476,-0.22294 0.26091,-0.19244 0.14209,0.11992 -0.10271,0.27003 -0.0142,0.41892 0.24891,0.41892 0.22455,0 0.40826,-0.0846 0.40826,-0.18809 0,-0.30476 -0.62748,-0.71056 -1.08531,-0.70189 -0.37245,0.007 -0.38441,0.13912 -0.0986,1.08884 1.34908,4.48266 4.75504,8.85153 7.57427,9.71562 0.87997,0.26971 1.09587,0.22214 2.41346,-0.53171 0.86497,-0.49489 1.82015,-0.82791 2.37462,-0.82791 1.08734,0 1.53707,-0.44977 1.7996,-1.7998 l 0.19026,-0.97832 0.0304,1.08347 c 0.0379,1.34946 -0.47633,1.84717 -2.08624,2.01918 -0.67684,0.0723 -1.63471,0.42936 -2.21973,0.82739 -0.56601,0.38509 -1.33209,0.70017 -1.7024,0.70017 -1.24335,0 -2.9288,-1.08408 -4.79906,-3.08673 l -1.85696,-1.98842 -0.26718,0.70271 c -0.14694,0.3865 -0.26717,0.81623 -0.26717,0.95497 0,0.13874 -0.42304,1.56085 -0.94009,3.16024 -0.73117,2.26175 -1.10358,3.02886 -1.67576,3.4519 l -0.73568,0.54391 0.71517,2.03331 c 1.06252,3.02089 1.14048,3.31179 0.8373,3.12442 -0.16324,-0.10089 -0.21175,0.0503 -0.12393,0.3861 0.11106,0.42471 0.19869,0.47053 0.38024,0.19881 0.14994,-0.22443 0.17697,-0.0639 0.0742,0.44065 -0.12928,0.6345 -0.10031,0.71412 0.1444,0.39688 0.27211,-0.35278 0.29409,-0.35278 0.19779,0 -0.12407,0.45449 -0.88629,0.55055 -0.80355,0.10126 0.0299,-0.16258 -0.26412,-0.5793 -0.65346,-0.92604 -0.40032,-0.35652 -0.54429,-0.41805 -0.33135,-0.14161 0.20709,0.26886 0.41207,0.72168 0.4555,1.00628 0.0973,0.63735 0.7819,1.99001 1.10977,2.19265 0.13298,0.0822 0.18201,-0.0791 0.10896,-0.35853 -0.0731,-0.27937 -0.0178,-0.71343 0.12269,-0.96456 0.20577,-0.36769 0.37098,-0.10969 0.84837,1.32486 0.32606,0.97981 0.69102,1.68159 0.81102,1.55952 0.12,-0.12208 0.5896,-0.97267 1.04355,-1.89022 1.01399,-2.04953 1.63588,-2.69736 2.58934,-2.69736 1.1736,0 1.8229,0.64616 2.1892,2.17862 0.18317,0.76629 0.73128,2.5775 1.21802,4.02493 0.98193,2.91993 1.05686,3.7246 0.51464,5.52627 l -0.37036,1.23059 1.05965,-0.90702 c 2.13422,-1.82681 4.02413,-2.31254 6.35797,-1.63408 1.80507,0.52476 4.17101,2.58699 4.17101,3.63561 0,0.97828 -1.52388,2.59675 -3.57372,3.79554 l -1.79282,1.04849 0.89733,0.22853 c 1.13146,0.28815 1.61479,0.71627 0.80865,0.71627 -0.32527,0 -0.884,-0.19172 -1.24162,-0.42604 -0.67064,-0.43943 -1.97699,-0.32941 -1.97699,0.16649 0,0.14275 0.0963,0.25955 0.21401,0.25955 0.11771,0 0.44513,0.17859 0.72761,0.39687 0.35785,0.27653 0.16991,0.24806 -0.61983,-0.0939 -1.06903,-0.46289 -2.43846,-0.48442 -2.43846,-0.0383 0,0.30685 1.98122,2.03298 2.84774,2.48107 0.85594,0.44262 1.53706,1.15977 1.31367,1.38316 -0.23858,0.23858 -1.25099,-0.41094 -1.25099,-0.80258 0,-0.1976 -0.19212,-0.43298 -0.42693,-0.52309 -0.36418,-0.13975 -0.40004,-0.0175 -0.24399,0.83159 0.13279,0.72259 0.10307,0.91757 -0.10844,0.71141 -0.16025,-0.1562 -0.33978,-0.53543 -0.39896,-0.84273 -0.0592,-0.30729 -0.23624,-0.79908 -0.39347,-1.09287 -0.31265,-0.58419 -3.05685,-1.97923 -4.48531,-2.28015 -0.79092,-0.16662 -0.85388,-0.14171 -0.52917,0.20932 0.20271,0.21914 0.47625,0.333 0.60788,0.25303 0.13551,-0.0823 0.14537,0.007 0.0227,0.20503 -0.16232,0.26263 -0.0917,0.30252 0.28179,0.15919 0.27409,-0.10518 0.41017,-0.10306 0.30239,0.005 -0.22318,0.22317 2.00126,1.68408 2.56426,1.68408 0.20314,0 0.43788,0.17859 0.52164,0.39688 0.19889,0.51829 -0.45826,0.51953 -0.88804,0.002 -0.2992,-0.36053 -2.9434,-1.98606 -3.23065,-1.98606 -0.0672,0 -0.12213,0.18148 -0.12213,0.40328 0,0.39785 2.38981,2.62 4.0958,3.80844 0.51261,0.35711 0.81887,0.76143 0.73745,0.9736 -0.0766,0.19957 0.0944,0.48793 0.38008,0.64079 0.28562,0.15286 0.51477,0.42256 0.50922,0.59935 -0.006,0.17678 -0.62059,-0.33343 -1.36677,-1.13379 -0.74617,-0.80037 -1.48577,-1.46062 -1.64355,-1.46724 -0.15779,-0.007 -0.25712,-0.15544 -0.22074,-0.33073 0.0364,-0.17528 -0.0302,-0.3187 -0.14797,-0.3187 -0.11777,0 -0.84007,-0.60333 -1.60511,-1.34073 -1.08496,-1.04577 -1.32608,-1.41895 -1.09595,-1.69624 0.217,-0.26146 0.217,-0.40374 1e-5,-0.53784 -0.16227,-0.10029 -0.36649,-0.11089 -0.45382,-0.0236 -0.0873,0.0873 0.003,0.15879 0.20046,0.15879 0.23095,0 0.17582,0.13567 -0.15434,0.37987 -0.49395,0.36534 -0.46806,0.42848 0.67704,1.65111 0.65484,0.69919 0.8148,0.93335 0.35545,0.52036 -0.45934,-0.41298 -0.93559,-0.73927 -1.05833,-0.72507 -0.12274,0.0142 -0.22618,-0.0635 -0.22987,-0.17263 -0.004,-0.10914 -0.45996,-0.67468 -1.01394,-1.25677 l -1.00724,-1.05833 0.55254,1.11712 c 0.72422,1.4642 1.98924,2.88413 3.31522,3.72119 0.65325,0.41237 0.92985,0.72074 0.71173,0.79345 -0.19624,0.0654 -1.04464,-0.56174 -1.88534,-1.39367 -0.93565,-0.92588 -1.59828,-1.39976 -1.70833,-1.2217 -0.0989,0.16 -0.10621,0.40996 -0.0163,0.55548 0.0899,0.14552 0.10077,0.26459 0.0241,0.26459 -0.0767,0 -0.31709,-0.32742 -0.53419,-0.72761 -0.23095,-0.42571 -0.40685,-0.56293 -0.42392,-0.33073 -0.0204,0.27765 -0.10395,0.23791 -0.27802,-0.13229 -0.1817,-0.3864 -0.20802,-0.24364 -0.0975,0.52917 0.56981,3.98611 1.89855,5.49535 4.80753,5.46061 0.78969,-0.009 1.97391,0.16555 2.63159,0.38884 0.65768,0.22329 1.3633,0.3417 1.56803,0.26313 0.54271,-0.20825 0.517,-3.41411 -0.031,-3.86893 -0.43487,-0.36091 -0.34012,-0.59368 0.27864,-0.6845 0.21407,-0.0314 0.38922,0.1227 0.38922,0.34248 0,0.21978 0.36977,0.74503 0.82173,1.16722 0.45195,0.42218 0.72921,0.76761 0.61614,0.76761 -0.11307,0 -0.42332,-0.19705 -0.68944,-0.43789 -0.45818,-0.41465 -0.48393,-0.3971 -0.48533,0.33073 -8.1e-4,0.42274 -0.12878,1.22709 -0.28437,1.78744 -0.27577,0.99317 -0.30739,1.01467 -1.2553,0.85346 -0.53481,-0.0909 -1.99004,-0.25177 -3.23384,-0.35736 -1.44416,-0.12261 -2.51988,-0.36154 -2.97656,-0.66113 l -0.71512,-0.46912 0.0172,2.05663 c 0.009,1.13114 0.11238,5.03318 0.22873,8.67121 0.28336,8.86025 -0.0494,12.75961 -1.73879,20.37291 -0.8066,3.63511 -0.86805,3.83646 -1.17079,3.83646 -0.13571,0 -0.24606,-1.10133 -0.24522,-2.44739 z m -4.34071,-27.40716 c 2.07118,-1.50617 4.32153,-4.50198 5.27034,-7.01621 0.39447,-1.04528 0.42444,-1.38073 0.16105,-1.80249 -0.17799,-0.285 -0.25063,-0.77863 -0.16142,-1.09695 0.128,-0.45673 0.10361,-0.49508 -0.11566,-0.18189 -0.2262,0.32307 -0.27937,0.27388 -0.28597,-0.26459 -0.006,-0.53094 -0.0605,-0.58315 -0.27379,-0.26458 -0.14613,0.21828 -0.25233,0.87313 -0.236,1.45521 0.0485,1.72974 0.005,1.92234 -0.30924,1.38175 -0.19029,-0.3269 -0.18258,-0.90966 0.0253,-1.91092 0.37093,-1.78674 0.0195,-2.7798 -0.52151,-1.47369 -0.37902,0.91504 -0.69053,1.20568 -0.9106,0.8496 -0.0802,-0.12971 0.22419,-0.75673 0.67636,-1.39338 l 0.82212,-1.15753 -1.2855,1.19063 c -0.70702,0.65484 -1.04373,0.89297 -0.74823,0.52916 1.01442,-1.2489 1.30543,-1.68879 0.99346,-1.50168 -0.17185,0.10307 -0.38743,0.0661 -0.47908,-0.0822 -0.11262,-0.18222 -0.33534,-0.17932 -0.68715,0.009 -0.28629,0.15322 -0.46046,0.37575 -0.38706,0.49452 0.0734,0.11878 -0.13162,0.44022 -0.45561,0.71433 l -0.58907,0.49839 0.50403,-0.59532 c 0.69442,-0.82018 0.29323,-0.74572 -0.86283,0.16016 -1.34022,1.05017 -1.99841,1.3612 -2.88053,1.3612 -0.98018,0 -1.48646,0.40702 -2.17056,1.74502 -1.50971,2.95275 -1.31267,6.15511 0.49568,8.05609 0.8724,0.91707 1.14354,1.04681 2.18771,1.04681 0.89007,0 1.4532,-0.19001 2.22378,-0.75038 z m 0.0784,-12.01577 c 1.05988,-0.76399 2.18426,-1.53614 2.49862,-1.71589 0.54953,-0.31424 0.55117,-0.3277 0.0424,-0.34933 l -0.52916,-0.0225 0.52916,-0.22739 c 0.29105,-0.12506 0.70777,-0.23393 0.92605,-0.24193 0.35277,-0.0129 0.35277,0.0172 0,0.27094 -0.33007,0.23744 -0.3153,0.25903 0.0878,0.12824 0.26657,-0.0865 0.59025,-0.15725 0.7193,-0.15725 0.12905,0 0.17116,-0.16543 0.0936,-0.36763 -0.0832,-0.21681 -0.3783,-0.31856 -0.7193,-0.248 -0.56635,0.11717 -0.5657,0.11215 0.0316,-0.24475 l 0.60982,-0.36438 -0.74211,-0.34835 c -0.45549,-0.21381 -0.60849,-0.39652 -0.39614,-0.47308 0.21477,-0.0774 -0.0658,-0.42753 -0.73982,-0.92323 -0.59719,-0.43917 -1.02179,-0.86249 -0.94357,-0.94071 0.0782,-0.0782 -0.006,-0.32971 -0.18622,-0.55887 -0.26592,-0.33734 -0.18993,-0.32822 0.39917,0.0479 0.40018,0.2555 0.7276,0.3612 0.7276,0.23489 0,-0.52383 -2.12697,-3.46764 -2.97011,-4.11073 -1.86519,-1.42265 -3.34351,-1.17072 -4.15913,0.70878 -0.26394,0.60823 -0.7919,1.39452 -1.17324,1.7473 -0.8896,0.82299 -0.87334,0.94654 0.16655,1.26588 l 0.85989,0.26408 -0.77982,0.21286 c -0.525,0.14331 -0.81319,0.11276 -0.88194,-0.0935 -0.1919,-0.57569 -0.49892,-0.30743 -0.5578,0.48738 -0.12989,1.75355 0.0581,4.90915 0.34398,5.77294 0.32302,0.97615 1.6682,1.63327 3.34572,1.6344 1.35309,9.1e-4 1.62355,-0.1096 3.39718,-1.38807 z m 12.86223,-1.78196 c -0.0978,-0.15824 0.12987,-0.20738 0.57969,-0.12511 0.40742,0.0745 0.91935,0.0132 1.13764,-0.13627 0.35277,-0.24157 0.35277,-0.30226 0,-0.54617 -0.29267,-0.20235 -0.15249,-0.23238 0.5339,-0.11436 0.80767,0.13887 1.21011,-0.0207 3.04271,-1.20627 2.32802,-1.50609 3.02324,-2.2136 3.03209,-3.08571 0.008,-0.7935 -0.3827,-0.97175 -1.98789,-0.90681 -1.15836,0.0469 -1.69789,-0.11469 -3.43072,-1.02731 -1.13091,-0.59561 -2.21012,-1.04756 -2.39824,-1.00434 -0.32935,0.0757 -3.39089,2.93924 -4.4804,4.19069 l -0.52916,0.60783 0.52916,-0.18064 c 0.42791,-0.14607 0.40259,-0.0783 -0.13229,0.35426 -0.55609,0.4497 -0.41857,0.42584 0.86325,-0.14974 0.83859,-0.37655 1.67203,-0.62509 1.85209,-0.55231 0.18596,0.0752 0.12062,0.14136 -0.15126,0.15323 -0.26325,0.0115 -0.4136,0.12613 -0.3341,0.25476 0.0795,0.12863 -0.21368,0.38226 -0.65152,0.56362 -1.19949,0.49685 -1.18601,0.76844 0.0229,0.46158 0.74208,-0.18836 1.24609,-0.18508 1.65154,0.0108 0.51297,0.24777 0.43957,0.2878 -0.60709,0.33106 -1.10062,0.0455 -1.13063,0.0645 -0.39688,0.25119 0.74748,0.1902 0.72868,0.2038 -0.32242,0.23328 -0.87613,0.0246 -1.08343,0.11665 -0.96388,0.42818 0.0838,0.21828 0.46697,0.41068 0.85159,0.42756 0.5408,0.0237 0.58172,0.0606 0.18057,0.16242 -0.45127,0.1146 -0.41686,0.17663 0.26458,0.47699 0.93985,0.41425 2.06957,0.49244 1.84411,0.12763 z m -5.82017,-2.98054 c 0.22083,-0.47294 0.3416,-0.64535 0.26837,-0.38314 -0.0829,0.29687 -0.0258,0.4104 0.15146,0.30087 0.15653,-0.0967 0.2258,-0.40074 0.15393,-0.67556 -0.0719,-0.27482 -0.0227,-0.43295 0.10924,-0.3514 0.13195,0.0815 0.23991,0.0152 0.23991,-0.14754 0,-0.1627 0.10996,-0.22786 0.24435,-0.1448 0.65386,0.40411 2.1369,-3.32104 2.1369,-5.36751 0,-0.60509 -0.23056,-1.78525 -0.51236,-2.62258 -0.2818,-0.83732 -0.76273,-2.38442 -1.06875,-3.43799 -0.30601,-1.05357 -0.83696,-2.24177 -1.17989,-2.64045 -0.54593,-0.63468 -0.7166,-0.69212 -1.37184,-0.46169 -0.55675,0.1958 -0.86814,0.58585 -1.21629,1.52352 -0.69361,1.86811 -1.54501,6.91627 -1.54872,9.18275 -0.003,1.74764 0.60635,4.7625 0.96235,4.7625 0.0712,0 0.0813,-0.74414 0.0224,-1.65365 -0.0588,-0.9095 -0.0537,-1.29646 0.0115,-0.85989 0.0652,0.43656 0.22906,0.90685 0.36421,1.0451 0.13514,0.13824 0.2582,0.67403 0.27346,1.19062 l 0.0277,0.93928 0.32551,-1.05351 0.32551,-1.05351 0.18558,1.16056 c 0.2995,1.87295 0.50471,2.01308 1.09542,0.74802 z m -23.42821,-12.30313 c 1.20662,-1.21343 2.12612,-3.56247 2.12612,-5.43159 0,-1.14986 -0.15798,-1.60623 -0.95826,-2.7682 -0.52704,-0.76524 -1.05236,-1.39135 -1.16737,-1.39135 -0.11501,0 -0.29332,0.50601 -0.39625,1.12448 -0.2303,1.38373 -1.18025,3.99282 -1.38076,3.79231 -0.0807,-0.0807 -0.30682,-1.30297 -0.5024,-2.71607 -0.19557,-1.4131 -0.47501,-2.6887 -0.62097,-2.83466 -0.40314,-0.40313 -2.47684,0.71086 -3.27761,1.76073 -1.57869,2.06977 -1.76679,3.98955 -0.64612,6.59462 0.67551,1.57026 1.58017,2.33275 2.76772,2.33275 0.8793,0 0.89093,-0.0156 0.93658,-1.25677 l 0.0462,-1.25677 0.10425,1.18544 c 0.0574,0.65198 0.22972,1.33659 0.38305,1.52135 0.52584,0.6336 1.56556,0.36972 2.58579,-0.65627 z m -18.42243,-8.16855 c 1.24805,-0.59515 2.16785,-2.39361 2.41551,-4.72299 0.1241,-1.16723 0.38055,-2.07957 0.69795,-2.48308 0.91589,-1.16436 0.53719,-3.38569 -0.76337,-4.47774 -0.56213,-0.472 -0.60365,-0.56797 -0.19008,-0.43935 0.5215,0.16218 -0.7962,-1.14615 -2.82654,-2.80645 -0.89999,-0.73597 -0.99541,-0.76085 -1.24872,-0.32565 -0.19382,0.33299 -0.27663,0.36126 -0.28232,0.0964 -0.004,-0.20615 -0.0706,-0.3123 -0.14698,-0.23588 -0.0764,0.0764 0.0933,0.68064 0.37706,1.34273 0.2838,0.66208 0.45352,1.26627 0.37715,1.34263 -0.25331,0.25332 0.45786,1.96719 1.46428,3.5288 1.07967,1.67525 1.4502,2.46718 1.15329,2.46485 -0.10457,-8.2e-4 -0.90345,-1.35933 -1.77527,-3.0189 -0.87183,-1.65958 -1.6755,-2.96157 -1.78594,-2.89331 -0.11044,0.0683 -0.2008,-0.17085 -0.2008,-0.53134 0,-0.82415 -0.24963,-1.49246 -0.55747,-1.49246 -0.12995,0 -0.2381,0.74414 -0.24033,1.65365 -0.003,1.16531 -0.0798,1.53644 -0.26053,1.25677 -0.14107,-0.21828 -0.26013,-0.27782 -0.26459,-0.1323 -0.004,0.14553 -0.1159,0.0942 -0.24767,-0.11398 -0.17525,-0.27695 -0.28652,-0.0994 -0.41449,0.66146 -0.23993,1.42655 -0.3506,1.69113 -0.37528,0.89718 -0.0186,-0.59702 0.4282,-2.61329 0.90635,-4.09049 0.0942,-0.29104 -0.2658,0.18521 -0.80002,1.05833 -0.53421,0.87313 -0.88323,1.34938 -0.7756,1.05834 0.10764,-0.29104 0.20401,-0.72879 0.21416,-0.97276 0.0101,-0.24398 0.0865,-0.40155 0.16964,-0.35016 0.0831,0.0514 0.15119,-0.13131 0.15119,-0.406 0,-0.46523 -0.0328,-0.46975 -0.47898,-0.066 -0.26344,0.23841 -0.863,1.21326 -1.33237,2.16634 -0.770919,1.56541 -0.853379,1.96423 -0.853379,4.12701 0,1.792 0.12765,2.67771 0.50757,3.52159 0.299199,0.66461 0.583529,1.00452 0.692609,0.82803 0.1088,-0.17605 0.26245,0.0107 0.37292,0.45334 0.66237,2.65373 3.91411,4.24917 6.32105,3.10138 z m 30.21102,-3.41816 c -1.11693,-1.46326 -1.72497,-3.39812 -1.72497,-5.4891 0,-1.26778 -0.0741,-1.53934 -0.38737,-1.41913 -0.3493,0.13404 -1.46471,-1.046 -1.46471,-1.54959 0,-0.10188 -1.16086,-1.34511 -2.57969,-2.76273 -1.41883,-1.41762 -2.81431,-2.8908 -3.10106,-3.27374 -0.28676,-0.38293 -0.70068,-0.76504 -0.91982,-0.84913 -0.22121,-0.0849 -0.1159,0.14786 0.23677,0.52325 0.46327,0.49313 0.52814,0.67615 0.23967,0.67615 -0.21755,0 -1.87541,-1.43944 -3.68414,-3.19875 -1.80873,-1.75931 -3.61486,-3.36911 -4.01361,-3.57733 -1.02808,-0.53682 -1.7877,-2.17373 -1.79259,-3.86286 -0.002,-0.76978 -0.12909,-1.57819 -0.28191,-1.79647 -0.2115,-0.30208 -0.23301,-0.23938 -0.0901,0.2625 0.16789,0.58951 0.14168,0.62112 -0.24725,0.29834 -0.52131,-0.43265 -0.51832,-0.50043 -0.0547,1.24113 0.29931,1.12446 0.30486,1.3477 0.0278,1.11772 -0.25545,-0.212 -0.38382,-0.18948 -0.48949,0.0859 -0.1811,0.47194 0.55744,1.55642 0.91109,1.33785 0.14536,-0.0898 0.32537,0.0702 0.40001,0.35566 0.0747,0.28545 0.63218,0.79231 1.23897,1.12634 1.40149,0.77152 1.41171,0.78132 1.04871,1.00567 -0.18949,0.11711 0.65951,1.05294 2.25662,2.4874 3.75512,3.37271 9.0427,8.73553 9.0427,9.17139 0,0.14808 0.16409,0.36444 0.36464,0.48081 0.20055,0.11638 0.6768,0.67469 1.05833,1.2407 0.38153,0.56601 0.69369,0.88752 0.69369,0.71446 0,-0.59685 -0.82356,-1.90388 -2.28554,-3.62725 -0.80653,-0.95073 -1.39834,-1.79668 -1.31513,-1.87988 0.25041,-0.25041 3.14031,2.77672 2.94796,3.08795 -0.0979,0.15847 0.18388,0.74512 0.62627,1.30367 0.44238,0.55856 0.92696,1.3381 1.07685,1.73233 0.43991,1.15706 0.2748,1.17112 -0.24492,0.0209 l -0.47819,-1.05834 0.0454,1.07183 c 0.0252,0.59411 0.29062,1.41958 0.59555,1.85208 0.30258,0.42914 0.81747,1.31604 1.14421,1.97089 0.46828,0.93852 1.6584,2.31343 2.05296,2.37173 0.0354,0.005 -0.34841,-0.5313 -0.85297,-1.1923 z m 4.29724,0.6065 c 0.62529,-0.66686 1.88452,-3.92233 2.54594,-6.58199 l 0.43604,-1.75335 -0.79772,-1.68623 c -0.43874,-0.92743 -0.80968,-1.56718 -0.8243,-1.42166 -0.0146,0.14553 -0.12191,-0.0331 -0.23842,-0.39687 l -0.21183,-0.66146 -0.0264,0.72761 c -0.0145,0.40018 -0.14246,0.7276 -0.28434,0.7276 -0.14494,0 -0.18911,-0.34429 -0.10081,-0.78579 0.0864,-0.43218 0.065,-1.47398 -0.0477,-2.3151 -0.20447,-1.52618 -0.20537,-1.52742 -0.4394,-0.60328 -0.12898,0.50933 -0.2456,1.40229 -0.25917,1.98438 -0.0178,0.76463 -0.0627,0.87477 -0.16164,0.39687 l -0.13697,-0.66146 -0.21848,0.66146 c -0.14921,0.45175 -0.16622,0.32592 -0.0536,-0.39687 0.30953,-1.98702 0.34929,-3.46437 0.0819,-3.04134 -0.13752,0.21753 -0.25564,0.27644 -0.2625,0.13092 -0.007,-0.14552 -0.17643,-0.0483 -0.37683,0.21606 -0.2004,0.26435 -0.4645,0.45502 -0.5869,0.42371 -0.25808,-0.066 -1.47753,2.04549 -2.6102,4.51961 -0.7142,1.56005 -0.78733,1.97782 -0.78733,4.49791 0,2.36403 0.0876,2.94193 0.58764,3.87702 1.27985,2.39335 3.57274,3.42244 4.77311,2.14225 z m -45.737239,-3.78273 c 1.4838,-1.15598 1.71059,-1.49825 2.26561,-3.4192 0.43983,-1.52229 1.35461,-3.57984 1.59159,-3.57984 0.0631,0 -0.17628,0.62508 -0.53196,1.38907 -0.35569,0.76398 -0.6424,1.56765 -0.63715,1.78593 0.005,0.21828 0.35848,-0.35725 0.78493,-1.27896 0.42645,-0.92171 1.205029,-2.26116 1.730179,-2.97656 0.52515,-0.7154 0.84181,-1.30073 0.70369,-1.30073 -0.13813,0 -0.58118,0.47625 -0.98456,1.05834 -0.40339,0.58208 -0.78096,1.05833 -0.83905,1.05833 -0.221919,0 0.53702,-1.22501 1.2294,-1.98438 0.87617,-0.96094 1.21562,-1.76103 0.65602,-1.5463 -0.21003,0.0806 -0.31418,0.25608 -0.23144,0.38996 0.0827,0.13388 0.0523,0.22636 -0.0677,0.20553 -0.50837,-0.0883 -0.90063,0.0412 -0.76913,0.254 0.0779,0.12607 -0.12341,0.45349 -0.4474,0.7276 l -0.589079,0.49838 0.504029,-0.59531 c 0.27722,-0.32742 0.37354,-0.59531 0.21405,-0.59531 -0.15948,0 -0.36476,0.121 -0.45616,0.2689 -0.0914,0.14789 -0.293169,0.19042 -0.448369,0.0945 -0.15989,-0.0988 0.16334,-0.44409 0.745889,-0.79671 1.1802,-0.71441 1.04284,-0.80413 -0.34398,-0.22468 -0.526989,0.22019 -1.015069,0.34344 -1.084619,0.27389 -0.25185,-0.25184 -1.1263,0.41728 -0.95152,0.7281 0.12676,0.22541 0.0752,0.22156 -0.17779,-0.0133 -0.44222,-0.41047 -0.80145,-0.42816 -0.71351,-0.0351 0.0364,0.16257 -0.15249,0.33214 -0.41973,0.37682 -0.44701,0.0747 -0.45225,0.0441 -0.0656,-0.3832 0.23117,-0.25544 0.33439,-0.55037 0.22936,-0.65539 -0.10502,-0.10502 0.0333,-0.10489 0.30741,2.9e-4 0.34448,0.13219 0.43987,0.0966 0.30892,-0.11528 -0.12839,-0.20775 -0.0358,-0.25128 0.28733,-0.1351 0.26222,0.0943 0.38932,0.0749 0.28244,-0.043 -0.10688,-0.11794 -0.0161,-0.34527 0.20171,-0.50518 0.32018,-0.23505 0.23105,-0.30234 -0.46526,-0.35128 -0.47372,-0.0333 -0.90183,-0.18212 -0.95137,-0.33073 -0.15157,-0.45472 -3.00192,-0.29841 -4.14701,0.22742 -1.59362,0.73179 -1.98834,1.33471 -2.2876,3.49422 -0.14676,1.05907 -0.5553,2.69194 -0.90785,3.62859 -0.35256,0.93665 -0.64101,2.05192 -0.64101,2.47839 0,3.18175 4.08568,4.28829 7.11622,1.92731 z m 21.498779,-6.54542 c 1.98184,-0.96962 3.1398,-2.23066 3.3265,-3.62262 0.14774,-1.10142 0.1247,-1.14039 -1.72389,-2.91712 -3.39701,-3.26497 -6.27203,-3.70424 -10.51897,-1.60717 -1.17122,0.57832 -2.36185,1.31307 -2.64584,1.63277 -0.51607,0.58097 -0.51604,0.58111 0.0629,0.27747 0.37983,-0.1992 0.6357,-0.21246 0.74322,-0.0385 0.0902,0.14592 0.008,0.27367 -0.18238,0.2839 -0.65825,0.0353 0.71506,0.47354 1.63803,0.52267 1.01641,0.0541 0.79842,0.12741 -1.19063,0.40045 -1.03102,0.14153 -1.20615,0.22871 -0.79375,0.3951 0.29104,0.11742 0.88636,0.22368 1.32292,0.23614 0.55291,0.0158 0.68432,0.092 0.43308,0.25115 -0.25995,0.16469 -0.0383,0.34586 0.79375,0.64877 1.13437,0.41297 1.13772,0.4177 0.19253,0.27285 -1.28319,-0.19666 -1.48797,0.24864 -0.42685,0.9282 0.47276,0.30277 0.7335,0.5525 0.57941,0.55495 -0.15408,0.002 -0.51127,-0.17035 -0.79375,-0.384 -0.63405,-0.47958 -1.00566,-0.51646 -0.75137,-0.0746 0.10468,0.1819 0.0884,0.23798 -0.0361,0.12463 -0.39818,-0.36237 -0.34908,-0.94267 0.0942,-1.11276 0.37159,-0.14259 0.37699,-0.19803 0.04,-0.41112 -0.57737,-0.36513 -0.86285,-0.30624 -0.69066,0.14247 0.0838,0.21829 0.0475,0.39688 -0.0806,0.39688 -0.32889,0 -0.19251,0.65807 0.24585,1.18626 0.60739,0.73186 2.43873,1.89558 3.70922,2.35702 1.78913,0.6498 4.83286,0.44676 6.65315,-0.44383 z m 31.84229,-3.9109 c -0.3716,-0.17211 -0.18622,-0.19766 0.62262,-0.0858 1.15052,0.15908 3.21384,-0.47972 3.21384,-0.995 0,-0.12342 0.18126,-0.2244 0.40279,-0.2244 0.45752,0 2.77221,-2.04462 2.77221,-2.44876 0,-0.16309 -0.43167,-0.19603 -1.12448,-0.0858 -1.04441,0.16615 -1.0868,0.15032 -0.59531,-0.22235 0.29104,-0.22068 0.92238,-0.40502 1.40296,-0.40965 0.81469,-0.008 0.92862,-0.12556 1.68407,-1.73991 0.91452,-1.95429 0.84971,-2.17335 -0.92397,-3.12277 -0.86467,-0.46285 -0.94922,-0.46482 -1.60183,-0.0372 -0.37894,0.24829 -0.62853,0.54925 -0.55464,0.6688 0.0739,0.11955 -0.005,0.30351 -0.17545,0.40881 -0.19347,0.11957 -0.23889,0.0768 -0.12099,-0.11401 0.2645,-0.42796 -0.0303,-0.38071 -0.9261,0.14846 -0.42263,0.24966 -0.76842,0.6525 -0.76842,0.8952 0,0.2617 -0.27175,0.49322 -0.66778,0.56893 -1.30723,0.24989 -0.87206,-0.27458 1.40322,-1.69118 2.58649,-1.61037 2.8978,-2.2424 1.58667,-3.22131 l -0.7206,-0.538 -2.32211,0.71825 c -2.51389,0.77757 -3.31149,1.34473 -3.35348,2.3846 -0.0171,0.42283 -0.64003,1.35252 -1.69739,2.53316 -0.91874,1.02585 -1.59682,1.86518 -1.50684,1.86518 0.09,0 0.9012,-0.48539 1.80272,-1.07865 1.42892,-0.94032 1.52037,-0.97184 0.71309,-0.24572 -1.03891,0.93445 -1.00614,0.93138 1.14747,-0.1073 1.1796,-0.56892 1.61703,-0.67158 1.85208,-0.43466 0.23471,0.23657 0.19529,0.26736 -0.1661,0.12975 -0.32557,-0.12396 -0.44976,-0.0668 -0.39688,0.18277 0.044,0.20743 -0.12038,0.34763 -0.38321,0.32691 -0.25309,-0.0199 -0.40573,0.0518 -0.3392,0.15946 0.27922,0.45178 -0.6568,1.0522 -2.70635,1.73602 -1.20055,0.40056 -2.18281,0.7673 -2.18281,0.81498 0,0.0477 0.92118,0.0363 2.04708,-0.0252 1.47704,-0.0807 1.93752,-0.0345 1.65364,0.16587 -0.32261,0.22777 -0.30618,0.24946 0.0912,0.12052 0.26656,-0.0865 0.74281,-0.16912 1.05833,-0.18362 0.52087,-0.024 0.51279,-0.0437 -0.0878,-0.21436 -0.65088,-0.18497 -0.64804,-0.19072 0.17763,-0.35972 0.48331,-0.0989 1.32471,-0.014 1.98438,0.2002 l 1.14528,0.37195 -1.03044,-0.15476 c -0.69527,-0.10443 -0.9738,-0.0631 -0.85632,0.12695 0.11081,0.17929 -0.33223,0.33984 -1.21852,0.44155 -0.76595,0.0879 -2.22608,0.26021 -3.24472,0.38289 l -1.85209,0.22306 2.38125,0.0199 c 1.30969,0.0109 3.19202,-0.0702 4.18296,-0.18034 0.99094,-0.11011 1.85706,-0.11064 1.92472,-0.001 0.0677,0.10947 -0.44545,0.23902 -1.14025,0.28788 -1.18568,0.0834 -1.22264,0.10763 -0.6018,0.39486 0.5454,0.25234 0.058,0.3153 -2.77813,0.35883 -1.89177,0.029 -3.15239,0.10693 -2.80137,0.17309 0.46847,0.0883 0.54353,0.17879 0.28222,0.34029 -0.54238,0.33521 1.2238,1.0111 2.65145,1.01468 0.93366,0.002 1.07642,-0.0499 0.66145,-0.2421 z m -10.07306,-1.19182 c 0.56883,-0.56883 0.5221,-0.87745 -0.17954,-1.18591 -0.56264,-0.24735 -0.5561,-0.2563 0.11923,-0.16296 0.42255,0.0584 0.69285,-0.0204 0.66146,-0.19278 -0.0292,-0.16034 0.18504,-0.27057 0.47608,-0.24495 0.52166,0.0459 0.52188,0.0412 0.0155,-0.33078 -0.55511,-0.40782 -0.76602,-1.08475 -0.4071,-1.30657 0.1225,-0.0757 0.30889,0.002 0.41419,0.17212 0.12764,0.20652 0.076,0.23843 -0.15489,0.0957 -0.2309,-0.1427 -0.28253,-0.11079 -0.15489,0.0957 0.31406,0.50816 0.71709,0.0635 0.4295,-0.47387 -0.1408,-0.26308 -0.18368,-0.55063 -0.0953,-0.63901 0.0884,-0.0884 0.0101,-0.34215 -0.17399,-0.56395 -0.24804,-0.29887 -0.25353,-0.40327 -0.0212,-0.40327 0.52388,0 -1.05226,-2.59051 -2.0298,-3.33611 -0.4961,-0.3784 -1.362,-0.74969 -1.92422,-0.8251 -0.86604,-0.11616 -1.12325,-0.0281 -1.68342,0.57633 -1.05364,1.1369 -1.5682,4.3961 -0.91901,5.82092 0.29831,0.65471 1.63834,1.63231 3.79029,2.76514 1.26303,0.66489 1.30809,0.66831 1.8371,0.1393 z m -38.02677,-0.62191 c 0.37428,0.1423 0.74058,0.19868 0.81398,0.12527 0.0734,-0.0734 -0.0615,-0.20828 -0.29975,-0.29971 -0.23828,-0.0914 -0.36736,-0.27283 -0.28684,-0.4031 0.14736,-0.23845 -0.20891,-0.33559 -0.94318,-0.25718 -0.34361,0.0367 -0.34531,0.008 -0.0126,-0.21578 0.40436,-0.27167 0.5144,-0.23519 1.64098,0.54406 0.38626,0.26718 0.80298,0.48519 0.92604,0.48447 0.38645,-0.002 -1.31525,-1.32501 -2.4221,-1.88271 -0.775069,-0.39053 -0.870169,-0.49332 -0.35531,-0.38407 0.38667,0.082 0.89755,0.22382 1.1353,0.31505 0.28422,0.10907 0.40592,0.0415 0.35531,-0.19731 -0.0423,-0.19975 0.0421,-0.34355 0.18762,-0.31954 0.14552,0.024 0.2872,-0.62509 0.31484,-1.44243 0.0396,-1.17086 -0.1456,-1.9592 -0.87307,-3.71659 -1.436,-3.46901 -2.442919,-4.48957 -4.865729,-4.93164 -1.21253,-0.22124 -1.73089,0.18812 -2.33616,1.84493 -0.26581,0.72761 -1.03954,2.13412 -1.7194,3.12558 -0.96133,1.40193 -1.23611,2.0361 -1.23611,2.85277 0,2.11125 1.16553,3.66805 3.1434,4.19863 1.286,0.34498 5.963209,0.71981 6.068509,0.48633 0.0461,-0.10217 0.39001,-0.0693 0.7643,0.073 z m 4.04671,-1.81486 c 0,-0.049 -0.12717,-0.0105 -0.28259,0.0855 -0.15543,0.096 0.0252,-0.4327 0.40133,-1.17501 0.37616,-0.74232 0.74387,-1.34967 0.81714,-1.34967 0.0733,0 -0.10734,0.47151 -0.40133,1.0478 -0.294,0.57628 -0.53455,1.10833 -0.53455,1.18232 0,0.17807 0.81959,-0.11874 1.33759,-0.4844 0.22635,-0.15978 0.0775,0.0352 -0.33073,0.43337 -1.14185,1.11354 -0.88999,1.11408 0.77908,0.002 0.83674,-0.55768 2.01672,-1.23024 2.62218,-1.49458 2.50835,-1.09514 4.40436,-5.66922 3.11375,-7.51182 -0.43132,-0.61579 -2.91415,-2.16335 -3.47777,-2.1677 -0.17683,-0.001 -0.72833,0.35471 -1.22555,0.79127 -0.65259,0.57298 -1.17362,0.79375 -1.87332,0.79375 -1.95984,0 -3.32915,2.64809 -3.32287,6.42607 0.004,2.48423 0.20908,3.60593 0.55821,3.05515 0.16564,-0.26131 0.22593,-0.21554 0.23193,0.17607 0.006,0.41538 0.0591,0.44858 0.24534,0.15438 0.14032,-0.2217 0.13867,-0.63402 -0.004,-1.00941 -0.1327,-0.34905 -0.23222,-0.7757 -0.22115,-0.94813 0.0111,-0.17243 0.1758,0.10321 0.36607,0.61254 0.19027,0.50932 0.2826,1.26743 0.20517,1.68469 -0.1398,0.75344 -0.13686,0.7553 0.42768,0.27192 0.31265,-0.26769 0.56845,-0.52681 0.56845,-0.57582 z m -16.531119,-1.62556 c 0.99781,-1.54247 1.18528,-2.03953 1.18528,-3.14269 0,-1.64452 0.44044,-2.70468 1.96771,-4.7364 0.66402,-0.88333 1.2073,-1.78749 1.2073,-2.00925 0,-0.79031 -1.5375,-1.72592 -3.58467,-2.18138 -1.10015,-0.24476 -2.0589,-0.3864 -2.13055,-0.31475 -0.0717,0.0716 0.19649,0.21228 0.59586,0.31251 0.54798,0.13754 0.63525,0.23842 0.35569,0.4112 -0.20375,0.12592 -0.49519,0.15085 -0.64766,0.0554 -0.59209,-0.37065 -0.96007,-0.27575 -0.80653,0.208 0.0847,0.2668 0.0301,0.56167 -0.12138,0.65527 -0.15144,0.0936 -0.27535,0.0242 -0.27535,-0.15413 0,-0.17836 -0.0642,-0.26006 -0.14274,-0.18155 -0.25161,0.25161 0.40985,3.6721 0.83585,4.32226 0.35867,0.54739 0.36289,0.69645 0.033,1.16742 -0.36367,0.51922 -0.38924,0.50192 -0.66744,-0.45164 -0.1591,-0.54535 -0.36815,-1.42975 -0.46455,-1.96533 -0.24897,-1.38319 -1.07786,-1.28907 -1.50213,0.17057 -0.79823,2.7462 -0.15844,7.86489 1.14609,9.16943 0.98755,0.98754 1.72492,0.66119 3.01621,-1.33494 z m 53.074919,-0.49845 0.0313,-0.71199 0.19236,0.79375 0.19236,0.79375 0.31116,-0.66146 0.31116,-0.66146 -0.10112,0.72685 -0.10111,0.72685 0.58786,-0.59456 c 0.54651,-0.55273 1.45514,-2.08202 1.45514,-2.44911 0,-0.0886 -0.1177,-0.0883 -0.26156,6e-4 -0.15286,0.0945 -0.19253,-0.0182 -0.0955,-0.27115 0.11442,-0.29816 0.22465,-0.33804 0.35435,-0.12818 0.11681,0.189 0.31587,-0.003 0.52445,-0.50698 0.18489,-0.44639 0.44321,-0.81161 0.57404,-0.81161 0.13082,0 0.0107,0.44648 -0.26686,0.99219 -0.69937,1.37485 -1.35413,2.97656 -1.21678,2.97656 0.0629,0 0.416,-0.59531 0.7847,-1.32292 0.71335,-1.40772 1.0837,-1.77203 0.65491,-0.64423 -0.40768,1.07229 -0.30622,1.1031 0.36332,0.11034 1.37929,-2.04512 2.34357,-6.01616 1.80339,-7.42656 -0.3585,-0.93601 -2.07058,-2.70947 -2.412,-2.49847 -0.16316,0.10084 -0.27733,-0.0831 -0.27733,-0.4468 0,-0.9873 -0.72072,-1.79428 -1.6025,-1.79428 -0.42831,0 -0.77875,0.12024 -0.77875,0.2672 0,0.14696 -0.83158,1.16407 -1.84797,2.26024 -2.91106,3.13959 -3.37022,5.70275 -1.46798,8.19482 0.50073,0.65598 1.11452,1.84021 1.36399,2.63163 0.47027,1.49188 0.87068,1.68884 0.92493,0.45498 z m -17.76299,-2.63022 c 1.27676,-1.27768 1.70924,-3.0377 1.2965,-5.27617 -0.30172,-1.6363 -0.88636,-3.25664 -1.17505,-3.25664 -0.21278,0 -0.0175,1.51821 0.28925,2.24895 0.19788,0.47137 0.17339,0.48951 -0.22426,0.16605 -0.24553,-0.19972 -0.46263,-0.73551 -0.48245,-1.19063 -0.0274,-0.62952 -0.0636,-0.68413 -0.15121,-0.22826 -0.13485,0.70163 -0.60651,0.53212 -0.60651,-0.21798 0,-0.85252 -0.4888,-0.57623 -0.61274,0.34635 -0.0635,0.47294 -0.0705,0.0265 -0.0154,-0.99219 0.0692,-1.2798 0.0194,-1.72945 -0.16097,-1.45521 -0.1436,0.21828 -0.26713,0.27781 -0.27451,0.13229 -0.007,-0.14552 -0.18359,0.0331 -0.39155,0.39688 -0.20797,0.3638 -0.38235,0.54567 -0.3875,0.40415 -0.0311,-0.85475 -2.01085,3.06057 -2.37968,4.70636 -0.31275,1.39555 -0.10168,3.44346 0.32756,3.17817 0.15455,-0.0955 0.19273,-0.0394 0.0883,0.12963 -0.23518,0.38053 0.53383,1.56829 1.11487,1.72196 0.24351,0.0644 0.96277,0.1309 1.59835,0.14778 1.00246,0.0266 1.287,-0.10079 2.14708,-0.96149 z m 9.41115,-3.3928 1.0445,-0.50981 v -2.86776 c 0,-2.78399 -0.0208,-2.88561 -0.71072,-3.47852 -0.3909,-0.33591 -0.65257,-0.66889 -0.58151,-0.73996 0.0711,-0.0711 -0.42267,-0.39639 -1.09721,-0.72293 -1.35671,-0.65677 -2.68799,-0.62449 -4.8866,0.11847 l -1.19063,0.40235 2.71198,-0.0859 c 1.49159,-0.0472 2.71198,0.0151 2.71198,0.13845 0,0.12338 -1.15094,0.22433 -2.55764,0.22433 -1.4067,0 -2.48897,0.0687 -2.40505,0.15258 0.0839,0.0839 1.20509,0.25566 2.49149,0.38164 l 2.33891,0.22906 -2.51354,-0.0826 c -2.42376,-0.0796 -2.47574,-0.0695 -1.45521,0.28265 l 1.05833,0.36522 -0.92604,-0.13475 c -0.67203,-0.0978 -0.81718,-0.0623 -0.52917,0.12946 0.3199,0.21297 0.32976,0.30757 0.0508,0.48776 -0.23652,0.15277 0.3752,0.54493 1.93238,1.23878 1.25315,0.55838 2.34242,1.11874 2.42061,1.24525 0.0782,0.1265 -0.31514,0.0263 -0.87405,-0.22268 -0.55891,-0.24898 -1.33137,-0.46345 -1.71659,-0.4766 -0.38522,-0.0132 -1.21866,-0.43082 -1.85209,-0.92815 -1.87633,-1.47319 -1.99995,-1.51229 -0.8871,-0.28058 0.58209,0.64425 0.82021,0.98704 0.52917,0.76174 -0.50263,-0.3891 -1.46591,-0.40279 -1.44578,-0.0205 0.0184,0.34908 0.73012,3.09697 0.92816,3.5834 0.1106,0.27167 0.68903,0.72293 1.2854,1.0028 1.40772,0.66063 4.58094,0.56055 6.12522,-0.19319 z m -29.77549,-0.51622 c 0.65695,-1.06298 1.73775,-1.71338 2.84719,-1.71338 0.46939,0 0.99877,-0.25334 1.38217,-0.66146 0.34178,-0.3638 0.76933,-0.66145 0.95012,-0.66145 0.18079,0 0.38076,-0.14883 0.44439,-0.33073 0.0828,-0.2368 0.29574,-0.18044 0.74965,0.19843 l 0.63397,0.52917 -0.50985,-0.60175 c -0.28042,-0.33096 -0.63761,-0.55823 -0.79375,-0.50504 -0.15615,0.0532 -1.2364,-0.78757 -2.40057,-1.86837 -2.07977,-1.93084 -3.72529,-2.93038 -4.14057,-2.5151 -0.18213,0.18213 0.006,9.06214 0.19165,9.06214 0.0381,0 0.32864,-0.41961 0.6456,-0.93246 z m -3.20709,-1.51494 c -0.29819,-2.09375 -0.27213,-5.49328 0.0592,-7.72101 0.37658,-2.53198 0.13811,-3.35866 -0.53799,-1.86497 -0.600799,1.32734 -1.198299,1.8577 -2.681229,2.37997 -0.64762,0.22807 -1.6166,0.71854 -2.15329,1.08992 -0.7532,0.5212 -1.15941,0.6349 -1.78074,0.49844 l -0.80495,-0.1768 0.37668,0.90152 c 0.20717,0.49583 0.45623,1.50123 0.55346,2.23423 l 0.1768,1.33271 1.62415,0.16907 c 1.72431,0.17949 4.00255,1.13659 4.798169,2.01573 0.26392,0.29164 0.4996,0.53025 0.52372,0.53025 0.0241,0 -0.0452,-0.62508 -0.15399,-1.38906 z m -17.668839,-1.57007 c 0.56551,-0.31784 1.02821,-0.65375 1.02821,-0.74646 0,-0.0927 -0.80367,-0.0725 -1.78594,0.0449 -2.95037,0.35261 -3.24115,0.3517 -3.24115,-0.0101 0,-0.12718 0.86321,-0.2506 1.91823,-0.27426 2.30537,-0.0517 3.90567,-0.3257 3.98022,-0.6815 0.0301,-0.14353 -0.18345,-0.29933 -0.47449,-0.34622 -1.12461,-0.1812 -1.35,-0.38344 -0.66146,-0.59349 0.61005,-0.18611 0.58949,-0.20623 -0.26458,-0.25886 -0.50932,-0.0314 -0.71622,-0.1118 -0.45978,-0.17869 0.25644,-0.0669 0.40511,-0.22057 0.33036,-0.34151 -0.0747,-0.12093 0.13216,-0.16113 0.45978,-0.0893 0.47851,0.10488 0.51761,0.0748 0.19881,-0.15292 -0.37397,-0.26712 -0.18218,-0.4165 0.38945,-0.30334 0.14143,0.028 0.0224,-0.2099 -0.26459,-0.52866 l -0.52174,-0.57957 0.99219,0.55547 c 0.5457,0.30551 0.99219,0.49923 0.99219,0.43049 0,-0.0687 -0.31546,-0.92991 -0.70103,-1.91371 -1.4051,-3.58525 -2.55527,-4.4152 -5.90597,-4.26174 -3.80271,0.17418 -6.61562,2.18222 -7.45544,5.32221 -0.25296,0.94581 -0.24693,1.35404 0.0299,2.0223 0.38295,0.92451 2.43654,2.30651 2.95304,1.9873 0.18832,-0.11639 0.24345,-0.0805 0.13815,0.0898 -0.10568,0.171 0.32437,0.44301 1.0836,0.68538 1.85551,0.59235 2.13418,0.6361 4.26551,0.66967 1.55156,0.0244 2.15774,-0.087 2.97656,-0.54719 z m 35.381399,-1.25266 c 0.53278,-0.27192 1.19325,-0.74271 1.46772,-1.0462 0.47041,-0.52015 0.4724,-0.56203 0.0346,-0.73003 -0.3828,-0.14689 -0.28451,-0.28713 0.5593,-0.79791 0.60609,-0.36688 0.83822,-0.62024 0.56901,-0.62104 -0.29438,-8.8e-4 -0.40125,-0.14071 -0.30308,-0.39653 0.0907,-0.23647 -0.0454,-0.47555 -0.33903,-0.59531 -0.26987,-0.11008 -0.50458,-0.46373 -0.52157,-0.7859 -0.0271,-0.51416 0.0376,-0.5502 0.52917,-0.29489 0.84278,0.4377 0.90017,0.56947 0.16318,0.37468 -0.61827,-0.16341 -0.61242,-0.14693 0.0895,0.25242 0.41305,0.23499 0.81984,0.3584 0.90399,0.27425 0.0842,-0.0841 0.007,-0.153 -0.1713,-0.153 -0.17836,0 -0.2545,-0.11292 -0.16921,-0.25093 0.17841,-0.28868 -2.40306,-2.26579 -3.90736,-2.99258 -0.58656,-0.2834 -1.42633,-0.45623 -1.98923,-0.4094 -0.89433,0.0744 -0.99582,0.16784 -1.23872,1.14048 -0.14552,0.58269 -0.55825,1.53142 -0.91718,2.10829 -0.89277,1.43486 -1.07541,3.97738 -0.35005,4.87316 0.92365,1.14065 3.41018,1.16309 5.59021,0.0504 z m 10.08604,-4.13817 c 1.77536,-0.4038 4.29066,-1.69969 5.52662,-2.84732 0.96237,-0.89359 1.6279,-2.42137 1.6279,-3.73695 0,-0.9486 -0.16017,-1.3763 -0.77187,-2.06106 -0.76129,-0.85223 -0.80389,-0.86407 -3.10885,-0.86407 -1.96768,0 -2.54364,0.10453 -3.64468,0.66146 -0.7992,0.40425 -1.33274,0.85865 -1.37212,1.1686 -0.0354,0.27893 -0.4516,0.87424 -0.92479,1.32291 -0.8505,0.80644 -0.63254,0.34957 0.41705,-0.87416 0.38426,-0.44802 0.42636,-0.59662 0.14484,-0.51122 -0.63534,0.19273 -2.3351,2.88027 -2.6952,4.2615 -0.25995,0.99705 -0.26168,1.37636 -0.008,1.78235 0.40462,0.6479 0.41057,0.87342 0.0166,0.62995 -0.19077,-0.11791 -0.23358,-0.0725 -0.11401,0.12099 0.1053,0.17038 0.30336,0.24062 0.44012,0.1561 0.13677,-0.0845 0.50146,-0.0735 0.81043,0.0246 0.44158,0.14016 0.48352,0.22785 0.19607,0.40991 -0.23964,0.15177 -0.25707,0.233 -0.0506,0.23565 0.17331,0.002 0.38776,-0.1135 0.47656,-0.25717 0.0888,-0.14368 0.60184,-0.20599 1.14009,-0.13848 0.55913,0.0701 0.83173,0.0305 0.63591,-0.0925 -0.24567,-0.15431 -0.0327,-0.42045 0.75188,-0.93967 0.60204,-0.39842 1.15823,-0.66078 1.23598,-0.58303 0.0778,0.0778 -0.30986,0.40759 -0.86136,0.73298 -0.64602,0.38116 -0.87031,0.63575 -0.63052,0.71569 0.22154,0.0738 -0.0555,0.31272 -0.68427,0.59013 -1.33512,0.589 -0.86719,0.61904 1.4463,0.0928 z m -6.16283,-1.37347 c -0.19887,-0.33051 0.21249,-2.32164 0.45997,-2.22637 0.33694,0.12972 0.5987,-0.38049 1.35938,-2.64975 0.50545,-1.50783 0.65116,-2.39492 0.56501,-3.43959 -0.15125,-1.83387 -0.35257,-2.27285 -1.25677,-2.74042 -1.1318,-0.58528 -1.5211,-0.4831 -2.55738,0.67124 -0.73542,0.81921 -1.14272,1.05833 -1.80268,1.05833 -0.80994,0 -0.86169,0.0607 -1.03445,1.21269 -0.10002,0.66697 -0.35166,1.69398 -0.55921,2.28222 -0.20754,0.58825 -0.37735,1.29234 -0.37735,1.56467 0,1.01289 3.02063,3.69724 3.69289,3.28176 0.13077,-0.0808 0.31146,0.0853 0.40153,0.36905 0.0901,0.28381 0.36654,0.56938 0.61436,0.63461 0.24783,0.0652 0.48738,0.13242 0.53235,0.1493 0.045,0.0169 0.028,-0.0586 -0.0376,-0.16774 z m -11.68577,-1.91823 c 0.26338,-0.29105 0.39426,-0.52917 0.29083,-0.52917 -0.10343,0 0.11176,-0.26789 0.4782,-0.59531 0.36644,-0.32743 0.7444,-0.9525 0.83992,-1.38907 0.15665,-0.71597 0.13761,-0.74711 -0.19436,-0.31783 -0.43511,0.56268 -3.21786,0.95723 -3.50253,0.49661 -0.12032,-0.19469 0.20074,-0.23854 1.01566,-0.13874 1.07733,0.13194 1.27151,0.066 2.02495,-0.68742 0.73854,-0.73854 0.81674,-0.95732 0.68724,-1.92279 -0.17397,-1.2971 -1.31185,-3.00849 -2.55916,-3.84905 -0.98027,-0.6606 -2.9167,-1.26364 -4.73519,-1.47462 -1.43611,-0.16662 -1.13954,0.1441 0.71064,0.74454 1.7957,0.58276 1.67513,0.73679 -0.19668,0.25125 -0.78958,-0.20482 -1.48623,-0.32176 -1.54811,-0.25987 -0.21889,0.21888 3.72455,2.0397 4.16693,1.92402 0.26015,-0.068 0.44909,0.0343 0.44909,0.24313 0,0.53164 -0.24592,0.46456 -2.55764,-0.69776 -1.15771,-0.58208 -2.19236,-1.05833 -2.29924,-1.05833 -0.10687,0 0.21791,0.36578 0.72173,0.81284 l 0.91605,0.81284 -0.98961,-0.70999 c -0.54429,-0.39049 -0.9293,-0.80757 -0.85558,-0.92685 0.22211,-0.35938 -0.40139,-0.58477 -0.77043,-0.2785 -0.18892,0.15679 -0.42183,0.20673 -0.51758,0.11097 -0.0957,-0.0957 -0.17409,-0.0896 -0.17409,0.0136 0,0.31322 2.43311,2.81088 2.73824,2.81088 0.15651,0 -0.27939,-0.57257 -0.96868,-1.27239 -1.15621,-1.17385 -1.32923,-1.64427 -0.60099,-1.63397 0.15952,0.002 0.13303,0.10147 -0.0597,0.22372 -0.25318,0.16057 0.0672,0.59792 1.19063,1.62542 0.84535,0.77316 1.5388,1.54932 1.54099,1.72479 0.002,0.17548 0.18079,0.54253 0.39688,0.81568 0.46875,0.59253 -2.03409,-1.44635 -2.75133,-2.2413 -0.27411,-0.30381 -0.5909,-0.49521 -0.70397,-0.42532 -0.11308,0.0699 -0.58924,-0.37941 -1.05815,-0.99843 -0.46891,-0.61902 -0.78093,-0.91713 -0.69339,-0.66247 0.22639,0.65859 -0.085,1.42328 -0.38617,0.94823 -0.1799,-0.28381 -0.22814,-0.2752 -0.24636,0.044 -0.015,0.26269 -0.095,0.21797 -0.2367,-0.13229 -0.397299,-0.98214 0.013,3.15285 0.42802,4.31383 0.28197,0.78874 0.72471,1.349 1.4402,1.82249 1.07597,0.71203 1.34204,0.72331 4.99761,0.21179 1.08097,-0.15125 0.93217,-0.0816 -1.12766,0.528 -1.29497,0.38323 -1.72541,0.40298 -2.85855,0.13115 -1.44366,-0.34633 -1.81451,-0.2635 -1.17956,0.26346 0.25625,0.21267 0.40327,0.23104 0.40327,0.0504 0,-0.15637 0.59571,0.0248 1.32379,0.4025 0.72809,0.37774 1.68032,0.69946 2.11607,0.71494 0.43575,0.0155 0.79254,0.13131 0.79287,0.25742 3.3e-4,0.12611 0.23873,0.16703 0.52977,0.0909 0.29104,-0.0761 0.52917,-0.0305 0.52917,0.10143 0,0.1319 0.57686,0.23981 1.28191,0.23981 0.94589,0 1.40743,-0.1387 1.7608,-0.52916 z m -17.760809,-8.83093 c 1.09054,-0.78242 2.66522,-1.70516 3.49928,-2.05052 1.46346,-0.60597 1.48951,-0.63376 0.74525,-0.79505 -0.42417,-0.0919 -1.4856,-0.18305 -2.35872,-0.20249 -0.87313,-0.0194 -1.7661,-0.15124 -1.98438,-0.29287 -0.2635,-0.17098 0.41574,-0.20146 2.02113,-0.0907 2.33178,0.16086 2.42958,0.14517 2.74276,-0.44001 0.28388,-0.53045 0.2692,-0.5855 -0.11664,-0.43744 -0.24277,0.0932 -0.37494,0.0618 -0.29372,-0.0696 0.0812,-0.13143 -0.26978,-0.49696 -0.78001,-0.8123 -0.93333,-0.57684 -1.35957,-1.32385 -0.46466,-0.81437 0.5834,0.33213 2.71212,2.24316 2.20807,1.98227 -0.24349,-0.12604 -0.30682,-0.0875 -0.1837,0.11169 0.10335,0.16723 0.44917,0.44324 0.76849,0.61337 0.5047,0.2689 0.53765,0.25726 0.25214,-0.0891 -0.18064,-0.21911 -0.26715,-0.45968 -0.19224,-0.53459 0.22437,-0.22436 -3.44863,-3.55206 -4.78522,-4.33535 -0.95622,-0.56038 -1.58314,-0.72733 -2.73125,-0.72733 -1.67061,0 -2.20389,0.22167 -4.21331,1.75143 -1.45223,1.10557 -2.12485,1.98745 -1.73364,2.27301 0.12417,0.0906 0.25209,0.79432 0.28428,1.56373 0.0322,0.76942 0.15543,1.5721 0.27386,1.78373 0.24801,0.44315 4.27289,3.00882 4.74477,3.02455 0.17306,0.006 1.20691,-0.62968 2.29746,-1.41211 z m 19.614819,-1.84535 c 2.26783,-1.05608 4.0228,-3.55968 4.28654,-6.11512 0.16931,-1.64048 -0.16618,-2.39612 -1.17264,-2.64114 -0.40402,-0.0984 -1.17851,-0.46924 -1.7211,-0.82418 -0.83456,-0.54596 -1.30322,-0.64446 -3.0427,-0.63955 -2.58743,0.007 -3.77687,0.51948 -5.40064,2.3255 -1.6291,1.81197 -4.17355,6.66453 -3.49455,6.66453 0.33239,0 3.80806,-2.7567 4.1677,-3.30557 0.23899,-0.36475 0.55085,-0.66318 0.69302,-0.66318 0.61252,0 0.1343,0.56387 -1.70843,2.01441 -1.0818,0.85156 -1.9198,1.5954 -1.86222,1.65298 0.0576,0.0576 0.65952,-0.035 1.33764,-0.20576 0.67812,-0.17075 1.28442,-0.25899 1.34733,-0.19607 0.0629,0.0629 -0.51711,0.27663 -1.28895,0.47493 l -1.40335,0.36055 1.98438,0.15077 1.98437,0.15077 -2.11666,0.0686 c -2.4342,0.0788 -2.10704,0.32813 1.23023,0.9374 3.0367,0.5544 4.65707,0.49938 6.18003,-0.20982 z"
       style="fill:#000000"
       id="path1-2" /></g></svg>
